%TF.GenerationSoftware,KiCad,Pcbnew,10.0.3*%
%TF.CreationDate,2026-07-20T09:59:09-07:00*%
%TF.ProjectId,SHT41-Sensor-Breakout,53485434-312d-4536-956e-736f722d4272,A*%
%TF.SameCoordinates,Original*%
%TF.FileFunction,Legend,Top*%
%TF.FilePolarity,Positive*%
%FSLAX46Y46*%
G04 Gerber Fmt 4.6, Leading zero omitted, Abs format (unit mm)*
G04 Created by KiCad (PCBNEW 10.0.3) date 2026-07-20 09:59:09*
%MOMM*%
%LPD*%
G01*
G04 APERTURE LIST*
%ADD10C,0.150000*%
%ADD11C,0.200000*%
%ADD12C,0.250000*%
%ADD13C,0.120000*%
%ADD14C,0.152400*%
G04 APERTURE END LIST*
D10*
X80010000Y-73025000D02*
X80035400Y-73025000D01*
X80035400Y-82804016D01*
X80010000Y-82804016D01*
X80010000Y-73025000D01*
X80010000Y-73025000D02*
X93345000Y-73025000D01*
X80010000Y-73025000D01*
X80010000Y-82804000D02*
X90805000Y-82804000D01*
X80010000Y-82804000D01*
X90805000Y-78105000D02*
X90830400Y-78105000D01*
X90830400Y-82804000D01*
X90805000Y-82804000D01*
X90805000Y-78105000D01*
X90805000Y-78105000D02*
X93345000Y-78105000D01*
X90805000Y-78105000D01*
D11*
X93345000Y-41731608D02*
X108418730Y-41731608D01*
X108418730Y-55880000D01*
X93345000Y-55880000D01*
X93345000Y-41731608D01*
D10*
X93345000Y-73025000D02*
X93345000Y-78105000D01*
X93345000Y-73025000D01*
X110965000Y-44525000D02*
X129065000Y-44525000D01*
X129065000Y-63425000D01*
X110965000Y-63425000D01*
X110965000Y-44525000D01*
X135583385Y-49952030D02*
X135583385Y-49456792D01*
X135583385Y-49456792D02*
X135888147Y-49723458D01*
X135888147Y-49723458D02*
X135888147Y-49609173D01*
X135888147Y-49609173D02*
X135926242Y-49532982D01*
X135926242Y-49532982D02*
X135964337Y-49494887D01*
X135964337Y-49494887D02*
X136040528Y-49456792D01*
X136040528Y-49456792D02*
X136231004Y-49456792D01*
X136231004Y-49456792D02*
X136307194Y-49494887D01*
X136307194Y-49494887D02*
X136345290Y-49532982D01*
X136345290Y-49532982D02*
X136383385Y-49609173D01*
X136383385Y-49609173D02*
X136383385Y-49837744D01*
X136383385Y-49837744D02*
X136345290Y-49913935D01*
X136345290Y-49913935D02*
X136307194Y-49952030D01*
X136307194Y-49113934D02*
X136345290Y-49075839D01*
X136345290Y-49075839D02*
X136383385Y-49113934D01*
X136383385Y-49113934D02*
X136345290Y-49152030D01*
X136345290Y-49152030D02*
X136307194Y-49113934D01*
X136307194Y-49113934D02*
X136383385Y-49113934D01*
X135583385Y-48809173D02*
X135583385Y-48313935D01*
X135583385Y-48313935D02*
X135888147Y-48580601D01*
X135888147Y-48580601D02*
X135888147Y-48466316D01*
X135888147Y-48466316D02*
X135926242Y-48390125D01*
X135926242Y-48390125D02*
X135964337Y-48352030D01*
X135964337Y-48352030D02*
X136040528Y-48313935D01*
X136040528Y-48313935D02*
X136231004Y-48313935D01*
X136231004Y-48313935D02*
X136307194Y-48352030D01*
X136307194Y-48352030D02*
X136345290Y-48390125D01*
X136345290Y-48390125D02*
X136383385Y-48466316D01*
X136383385Y-48466316D02*
X136383385Y-48694887D01*
X136383385Y-48694887D02*
X136345290Y-48771078D01*
X136345290Y-48771078D02*
X136307194Y-48809173D01*
X135583385Y-48085363D02*
X136383385Y-47818696D01*
X136383385Y-47818696D02*
X135583385Y-47552030D01*
X135583385Y-46523458D02*
X135583385Y-46371077D01*
X135583385Y-46371077D02*
X135621480Y-46294887D01*
X135621480Y-46294887D02*
X135697670Y-46218696D01*
X135697670Y-46218696D02*
X135850051Y-46180601D01*
X135850051Y-46180601D02*
X136116718Y-46180601D01*
X136116718Y-46180601D02*
X136269099Y-46218696D01*
X136269099Y-46218696D02*
X136345290Y-46294887D01*
X136345290Y-46294887D02*
X136383385Y-46371077D01*
X136383385Y-46371077D02*
X136383385Y-46523458D01*
X136383385Y-46523458D02*
X136345290Y-46599649D01*
X136345290Y-46599649D02*
X136269099Y-46675839D01*
X136269099Y-46675839D02*
X136116718Y-46713935D01*
X136116718Y-46713935D02*
X135850051Y-46713935D01*
X135850051Y-46713935D02*
X135697670Y-46675839D01*
X135697670Y-46675839D02*
X135621480Y-46599649D01*
X135621480Y-46599649D02*
X135583385Y-46523458D01*
X136383385Y-45837744D02*
X135583385Y-45837744D01*
X135583385Y-45837744D02*
X136383385Y-45380601D01*
X136383385Y-45380601D02*
X135583385Y-45380601D01*
X136383385Y-44618697D02*
X136383385Y-44999649D01*
X136383385Y-44999649D02*
X135583385Y-44999649D01*
X136002432Y-44199649D02*
X136383385Y-44199649D01*
X135583385Y-44466316D02*
X136002432Y-44199649D01*
X136002432Y-44199649D02*
X135583385Y-43932983D01*
X138197390Y-49456792D02*
X138159295Y-49532982D01*
X138159295Y-49532982D02*
X138159295Y-49647268D01*
X138159295Y-49647268D02*
X138197390Y-49761554D01*
X138197390Y-49761554D02*
X138273580Y-49837744D01*
X138273580Y-49837744D02*
X138349771Y-49875839D01*
X138349771Y-49875839D02*
X138502152Y-49913935D01*
X138502152Y-49913935D02*
X138616438Y-49913935D01*
X138616438Y-49913935D02*
X138768819Y-49875839D01*
X138768819Y-49875839D02*
X138845009Y-49837744D01*
X138845009Y-49837744D02*
X138921200Y-49761554D01*
X138921200Y-49761554D02*
X138959295Y-49647268D01*
X138959295Y-49647268D02*
X138959295Y-49571077D01*
X138959295Y-49571077D02*
X138921200Y-49456792D01*
X138921200Y-49456792D02*
X138883104Y-49418696D01*
X138883104Y-49418696D02*
X138616438Y-49418696D01*
X138616438Y-49418696D02*
X138616438Y-49571077D01*
X138959295Y-49075839D02*
X138159295Y-49075839D01*
X138159295Y-49075839D02*
X138959295Y-48618696D01*
X138959295Y-48618696D02*
X138159295Y-48618696D01*
X138959295Y-48237744D02*
X138159295Y-48237744D01*
X138159295Y-48237744D02*
X138159295Y-48047268D01*
X138159295Y-48047268D02*
X138197390Y-47932982D01*
X138197390Y-47932982D02*
X138273580Y-47856792D01*
X138273580Y-47856792D02*
X138349771Y-47818697D01*
X138349771Y-47818697D02*
X138502152Y-47780601D01*
X138502152Y-47780601D02*
X138616438Y-47780601D01*
X138616438Y-47780601D02*
X138768819Y-47818697D01*
X138768819Y-47818697D02*
X138845009Y-47856792D01*
X138845009Y-47856792D02*
X138921200Y-47932982D01*
X138921200Y-47932982D02*
X138959295Y-48047268D01*
X138959295Y-48047268D02*
X138959295Y-48237744D01*
X89990290Y-51818935D02*
X90028385Y-51704649D01*
X90028385Y-51704649D02*
X90028385Y-51514173D01*
X90028385Y-51514173D02*
X89990290Y-51437982D01*
X89990290Y-51437982D02*
X89952194Y-51399887D01*
X89952194Y-51399887D02*
X89876004Y-51361792D01*
X89876004Y-51361792D02*
X89799813Y-51361792D01*
X89799813Y-51361792D02*
X89723623Y-51399887D01*
X89723623Y-51399887D02*
X89685528Y-51437982D01*
X89685528Y-51437982D02*
X89647432Y-51514173D01*
X89647432Y-51514173D02*
X89609337Y-51666554D01*
X89609337Y-51666554D02*
X89571242Y-51742744D01*
X89571242Y-51742744D02*
X89533147Y-51780839D01*
X89533147Y-51780839D02*
X89456956Y-51818935D01*
X89456956Y-51818935D02*
X89380766Y-51818935D01*
X89380766Y-51818935D02*
X89304575Y-51780839D01*
X89304575Y-51780839D02*
X89266480Y-51742744D01*
X89266480Y-51742744D02*
X89228385Y-51666554D01*
X89228385Y-51666554D02*
X89228385Y-51476077D01*
X89228385Y-51476077D02*
X89266480Y-51361792D01*
X89228385Y-51095125D02*
X90028385Y-50904649D01*
X90028385Y-50904649D02*
X89456956Y-50752268D01*
X89456956Y-50752268D02*
X90028385Y-50599887D01*
X90028385Y-50599887D02*
X89228385Y-50409411D01*
X90028385Y-50104648D02*
X89228385Y-50104648D01*
X89228385Y-50104648D02*
X89228385Y-49914172D01*
X89228385Y-49914172D02*
X89266480Y-49799886D01*
X89266480Y-49799886D02*
X89342670Y-49723696D01*
X89342670Y-49723696D02*
X89418861Y-49685601D01*
X89418861Y-49685601D02*
X89571242Y-49647505D01*
X89571242Y-49647505D02*
X89685528Y-49647505D01*
X89685528Y-49647505D02*
X89837909Y-49685601D01*
X89837909Y-49685601D02*
X89914099Y-49723696D01*
X89914099Y-49723696D02*
X89990290Y-49799886D01*
X89990290Y-49799886D02*
X90028385Y-49914172D01*
X90028385Y-49914172D02*
X90028385Y-50104648D01*
X90028385Y-48695124D02*
X89228385Y-48695124D01*
X89228385Y-48695124D02*
X89228385Y-48504648D01*
X89228385Y-48504648D02*
X89266480Y-48390362D01*
X89266480Y-48390362D02*
X89342670Y-48314172D01*
X89342670Y-48314172D02*
X89418861Y-48276077D01*
X89418861Y-48276077D02*
X89571242Y-48237981D01*
X89571242Y-48237981D02*
X89685528Y-48237981D01*
X89685528Y-48237981D02*
X89837909Y-48276077D01*
X89837909Y-48276077D02*
X89914099Y-48314172D01*
X89914099Y-48314172D02*
X89990290Y-48390362D01*
X89990290Y-48390362D02*
X90028385Y-48504648D01*
X90028385Y-48504648D02*
X90028385Y-48695124D01*
X89609337Y-47895124D02*
X89609337Y-47628458D01*
X90028385Y-47514172D02*
X90028385Y-47895124D01*
X90028385Y-47895124D02*
X89228385Y-47895124D01*
X89228385Y-47895124D02*
X89228385Y-47514172D01*
X89609337Y-46904648D02*
X89647432Y-46790362D01*
X89647432Y-46790362D02*
X89685528Y-46752267D01*
X89685528Y-46752267D02*
X89761718Y-46714171D01*
X89761718Y-46714171D02*
X89876004Y-46714171D01*
X89876004Y-46714171D02*
X89952194Y-46752267D01*
X89952194Y-46752267D02*
X89990290Y-46790362D01*
X89990290Y-46790362D02*
X90028385Y-46866552D01*
X90028385Y-46866552D02*
X90028385Y-47171314D01*
X90028385Y-47171314D02*
X89228385Y-47171314D01*
X89228385Y-47171314D02*
X89228385Y-46904648D01*
X89228385Y-46904648D02*
X89266480Y-46828457D01*
X89266480Y-46828457D02*
X89304575Y-46790362D01*
X89304575Y-46790362D02*
X89380766Y-46752267D01*
X89380766Y-46752267D02*
X89456956Y-46752267D01*
X89456956Y-46752267D02*
X89533147Y-46790362D01*
X89533147Y-46790362D02*
X89571242Y-46828457D01*
X89571242Y-46828457D02*
X89609337Y-46904648D01*
X89609337Y-46904648D02*
X89609337Y-47171314D01*
X89228385Y-46371314D02*
X89876004Y-46371314D01*
X89876004Y-46371314D02*
X89952194Y-46333219D01*
X89952194Y-46333219D02*
X89990290Y-46295124D01*
X89990290Y-46295124D02*
X90028385Y-46218933D01*
X90028385Y-46218933D02*
X90028385Y-46066552D01*
X90028385Y-46066552D02*
X89990290Y-45990362D01*
X89990290Y-45990362D02*
X89952194Y-45952267D01*
X89952194Y-45952267D02*
X89876004Y-45914171D01*
X89876004Y-45914171D02*
X89228385Y-45914171D01*
X89266480Y-45114172D02*
X89228385Y-45190362D01*
X89228385Y-45190362D02*
X89228385Y-45304648D01*
X89228385Y-45304648D02*
X89266480Y-45418934D01*
X89266480Y-45418934D02*
X89342670Y-45495124D01*
X89342670Y-45495124D02*
X89418861Y-45533219D01*
X89418861Y-45533219D02*
X89571242Y-45571315D01*
X89571242Y-45571315D02*
X89685528Y-45571315D01*
X89685528Y-45571315D02*
X89837909Y-45533219D01*
X89837909Y-45533219D02*
X89914099Y-45495124D01*
X89914099Y-45495124D02*
X89990290Y-45418934D01*
X89990290Y-45418934D02*
X90028385Y-45304648D01*
X90028385Y-45304648D02*
X90028385Y-45228457D01*
X90028385Y-45228457D02*
X89990290Y-45114172D01*
X89990290Y-45114172D02*
X89952194Y-45076076D01*
X89952194Y-45076076D02*
X89685528Y-45076076D01*
X89685528Y-45076076D02*
X89685528Y-45228457D01*
X91316340Y-51780839D02*
X90516340Y-51780839D01*
X90516340Y-51780839D02*
X91316340Y-51323696D01*
X91316340Y-51323696D02*
X90516340Y-51323696D01*
X90516340Y-50790363D02*
X90516340Y-50637982D01*
X90516340Y-50637982D02*
X90554435Y-50561792D01*
X90554435Y-50561792D02*
X90630625Y-50485601D01*
X90630625Y-50485601D02*
X90783006Y-50447506D01*
X90783006Y-50447506D02*
X91049673Y-50447506D01*
X91049673Y-50447506D02*
X91202054Y-50485601D01*
X91202054Y-50485601D02*
X91278245Y-50561792D01*
X91278245Y-50561792D02*
X91316340Y-50637982D01*
X91316340Y-50637982D02*
X91316340Y-50790363D01*
X91316340Y-50790363D02*
X91278245Y-50866554D01*
X91278245Y-50866554D02*
X91202054Y-50942744D01*
X91202054Y-50942744D02*
X91049673Y-50980840D01*
X91049673Y-50980840D02*
X90783006Y-50980840D01*
X90783006Y-50980840D02*
X90630625Y-50942744D01*
X90630625Y-50942744D02*
X90554435Y-50866554D01*
X90554435Y-50866554D02*
X90516340Y-50790363D01*
X91316340Y-50104649D02*
X90516340Y-50104649D01*
X90516340Y-50104649D02*
X91316340Y-49647506D01*
X91316340Y-49647506D02*
X90516340Y-49647506D01*
X91278245Y-49304650D02*
X91316340Y-49190364D01*
X91316340Y-49190364D02*
X91316340Y-48999888D01*
X91316340Y-48999888D02*
X91278245Y-48923697D01*
X91278245Y-48923697D02*
X91240149Y-48885602D01*
X91240149Y-48885602D02*
X91163959Y-48847507D01*
X91163959Y-48847507D02*
X91087768Y-48847507D01*
X91087768Y-48847507D02*
X91011578Y-48885602D01*
X91011578Y-48885602D02*
X90973483Y-48923697D01*
X90973483Y-48923697D02*
X90935387Y-48999888D01*
X90935387Y-48999888D02*
X90897292Y-49152269D01*
X90897292Y-49152269D02*
X90859197Y-49228459D01*
X90859197Y-49228459D02*
X90821102Y-49266554D01*
X90821102Y-49266554D02*
X90744911Y-49304650D01*
X90744911Y-49304650D02*
X90668721Y-49304650D01*
X90668721Y-49304650D02*
X90592530Y-49266554D01*
X90592530Y-49266554D02*
X90554435Y-49228459D01*
X90554435Y-49228459D02*
X90516340Y-49152269D01*
X90516340Y-49152269D02*
X90516340Y-48961792D01*
X90516340Y-48961792D02*
X90554435Y-48847507D01*
X90516340Y-48618935D02*
X90516340Y-48161792D01*
X91316340Y-48390364D02*
X90516340Y-48390364D01*
X91316340Y-47895125D02*
X90516340Y-47895125D01*
X90516340Y-47895125D02*
X90516340Y-47704649D01*
X90516340Y-47704649D02*
X90554435Y-47590363D01*
X90554435Y-47590363D02*
X90630625Y-47514173D01*
X90630625Y-47514173D02*
X90706816Y-47476078D01*
X90706816Y-47476078D02*
X90859197Y-47437982D01*
X90859197Y-47437982D02*
X90973483Y-47437982D01*
X90973483Y-47437982D02*
X91125864Y-47476078D01*
X91125864Y-47476078D02*
X91202054Y-47514173D01*
X91202054Y-47514173D02*
X91278245Y-47590363D01*
X91278245Y-47590363D02*
X91316340Y-47704649D01*
X91316340Y-47704649D02*
X91316340Y-47895125D01*
X91316340Y-46485601D02*
X90516340Y-46485601D01*
X90516340Y-46485601D02*
X90516340Y-46180839D01*
X90516340Y-46180839D02*
X90554435Y-46104649D01*
X90554435Y-46104649D02*
X90592530Y-46066554D01*
X90592530Y-46066554D02*
X90668721Y-46028458D01*
X90668721Y-46028458D02*
X90783006Y-46028458D01*
X90783006Y-46028458D02*
X90859197Y-46066554D01*
X90859197Y-46066554D02*
X90897292Y-46104649D01*
X90897292Y-46104649D02*
X90935387Y-46180839D01*
X90935387Y-46180839D02*
X90935387Y-46485601D01*
X91316340Y-45685601D02*
X90516340Y-45685601D01*
X91316340Y-45304649D02*
X90516340Y-45304649D01*
X90516340Y-45304649D02*
X91316340Y-44847506D01*
X91316340Y-44847506D02*
X90516340Y-44847506D01*
X90516340Y-44314173D02*
X90516340Y-44161792D01*
X90516340Y-44161792D02*
X90554435Y-44085602D01*
X90554435Y-44085602D02*
X90630625Y-44009411D01*
X90630625Y-44009411D02*
X90783006Y-43971316D01*
X90783006Y-43971316D02*
X91049673Y-43971316D01*
X91049673Y-43971316D02*
X91202054Y-44009411D01*
X91202054Y-44009411D02*
X91278245Y-44085602D01*
X91278245Y-44085602D02*
X91316340Y-44161792D01*
X91316340Y-44161792D02*
X91316340Y-44314173D01*
X91316340Y-44314173D02*
X91278245Y-44390364D01*
X91278245Y-44390364D02*
X91202054Y-44466554D01*
X91202054Y-44466554D02*
X91049673Y-44504650D01*
X91049673Y-44504650D02*
X90783006Y-44504650D01*
X90783006Y-44504650D02*
X90630625Y-44466554D01*
X90630625Y-44466554D02*
X90554435Y-44390364D01*
X90554435Y-44390364D02*
X90516340Y-44314173D01*
X90516340Y-43628459D02*
X91163959Y-43628459D01*
X91163959Y-43628459D02*
X91240149Y-43590364D01*
X91240149Y-43590364D02*
X91278245Y-43552269D01*
X91278245Y-43552269D02*
X91316340Y-43476078D01*
X91316340Y-43476078D02*
X91316340Y-43323697D01*
X91316340Y-43323697D02*
X91278245Y-43247507D01*
X91278245Y-43247507D02*
X91240149Y-43209412D01*
X91240149Y-43209412D02*
X91163959Y-43171316D01*
X91163959Y-43171316D02*
X90516340Y-43171316D01*
X90516340Y-42904650D02*
X90516340Y-42447507D01*
X91316340Y-42676079D02*
X90516340Y-42676079D01*
X91804295Y-51780839D02*
X92451914Y-51780839D01*
X92451914Y-51780839D02*
X92528104Y-51742744D01*
X92528104Y-51742744D02*
X92566200Y-51704649D01*
X92566200Y-51704649D02*
X92604295Y-51628458D01*
X92604295Y-51628458D02*
X92604295Y-51476077D01*
X92604295Y-51476077D02*
X92566200Y-51399887D01*
X92566200Y-51399887D02*
X92528104Y-51361792D01*
X92528104Y-51361792D02*
X92451914Y-51323696D01*
X92451914Y-51323696D02*
X91804295Y-51323696D01*
X92566200Y-50980840D02*
X92604295Y-50866554D01*
X92604295Y-50866554D02*
X92604295Y-50676078D01*
X92604295Y-50676078D02*
X92566200Y-50599887D01*
X92566200Y-50599887D02*
X92528104Y-50561792D01*
X92528104Y-50561792D02*
X92451914Y-50523697D01*
X92451914Y-50523697D02*
X92375723Y-50523697D01*
X92375723Y-50523697D02*
X92299533Y-50561792D01*
X92299533Y-50561792D02*
X92261438Y-50599887D01*
X92261438Y-50599887D02*
X92223342Y-50676078D01*
X92223342Y-50676078D02*
X92185247Y-50828459D01*
X92185247Y-50828459D02*
X92147152Y-50904649D01*
X92147152Y-50904649D02*
X92109057Y-50942744D01*
X92109057Y-50942744D02*
X92032866Y-50980840D01*
X92032866Y-50980840D02*
X91956676Y-50980840D01*
X91956676Y-50980840D02*
X91880485Y-50942744D01*
X91880485Y-50942744D02*
X91842390Y-50904649D01*
X91842390Y-50904649D02*
X91804295Y-50828459D01*
X91804295Y-50828459D02*
X91804295Y-50637982D01*
X91804295Y-50637982D02*
X91842390Y-50523697D01*
X92185247Y-50180839D02*
X92185247Y-49914173D01*
X92604295Y-49799887D02*
X92604295Y-50180839D01*
X92604295Y-50180839D02*
X91804295Y-50180839D01*
X91804295Y-50180839D02*
X91804295Y-49799887D01*
X92604295Y-48466553D02*
X92604295Y-48847505D01*
X92604295Y-48847505D02*
X91804295Y-48847505D01*
X92375723Y-48237982D02*
X92375723Y-47857029D01*
X92604295Y-48314172D02*
X91804295Y-48047505D01*
X91804295Y-48047505D02*
X92604295Y-47780839D01*
X92185247Y-47247506D02*
X92223342Y-47133220D01*
X92223342Y-47133220D02*
X92261438Y-47095125D01*
X92261438Y-47095125D02*
X92337628Y-47057029D01*
X92337628Y-47057029D02*
X92451914Y-47057029D01*
X92451914Y-47057029D02*
X92528104Y-47095125D01*
X92528104Y-47095125D02*
X92566200Y-47133220D01*
X92566200Y-47133220D02*
X92604295Y-47209410D01*
X92604295Y-47209410D02*
X92604295Y-47514172D01*
X92604295Y-47514172D02*
X91804295Y-47514172D01*
X91804295Y-47514172D02*
X91804295Y-47247506D01*
X91804295Y-47247506D02*
X91842390Y-47171315D01*
X91842390Y-47171315D02*
X91880485Y-47133220D01*
X91880485Y-47133220D02*
X91956676Y-47095125D01*
X91956676Y-47095125D02*
X92032866Y-47095125D01*
X92032866Y-47095125D02*
X92109057Y-47133220D01*
X92109057Y-47133220D02*
X92147152Y-47171315D01*
X92147152Y-47171315D02*
X92185247Y-47247506D01*
X92185247Y-47247506D02*
X92185247Y-47514172D01*
X92185247Y-46714172D02*
X92185247Y-46447506D01*
X92604295Y-46333220D02*
X92604295Y-46714172D01*
X92604295Y-46714172D02*
X91804295Y-46714172D01*
X91804295Y-46714172D02*
X91804295Y-46333220D01*
X92604295Y-45609410D02*
X92604295Y-45990362D01*
X92604295Y-45990362D02*
X91804295Y-45990362D01*
X92566200Y-45380839D02*
X92604295Y-45266553D01*
X92604295Y-45266553D02*
X92604295Y-45076077D01*
X92604295Y-45076077D02*
X92566200Y-44999886D01*
X92566200Y-44999886D02*
X92528104Y-44961791D01*
X92528104Y-44961791D02*
X92451914Y-44923696D01*
X92451914Y-44923696D02*
X92375723Y-44923696D01*
X92375723Y-44923696D02*
X92299533Y-44961791D01*
X92299533Y-44961791D02*
X92261438Y-44999886D01*
X92261438Y-44999886D02*
X92223342Y-45076077D01*
X92223342Y-45076077D02*
X92185247Y-45228458D01*
X92185247Y-45228458D02*
X92147152Y-45304648D01*
X92147152Y-45304648D02*
X92109057Y-45342743D01*
X92109057Y-45342743D02*
X92032866Y-45380839D01*
X92032866Y-45380839D02*
X91956676Y-45380839D01*
X91956676Y-45380839D02*
X91880485Y-45342743D01*
X91880485Y-45342743D02*
X91842390Y-45304648D01*
X91842390Y-45304648D02*
X91804295Y-45228458D01*
X91804295Y-45228458D02*
X91804295Y-45037981D01*
X91804295Y-45037981D02*
X91842390Y-44923696D01*
X97411565Y-44800125D02*
X98211565Y-44533458D01*
X98211565Y-44533458D02*
X97411565Y-44266792D01*
X98211565Y-44000125D02*
X97411565Y-44000125D01*
X97411565Y-44000125D02*
X97411565Y-43809649D01*
X97411565Y-43809649D02*
X97449660Y-43695363D01*
X97449660Y-43695363D02*
X97525850Y-43619173D01*
X97525850Y-43619173D02*
X97602041Y-43581078D01*
X97602041Y-43581078D02*
X97754422Y-43542982D01*
X97754422Y-43542982D02*
X97868708Y-43542982D01*
X97868708Y-43542982D02*
X98021089Y-43581078D01*
X98021089Y-43581078D02*
X98097279Y-43619173D01*
X98097279Y-43619173D02*
X98173470Y-43695363D01*
X98173470Y-43695363D02*
X98211565Y-43809649D01*
X98211565Y-43809649D02*
X98211565Y-44000125D01*
X98211565Y-43200125D02*
X97411565Y-43200125D01*
X97411565Y-43200125D02*
X97411565Y-43009649D01*
X97411565Y-43009649D02*
X97449660Y-42895363D01*
X97449660Y-42895363D02*
X97525850Y-42819173D01*
X97525850Y-42819173D02*
X97602041Y-42781078D01*
X97602041Y-42781078D02*
X97754422Y-42742982D01*
X97754422Y-42742982D02*
X97868708Y-42742982D01*
X97868708Y-42742982D02*
X98021089Y-42781078D01*
X98021089Y-42781078D02*
X98097279Y-42819173D01*
X98097279Y-42819173D02*
X98173470Y-42895363D01*
X98173470Y-42895363D02*
X98211565Y-43009649D01*
X98211565Y-43009649D02*
X98211565Y-43200125D01*
X100025570Y-44266792D02*
X99987475Y-44342982D01*
X99987475Y-44342982D02*
X99987475Y-44457268D01*
X99987475Y-44457268D02*
X100025570Y-44571554D01*
X100025570Y-44571554D02*
X100101760Y-44647744D01*
X100101760Y-44647744D02*
X100177951Y-44685839D01*
X100177951Y-44685839D02*
X100330332Y-44723935D01*
X100330332Y-44723935D02*
X100444618Y-44723935D01*
X100444618Y-44723935D02*
X100596999Y-44685839D01*
X100596999Y-44685839D02*
X100673189Y-44647744D01*
X100673189Y-44647744D02*
X100749380Y-44571554D01*
X100749380Y-44571554D02*
X100787475Y-44457268D01*
X100787475Y-44457268D02*
X100787475Y-44381077D01*
X100787475Y-44381077D02*
X100749380Y-44266792D01*
X100749380Y-44266792D02*
X100711284Y-44228696D01*
X100711284Y-44228696D02*
X100444618Y-44228696D01*
X100444618Y-44228696D02*
X100444618Y-44381077D01*
X100787475Y-43885839D02*
X99987475Y-43885839D01*
X99987475Y-43885839D02*
X100787475Y-43428696D01*
X100787475Y-43428696D02*
X99987475Y-43428696D01*
X100787475Y-43047744D02*
X99987475Y-43047744D01*
X99987475Y-43047744D02*
X99987475Y-42857268D01*
X99987475Y-42857268D02*
X100025570Y-42742982D01*
X100025570Y-42742982D02*
X100101760Y-42666792D01*
X100101760Y-42666792D02*
X100177951Y-42628697D01*
X100177951Y-42628697D02*
X100330332Y-42590601D01*
X100330332Y-42590601D02*
X100444618Y-42590601D01*
X100444618Y-42590601D02*
X100596999Y-42628697D01*
X100596999Y-42628697D02*
X100673189Y-42666792D01*
X100673189Y-42666792D02*
X100749380Y-42742982D01*
X100749380Y-42742982D02*
X100787475Y-42857268D01*
X100787475Y-42857268D02*
X100787475Y-43047744D01*
X105939295Y-44685839D02*
X105139295Y-44685839D01*
X105139295Y-44685839D02*
X105939295Y-44228696D01*
X105939295Y-44228696D02*
X105139295Y-44228696D01*
X105939295Y-43390601D02*
X105558342Y-43657268D01*
X105939295Y-43847744D02*
X105139295Y-43847744D01*
X105139295Y-43847744D02*
X105139295Y-43542982D01*
X105139295Y-43542982D02*
X105177390Y-43466792D01*
X105177390Y-43466792D02*
X105215485Y-43428697D01*
X105215485Y-43428697D02*
X105291676Y-43390601D01*
X105291676Y-43390601D02*
X105405961Y-43390601D01*
X105405961Y-43390601D02*
X105482152Y-43428697D01*
X105482152Y-43428697D02*
X105520247Y-43466792D01*
X105520247Y-43466792D02*
X105558342Y-43542982D01*
X105558342Y-43542982D02*
X105558342Y-43847744D01*
X105901200Y-43085840D02*
X105939295Y-42971554D01*
X105939295Y-42971554D02*
X105939295Y-42781078D01*
X105939295Y-42781078D02*
X105901200Y-42704887D01*
X105901200Y-42704887D02*
X105863104Y-42666792D01*
X105863104Y-42666792D02*
X105786914Y-42628697D01*
X105786914Y-42628697D02*
X105710723Y-42628697D01*
X105710723Y-42628697D02*
X105634533Y-42666792D01*
X105634533Y-42666792D02*
X105596438Y-42704887D01*
X105596438Y-42704887D02*
X105558342Y-42781078D01*
X105558342Y-42781078D02*
X105520247Y-42933459D01*
X105520247Y-42933459D02*
X105482152Y-43009649D01*
X105482152Y-43009649D02*
X105444057Y-43047744D01*
X105444057Y-43047744D02*
X105367866Y-43085840D01*
X105367866Y-43085840D02*
X105291676Y-43085840D01*
X105291676Y-43085840D02*
X105215485Y-43047744D01*
X105215485Y-43047744D02*
X105177390Y-43009649D01*
X105177390Y-43009649D02*
X105139295Y-42933459D01*
X105139295Y-42933459D02*
X105139295Y-42742982D01*
X105139295Y-42742982D02*
X105177390Y-42628697D01*
X105139295Y-42400125D02*
X105139295Y-41942982D01*
X105939295Y-42171554D02*
X105139295Y-42171554D01*
X113098390Y-66062255D02*
X113060295Y-66138445D01*
X113060295Y-66138445D02*
X113060295Y-66252731D01*
X113060295Y-66252731D02*
X113098390Y-66367017D01*
X113098390Y-66367017D02*
X113174580Y-66443207D01*
X113174580Y-66443207D02*
X113250771Y-66481302D01*
X113250771Y-66481302D02*
X113403152Y-66519398D01*
X113403152Y-66519398D02*
X113517438Y-66519398D01*
X113517438Y-66519398D02*
X113669819Y-66481302D01*
X113669819Y-66481302D02*
X113746009Y-66443207D01*
X113746009Y-66443207D02*
X113822200Y-66367017D01*
X113822200Y-66367017D02*
X113860295Y-66252731D01*
X113860295Y-66252731D02*
X113860295Y-66176540D01*
X113860295Y-66176540D02*
X113822200Y-66062255D01*
X113822200Y-66062255D02*
X113784104Y-66024159D01*
X113784104Y-66024159D02*
X113517438Y-66024159D01*
X113517438Y-66024159D02*
X113517438Y-66176540D01*
X113860295Y-65681302D02*
X113060295Y-65681302D01*
X113060295Y-65681302D02*
X113860295Y-65224159D01*
X113860295Y-65224159D02*
X113060295Y-65224159D01*
X113860295Y-64843207D02*
X113060295Y-64843207D01*
X113060295Y-64843207D02*
X113060295Y-64652731D01*
X113060295Y-64652731D02*
X113098390Y-64538445D01*
X113098390Y-64538445D02*
X113174580Y-64462255D01*
X113174580Y-64462255D02*
X113250771Y-64424160D01*
X113250771Y-64424160D02*
X113403152Y-64386064D01*
X113403152Y-64386064D02*
X113517438Y-64386064D01*
X113517438Y-64386064D02*
X113669819Y-64424160D01*
X113669819Y-64424160D02*
X113746009Y-64462255D01*
X113746009Y-64462255D02*
X113822200Y-64538445D01*
X113822200Y-64538445D02*
X113860295Y-64652731D01*
X113860295Y-64652731D02*
X113860295Y-64843207D01*
X116436205Y-66938445D02*
X115636205Y-66938445D01*
X115636205Y-66938445D02*
X116207633Y-66671779D01*
X116207633Y-66671779D02*
X115636205Y-66405112D01*
X115636205Y-66405112D02*
X116436205Y-66405112D01*
X116436205Y-66024159D02*
X115636205Y-66024159D01*
X116398110Y-65681303D02*
X116436205Y-65567017D01*
X116436205Y-65567017D02*
X116436205Y-65376541D01*
X116436205Y-65376541D02*
X116398110Y-65300350D01*
X116398110Y-65300350D02*
X116360014Y-65262255D01*
X116360014Y-65262255D02*
X116283824Y-65224160D01*
X116283824Y-65224160D02*
X116207633Y-65224160D01*
X116207633Y-65224160D02*
X116131443Y-65262255D01*
X116131443Y-65262255D02*
X116093348Y-65300350D01*
X116093348Y-65300350D02*
X116055252Y-65376541D01*
X116055252Y-65376541D02*
X116017157Y-65528922D01*
X116017157Y-65528922D02*
X115979062Y-65605112D01*
X115979062Y-65605112D02*
X115940967Y-65643207D01*
X115940967Y-65643207D02*
X115864776Y-65681303D01*
X115864776Y-65681303D02*
X115788586Y-65681303D01*
X115788586Y-65681303D02*
X115712395Y-65643207D01*
X115712395Y-65643207D02*
X115674300Y-65605112D01*
X115674300Y-65605112D02*
X115636205Y-65528922D01*
X115636205Y-65528922D02*
X115636205Y-65338445D01*
X115636205Y-65338445D02*
X115674300Y-65224160D01*
X115636205Y-64728921D02*
X115636205Y-64576540D01*
X115636205Y-64576540D02*
X115674300Y-64500350D01*
X115674300Y-64500350D02*
X115750490Y-64424159D01*
X115750490Y-64424159D02*
X115902871Y-64386064D01*
X115902871Y-64386064D02*
X116169538Y-64386064D01*
X116169538Y-64386064D02*
X116321919Y-64424159D01*
X116321919Y-64424159D02*
X116398110Y-64500350D01*
X116398110Y-64500350D02*
X116436205Y-64576540D01*
X116436205Y-64576540D02*
X116436205Y-64728921D01*
X116436205Y-64728921D02*
X116398110Y-64805112D01*
X116398110Y-64805112D02*
X116321919Y-64881302D01*
X116321919Y-64881302D02*
X116169538Y-64919398D01*
X116169538Y-64919398D02*
X115902871Y-64919398D01*
X115902871Y-64919398D02*
X115750490Y-64881302D01*
X115750490Y-64881302D02*
X115674300Y-64805112D01*
X115674300Y-64805112D02*
X115636205Y-64728921D01*
X118974020Y-66443208D02*
X119012115Y-66328922D01*
X119012115Y-66328922D02*
X119012115Y-66138446D01*
X119012115Y-66138446D02*
X118974020Y-66062255D01*
X118974020Y-66062255D02*
X118935924Y-66024160D01*
X118935924Y-66024160D02*
X118859734Y-65986065D01*
X118859734Y-65986065D02*
X118783543Y-65986065D01*
X118783543Y-65986065D02*
X118707353Y-66024160D01*
X118707353Y-66024160D02*
X118669258Y-66062255D01*
X118669258Y-66062255D02*
X118631162Y-66138446D01*
X118631162Y-66138446D02*
X118593067Y-66290827D01*
X118593067Y-66290827D02*
X118554972Y-66367017D01*
X118554972Y-66367017D02*
X118516877Y-66405112D01*
X118516877Y-66405112D02*
X118440686Y-66443208D01*
X118440686Y-66443208D02*
X118364496Y-66443208D01*
X118364496Y-66443208D02*
X118288305Y-66405112D01*
X118288305Y-66405112D02*
X118250210Y-66367017D01*
X118250210Y-66367017D02*
X118212115Y-66290827D01*
X118212115Y-66290827D02*
X118212115Y-66100350D01*
X118212115Y-66100350D02*
X118250210Y-65986065D01*
X118935924Y-65186064D02*
X118974020Y-65224160D01*
X118974020Y-65224160D02*
X119012115Y-65338445D01*
X119012115Y-65338445D02*
X119012115Y-65414636D01*
X119012115Y-65414636D02*
X118974020Y-65528922D01*
X118974020Y-65528922D02*
X118897829Y-65605112D01*
X118897829Y-65605112D02*
X118821639Y-65643207D01*
X118821639Y-65643207D02*
X118669258Y-65681303D01*
X118669258Y-65681303D02*
X118554972Y-65681303D01*
X118554972Y-65681303D02*
X118402591Y-65643207D01*
X118402591Y-65643207D02*
X118326400Y-65605112D01*
X118326400Y-65605112D02*
X118250210Y-65528922D01*
X118250210Y-65528922D02*
X118212115Y-65414636D01*
X118212115Y-65414636D02*
X118212115Y-65338445D01*
X118212115Y-65338445D02*
X118250210Y-65224160D01*
X118250210Y-65224160D02*
X118288305Y-65186064D01*
X119012115Y-64843207D02*
X118212115Y-64843207D01*
X119012115Y-64386064D02*
X118554972Y-64728922D01*
X118212115Y-64386064D02*
X118669258Y-64843207D01*
X121588025Y-66938445D02*
X120788025Y-66938445D01*
X120788025Y-66938445D02*
X121359453Y-66671779D01*
X121359453Y-66671779D02*
X120788025Y-66405112D01*
X120788025Y-66405112D02*
X121588025Y-66405112D01*
X120788025Y-65871778D02*
X120788025Y-65719397D01*
X120788025Y-65719397D02*
X120826120Y-65643207D01*
X120826120Y-65643207D02*
X120902310Y-65567016D01*
X120902310Y-65567016D02*
X121054691Y-65528921D01*
X121054691Y-65528921D02*
X121321358Y-65528921D01*
X121321358Y-65528921D02*
X121473739Y-65567016D01*
X121473739Y-65567016D02*
X121549930Y-65643207D01*
X121549930Y-65643207D02*
X121588025Y-65719397D01*
X121588025Y-65719397D02*
X121588025Y-65871778D01*
X121588025Y-65871778D02*
X121549930Y-65947969D01*
X121549930Y-65947969D02*
X121473739Y-66024159D01*
X121473739Y-66024159D02*
X121321358Y-66062255D01*
X121321358Y-66062255D02*
X121054691Y-66062255D01*
X121054691Y-66062255D02*
X120902310Y-66024159D01*
X120902310Y-66024159D02*
X120826120Y-65947969D01*
X120826120Y-65947969D02*
X120788025Y-65871778D01*
X121549930Y-65224160D02*
X121588025Y-65109874D01*
X121588025Y-65109874D02*
X121588025Y-64919398D01*
X121588025Y-64919398D02*
X121549930Y-64843207D01*
X121549930Y-64843207D02*
X121511834Y-64805112D01*
X121511834Y-64805112D02*
X121435644Y-64767017D01*
X121435644Y-64767017D02*
X121359453Y-64767017D01*
X121359453Y-64767017D02*
X121283263Y-64805112D01*
X121283263Y-64805112D02*
X121245168Y-64843207D01*
X121245168Y-64843207D02*
X121207072Y-64919398D01*
X121207072Y-64919398D02*
X121168977Y-65071779D01*
X121168977Y-65071779D02*
X121130882Y-65147969D01*
X121130882Y-65147969D02*
X121092787Y-65186064D01*
X121092787Y-65186064D02*
X121016596Y-65224160D01*
X121016596Y-65224160D02*
X120940406Y-65224160D01*
X120940406Y-65224160D02*
X120864215Y-65186064D01*
X120864215Y-65186064D02*
X120826120Y-65147969D01*
X120826120Y-65147969D02*
X120788025Y-65071779D01*
X120788025Y-65071779D02*
X120788025Y-64881302D01*
X120788025Y-64881302D02*
X120826120Y-64767017D01*
X121588025Y-64424159D02*
X120788025Y-64424159D01*
X124087744Y-65147969D02*
X124125840Y-65186065D01*
X124125840Y-65186065D02*
X124163935Y-65300350D01*
X124163935Y-65300350D02*
X124163935Y-65376541D01*
X124163935Y-65376541D02*
X124125840Y-65490827D01*
X124125840Y-65490827D02*
X124049649Y-65567017D01*
X124049649Y-65567017D02*
X123973459Y-65605112D01*
X123973459Y-65605112D02*
X123821078Y-65643208D01*
X123821078Y-65643208D02*
X123706792Y-65643208D01*
X123706792Y-65643208D02*
X123554411Y-65605112D01*
X123554411Y-65605112D02*
X123478220Y-65567017D01*
X123478220Y-65567017D02*
X123402030Y-65490827D01*
X123402030Y-65490827D02*
X123363935Y-65376541D01*
X123363935Y-65376541D02*
X123363935Y-65300350D01*
X123363935Y-65300350D02*
X123402030Y-65186065D01*
X123402030Y-65186065D02*
X123440125Y-65147969D01*
X124125840Y-64843208D02*
X124163935Y-64728922D01*
X124163935Y-64728922D02*
X124163935Y-64538446D01*
X124163935Y-64538446D02*
X124125840Y-64462255D01*
X124125840Y-64462255D02*
X124087744Y-64424160D01*
X124087744Y-64424160D02*
X124011554Y-64386065D01*
X124011554Y-64386065D02*
X123935363Y-64386065D01*
X123935363Y-64386065D02*
X123859173Y-64424160D01*
X123859173Y-64424160D02*
X123821078Y-64462255D01*
X123821078Y-64462255D02*
X123782982Y-64538446D01*
X123782982Y-64538446D02*
X123744887Y-64690827D01*
X123744887Y-64690827D02*
X123706792Y-64767017D01*
X123706792Y-64767017D02*
X123668697Y-64805112D01*
X123668697Y-64805112D02*
X123592506Y-64843208D01*
X123592506Y-64843208D02*
X123516316Y-64843208D01*
X123516316Y-64843208D02*
X123440125Y-64805112D01*
X123440125Y-64805112D02*
X123402030Y-64767017D01*
X123402030Y-64767017D02*
X123363935Y-64690827D01*
X123363935Y-64690827D02*
X123363935Y-64500350D01*
X123363935Y-64500350D02*
X123402030Y-64386065D01*
X125939845Y-66443207D02*
X126739845Y-66176540D01*
X126739845Y-66176540D02*
X125939845Y-65909874D01*
X126739845Y-65643207D02*
X125939845Y-65643207D01*
X125939845Y-65643207D02*
X125939845Y-65452731D01*
X125939845Y-65452731D02*
X125977940Y-65338445D01*
X125977940Y-65338445D02*
X126054130Y-65262255D01*
X126054130Y-65262255D02*
X126130321Y-65224160D01*
X126130321Y-65224160D02*
X126282702Y-65186064D01*
X126282702Y-65186064D02*
X126396988Y-65186064D01*
X126396988Y-65186064D02*
X126549369Y-65224160D01*
X126549369Y-65224160D02*
X126625559Y-65262255D01*
X126625559Y-65262255D02*
X126701750Y-65338445D01*
X126701750Y-65338445D02*
X126739845Y-65452731D01*
X126739845Y-65452731D02*
X126739845Y-65643207D01*
X126739845Y-64843207D02*
X125939845Y-64843207D01*
X125939845Y-64843207D02*
X125939845Y-64652731D01*
X125939845Y-64652731D02*
X125977940Y-64538445D01*
X125977940Y-64538445D02*
X126054130Y-64462255D01*
X126054130Y-64462255D02*
X126130321Y-64424160D01*
X126130321Y-64424160D02*
X126282702Y-64386064D01*
X126282702Y-64386064D02*
X126396988Y-64386064D01*
X126396988Y-64386064D02*
X126549369Y-64424160D01*
X126549369Y-64424160D02*
X126625559Y-64462255D01*
X126625559Y-64462255D02*
X126701750Y-64538445D01*
X126701750Y-64538445D02*
X126739845Y-64652731D01*
X126739845Y-64652731D02*
X126739845Y-64843207D01*
X97411565Y-53108207D02*
X98211565Y-52841540D01*
X98211565Y-52841540D02*
X97411565Y-52574874D01*
X98211565Y-52308207D02*
X97411565Y-52308207D01*
X97411565Y-52308207D02*
X97411565Y-52117731D01*
X97411565Y-52117731D02*
X97449660Y-52003445D01*
X97449660Y-52003445D02*
X97525850Y-51927255D01*
X97525850Y-51927255D02*
X97602041Y-51889160D01*
X97602041Y-51889160D02*
X97754422Y-51851064D01*
X97754422Y-51851064D02*
X97868708Y-51851064D01*
X97868708Y-51851064D02*
X98021089Y-51889160D01*
X98021089Y-51889160D02*
X98097279Y-51927255D01*
X98097279Y-51927255D02*
X98173470Y-52003445D01*
X98173470Y-52003445D02*
X98211565Y-52117731D01*
X98211565Y-52117731D02*
X98211565Y-52308207D01*
X98211565Y-51508207D02*
X97411565Y-51508207D01*
X97411565Y-51508207D02*
X97411565Y-51317731D01*
X97411565Y-51317731D02*
X97449660Y-51203445D01*
X97449660Y-51203445D02*
X97525850Y-51127255D01*
X97525850Y-51127255D02*
X97602041Y-51089160D01*
X97602041Y-51089160D02*
X97754422Y-51051064D01*
X97754422Y-51051064D02*
X97868708Y-51051064D01*
X97868708Y-51051064D02*
X98021089Y-51089160D01*
X98021089Y-51089160D02*
X98097279Y-51127255D01*
X98097279Y-51127255D02*
X98173470Y-51203445D01*
X98173470Y-51203445D02*
X98211565Y-51317731D01*
X98211565Y-51317731D02*
X98211565Y-51508207D01*
X100025570Y-52727255D02*
X99987475Y-52803445D01*
X99987475Y-52803445D02*
X99987475Y-52917731D01*
X99987475Y-52917731D02*
X100025570Y-53032017D01*
X100025570Y-53032017D02*
X100101760Y-53108207D01*
X100101760Y-53108207D02*
X100177951Y-53146302D01*
X100177951Y-53146302D02*
X100330332Y-53184398D01*
X100330332Y-53184398D02*
X100444618Y-53184398D01*
X100444618Y-53184398D02*
X100596999Y-53146302D01*
X100596999Y-53146302D02*
X100673189Y-53108207D01*
X100673189Y-53108207D02*
X100749380Y-53032017D01*
X100749380Y-53032017D02*
X100787475Y-52917731D01*
X100787475Y-52917731D02*
X100787475Y-52841540D01*
X100787475Y-52841540D02*
X100749380Y-52727255D01*
X100749380Y-52727255D02*
X100711284Y-52689159D01*
X100711284Y-52689159D02*
X100444618Y-52689159D01*
X100444618Y-52689159D02*
X100444618Y-52841540D01*
X100787475Y-52346302D02*
X99987475Y-52346302D01*
X99987475Y-52346302D02*
X100787475Y-51889159D01*
X100787475Y-51889159D02*
X99987475Y-51889159D01*
X100787475Y-51508207D02*
X99987475Y-51508207D01*
X99987475Y-51508207D02*
X99987475Y-51317731D01*
X99987475Y-51317731D02*
X100025570Y-51203445D01*
X100025570Y-51203445D02*
X100101760Y-51127255D01*
X100101760Y-51127255D02*
X100177951Y-51089160D01*
X100177951Y-51089160D02*
X100330332Y-51051064D01*
X100330332Y-51051064D02*
X100444618Y-51051064D01*
X100444618Y-51051064D02*
X100596999Y-51089160D01*
X100596999Y-51089160D02*
X100673189Y-51127255D01*
X100673189Y-51127255D02*
X100749380Y-51203445D01*
X100749380Y-51203445D02*
X100787475Y-51317731D01*
X100787475Y-51317731D02*
X100787475Y-51508207D01*
X103325290Y-54441541D02*
X103363385Y-54327255D01*
X103363385Y-54327255D02*
X103363385Y-54136779D01*
X103363385Y-54136779D02*
X103325290Y-54060588D01*
X103325290Y-54060588D02*
X103287194Y-54022493D01*
X103287194Y-54022493D02*
X103211004Y-53984398D01*
X103211004Y-53984398D02*
X103134813Y-53984398D01*
X103134813Y-53984398D02*
X103058623Y-54022493D01*
X103058623Y-54022493D02*
X103020528Y-54060588D01*
X103020528Y-54060588D02*
X102982432Y-54136779D01*
X102982432Y-54136779D02*
X102944337Y-54289160D01*
X102944337Y-54289160D02*
X102906242Y-54365350D01*
X102906242Y-54365350D02*
X102868147Y-54403445D01*
X102868147Y-54403445D02*
X102791956Y-54441541D01*
X102791956Y-54441541D02*
X102715766Y-54441541D01*
X102715766Y-54441541D02*
X102639575Y-54403445D01*
X102639575Y-54403445D02*
X102601480Y-54365350D01*
X102601480Y-54365350D02*
X102563385Y-54289160D01*
X102563385Y-54289160D02*
X102563385Y-54098683D01*
X102563385Y-54098683D02*
X102601480Y-53984398D01*
X102563385Y-53717731D02*
X103363385Y-53527255D01*
X103363385Y-53527255D02*
X102791956Y-53374874D01*
X102791956Y-53374874D02*
X103363385Y-53222493D01*
X103363385Y-53222493D02*
X102563385Y-53032017D01*
X103363385Y-52727254D02*
X102563385Y-52727254D01*
X102563385Y-52727254D02*
X102563385Y-52536778D01*
X102563385Y-52536778D02*
X102601480Y-52422492D01*
X102601480Y-52422492D02*
X102677670Y-52346302D01*
X102677670Y-52346302D02*
X102753861Y-52308207D01*
X102753861Y-52308207D02*
X102906242Y-52270111D01*
X102906242Y-52270111D02*
X103020528Y-52270111D01*
X103020528Y-52270111D02*
X103172909Y-52308207D01*
X103172909Y-52308207D02*
X103249099Y-52346302D01*
X103249099Y-52346302D02*
X103325290Y-52422492D01*
X103325290Y-52422492D02*
X103363385Y-52536778D01*
X103363385Y-52536778D02*
X103363385Y-52727254D01*
X103363385Y-51927254D02*
X102563385Y-51927254D01*
X102563385Y-51393921D02*
X102563385Y-51241540D01*
X102563385Y-51241540D02*
X102601480Y-51165350D01*
X102601480Y-51165350D02*
X102677670Y-51089159D01*
X102677670Y-51089159D02*
X102830051Y-51051064D01*
X102830051Y-51051064D02*
X103096718Y-51051064D01*
X103096718Y-51051064D02*
X103249099Y-51089159D01*
X103249099Y-51089159D02*
X103325290Y-51165350D01*
X103325290Y-51165350D02*
X103363385Y-51241540D01*
X103363385Y-51241540D02*
X103363385Y-51393921D01*
X103363385Y-51393921D02*
X103325290Y-51470112D01*
X103325290Y-51470112D02*
X103249099Y-51546302D01*
X103249099Y-51546302D02*
X103096718Y-51584398D01*
X103096718Y-51584398D02*
X102830051Y-51584398D01*
X102830051Y-51584398D02*
X102677670Y-51546302D01*
X102677670Y-51546302D02*
X102601480Y-51470112D01*
X102601480Y-51470112D02*
X102563385Y-51393921D01*
X105901200Y-55470113D02*
X105939295Y-55355827D01*
X105939295Y-55355827D02*
X105939295Y-55165351D01*
X105939295Y-55165351D02*
X105901200Y-55089160D01*
X105901200Y-55089160D02*
X105863104Y-55051065D01*
X105863104Y-55051065D02*
X105786914Y-55012970D01*
X105786914Y-55012970D02*
X105710723Y-55012970D01*
X105710723Y-55012970D02*
X105634533Y-55051065D01*
X105634533Y-55051065D02*
X105596438Y-55089160D01*
X105596438Y-55089160D02*
X105558342Y-55165351D01*
X105558342Y-55165351D02*
X105520247Y-55317732D01*
X105520247Y-55317732D02*
X105482152Y-55393922D01*
X105482152Y-55393922D02*
X105444057Y-55432017D01*
X105444057Y-55432017D02*
X105367866Y-55470113D01*
X105367866Y-55470113D02*
X105291676Y-55470113D01*
X105291676Y-55470113D02*
X105215485Y-55432017D01*
X105215485Y-55432017D02*
X105177390Y-55393922D01*
X105177390Y-55393922D02*
X105139295Y-55317732D01*
X105139295Y-55317732D02*
X105139295Y-55127255D01*
X105139295Y-55127255D02*
X105177390Y-55012970D01*
X105139295Y-54746303D02*
X105939295Y-54555827D01*
X105939295Y-54555827D02*
X105367866Y-54403446D01*
X105367866Y-54403446D02*
X105939295Y-54251065D01*
X105939295Y-54251065D02*
X105139295Y-54060589D01*
X105939295Y-53755826D02*
X105139295Y-53755826D01*
X105139295Y-53755826D02*
X105139295Y-53565350D01*
X105139295Y-53565350D02*
X105177390Y-53451064D01*
X105177390Y-53451064D02*
X105253580Y-53374874D01*
X105253580Y-53374874D02*
X105329771Y-53336779D01*
X105329771Y-53336779D02*
X105482152Y-53298683D01*
X105482152Y-53298683D02*
X105596438Y-53298683D01*
X105596438Y-53298683D02*
X105748819Y-53336779D01*
X105748819Y-53336779D02*
X105825009Y-53374874D01*
X105825009Y-53374874D02*
X105901200Y-53451064D01*
X105901200Y-53451064D02*
X105939295Y-53565350D01*
X105939295Y-53565350D02*
X105939295Y-53755826D01*
X105863104Y-52498683D02*
X105901200Y-52536779D01*
X105901200Y-52536779D02*
X105939295Y-52651064D01*
X105939295Y-52651064D02*
X105939295Y-52727255D01*
X105939295Y-52727255D02*
X105901200Y-52841541D01*
X105901200Y-52841541D02*
X105825009Y-52917731D01*
X105825009Y-52917731D02*
X105748819Y-52955826D01*
X105748819Y-52955826D02*
X105596438Y-52993922D01*
X105596438Y-52993922D02*
X105482152Y-52993922D01*
X105482152Y-52993922D02*
X105329771Y-52955826D01*
X105329771Y-52955826D02*
X105253580Y-52917731D01*
X105253580Y-52917731D02*
X105177390Y-52841541D01*
X105177390Y-52841541D02*
X105139295Y-52727255D01*
X105139295Y-52727255D02*
X105139295Y-52651064D01*
X105139295Y-52651064D02*
X105177390Y-52536779D01*
X105177390Y-52536779D02*
X105215485Y-52498683D01*
X105939295Y-51774874D02*
X105939295Y-52155826D01*
X105939295Y-52155826D02*
X105139295Y-52155826D01*
X105939295Y-51508207D02*
X105139295Y-51508207D01*
X105939295Y-51051064D02*
X105482152Y-51393922D01*
X105139295Y-51051064D02*
X105596438Y-51508207D01*
X118875350Y-43018152D02*
X118875350Y-43684819D01*
X118446779Y-43018152D02*
X118446779Y-43541961D01*
X118446779Y-43541961D02*
X118494398Y-43637200D01*
X118494398Y-43637200D02*
X118589636Y-43684819D01*
X118589636Y-43684819D02*
X118732493Y-43684819D01*
X118732493Y-43684819D02*
X118827731Y-43637200D01*
X118827731Y-43637200D02*
X118875350Y-43589580D01*
X119303922Y-43637200D02*
X119446779Y-43684819D01*
X119446779Y-43684819D02*
X119684874Y-43684819D01*
X119684874Y-43684819D02*
X119780112Y-43637200D01*
X119780112Y-43637200D02*
X119827731Y-43589580D01*
X119827731Y-43589580D02*
X119875350Y-43494342D01*
X119875350Y-43494342D02*
X119875350Y-43399104D01*
X119875350Y-43399104D02*
X119827731Y-43303866D01*
X119827731Y-43303866D02*
X119780112Y-43256247D01*
X119780112Y-43256247D02*
X119684874Y-43208628D01*
X119684874Y-43208628D02*
X119494398Y-43161009D01*
X119494398Y-43161009D02*
X119399160Y-43113390D01*
X119399160Y-43113390D02*
X119351541Y-43065771D01*
X119351541Y-43065771D02*
X119303922Y-42970533D01*
X119303922Y-42970533D02*
X119303922Y-42875295D01*
X119303922Y-42875295D02*
X119351541Y-42780057D01*
X119351541Y-42780057D02*
X119399160Y-42732438D01*
X119399160Y-42732438D02*
X119494398Y-42684819D01*
X119494398Y-42684819D02*
X119732493Y-42684819D01*
X119732493Y-42684819D02*
X119875350Y-42732438D01*
X120303922Y-43684819D02*
X120303922Y-42684819D01*
X120303922Y-42684819D02*
X120542017Y-42684819D01*
X120542017Y-42684819D02*
X120684874Y-42732438D01*
X120684874Y-42732438D02*
X120780112Y-42827676D01*
X120780112Y-42827676D02*
X120827731Y-42922914D01*
X120827731Y-42922914D02*
X120875350Y-43113390D01*
X120875350Y-43113390D02*
X120875350Y-43256247D01*
X120875350Y-43256247D02*
X120827731Y-43446723D01*
X120827731Y-43446723D02*
X120780112Y-43541961D01*
X120780112Y-43541961D02*
X120684874Y-43637200D01*
X120684874Y-43637200D02*
X120542017Y-43684819D01*
X120542017Y-43684819D02*
X120303922Y-43684819D01*
X128940112Y-90151009D02*
X129082969Y-90198628D01*
X129082969Y-90198628D02*
X129130588Y-90246247D01*
X129130588Y-90246247D02*
X129178207Y-90341485D01*
X129178207Y-90341485D02*
X129178207Y-90484342D01*
X129178207Y-90484342D02*
X129130588Y-90579580D01*
X129130588Y-90579580D02*
X129082969Y-90627200D01*
X129082969Y-90627200D02*
X128987731Y-90674819D01*
X128987731Y-90674819D02*
X128606779Y-90674819D01*
X128606779Y-90674819D02*
X128606779Y-89674819D01*
X128606779Y-89674819D02*
X128940112Y-89674819D01*
X128940112Y-89674819D02*
X129035350Y-89722438D01*
X129035350Y-89722438D02*
X129082969Y-89770057D01*
X129082969Y-89770057D02*
X129130588Y-89865295D01*
X129130588Y-89865295D02*
X129130588Y-89960533D01*
X129130588Y-89960533D02*
X129082969Y-90055771D01*
X129082969Y-90055771D02*
X129035350Y-90103390D01*
X129035350Y-90103390D02*
X128940112Y-90151009D01*
X128940112Y-90151009D02*
X128606779Y-90151009D01*
X129559160Y-90389104D02*
X130035350Y-90389104D01*
X129463922Y-90674819D02*
X129797255Y-89674819D01*
X129797255Y-89674819D02*
X130130588Y-90674819D01*
X130321065Y-89674819D02*
X130892493Y-89674819D01*
X130606779Y-90674819D02*
X130606779Y-89674819D01*
D12*
X57504949Y-70302000D02*
X57647806Y-70349619D01*
X57647806Y-70349619D02*
X57885901Y-70349619D01*
X57885901Y-70349619D02*
X57981139Y-70302000D01*
X57981139Y-70302000D02*
X58028758Y-70254380D01*
X58028758Y-70254380D02*
X58076377Y-70159142D01*
X58076377Y-70159142D02*
X58076377Y-70063904D01*
X58076377Y-70063904D02*
X58028758Y-69968666D01*
X58028758Y-69968666D02*
X57981139Y-69921047D01*
X57981139Y-69921047D02*
X57885901Y-69873428D01*
X57885901Y-69873428D02*
X57695425Y-69825809D01*
X57695425Y-69825809D02*
X57600187Y-69778190D01*
X57600187Y-69778190D02*
X57552568Y-69730571D01*
X57552568Y-69730571D02*
X57504949Y-69635333D01*
X57504949Y-69635333D02*
X57504949Y-69540095D01*
X57504949Y-69540095D02*
X57552568Y-69444857D01*
X57552568Y-69444857D02*
X57600187Y-69397238D01*
X57600187Y-69397238D02*
X57695425Y-69349619D01*
X57695425Y-69349619D02*
X57933520Y-69349619D01*
X57933520Y-69349619D02*
X58076377Y-69397238D01*
X58504949Y-70349619D02*
X58504949Y-69349619D01*
X58504949Y-69825809D02*
X59076377Y-69825809D01*
X59076377Y-70349619D02*
X59076377Y-69349619D01*
X59409711Y-69349619D02*
X59981139Y-69349619D01*
X59695425Y-70349619D02*
X59695425Y-69349619D01*
X60743044Y-69682952D02*
X60743044Y-70349619D01*
X60504949Y-69302000D02*
X60266854Y-70016285D01*
X60266854Y-70016285D02*
X60885901Y-70016285D01*
X61790663Y-70349619D02*
X61219235Y-70349619D01*
X61504949Y-70349619D02*
X61504949Y-69349619D01*
X61504949Y-69349619D02*
X61409711Y-69492476D01*
X61409711Y-69492476D02*
X61314473Y-69587714D01*
X61314473Y-69587714D02*
X61219235Y-69635333D01*
X65124949Y-45832056D02*
X65267806Y-45879675D01*
X65267806Y-45879675D02*
X65505901Y-45879675D01*
X65505901Y-45879675D02*
X65601139Y-45832056D01*
X65601139Y-45832056D02*
X65648758Y-45784436D01*
X65648758Y-45784436D02*
X65696377Y-45689198D01*
X65696377Y-45689198D02*
X65696377Y-45593960D01*
X65696377Y-45593960D02*
X65648758Y-45498722D01*
X65648758Y-45498722D02*
X65601139Y-45451103D01*
X65601139Y-45451103D02*
X65505901Y-45403484D01*
X65505901Y-45403484D02*
X65315425Y-45355865D01*
X65315425Y-45355865D02*
X65220187Y-45308246D01*
X65220187Y-45308246D02*
X65172568Y-45260627D01*
X65172568Y-45260627D02*
X65124949Y-45165389D01*
X65124949Y-45165389D02*
X65124949Y-45070151D01*
X65124949Y-45070151D02*
X65172568Y-44974913D01*
X65172568Y-44974913D02*
X65220187Y-44927294D01*
X65220187Y-44927294D02*
X65315425Y-44879675D01*
X65315425Y-44879675D02*
X65553520Y-44879675D01*
X65553520Y-44879675D02*
X65696377Y-44927294D01*
X66124949Y-45879675D02*
X66124949Y-44879675D01*
X66124949Y-45355865D02*
X66696377Y-45355865D01*
X66696377Y-45879675D02*
X66696377Y-44879675D01*
X67029711Y-44879675D02*
X67601139Y-44879675D01*
X67315425Y-45879675D02*
X67315425Y-44879675D01*
X68363044Y-45213008D02*
X68363044Y-45879675D01*
X68124949Y-44832056D02*
X67886854Y-45546341D01*
X67886854Y-45546341D02*
X68505901Y-45546341D01*
X69410663Y-45879675D02*
X68839235Y-45879675D01*
X69124949Y-45879675D02*
X69124949Y-44879675D01*
X69124949Y-44879675D02*
X69029711Y-45022532D01*
X69029711Y-45022532D02*
X68934473Y-45117770D01*
X68934473Y-45117770D02*
X68839235Y-45165389D01*
X70601140Y-45355865D02*
X70934473Y-45355865D01*
X71077330Y-45879675D02*
X70601140Y-45879675D01*
X70601140Y-45879675D02*
X70601140Y-44879675D01*
X70601140Y-44879675D02*
X71077330Y-44879675D01*
X71505902Y-45879675D02*
X71505902Y-44879675D01*
X71505902Y-44879675D02*
X72077330Y-45879675D01*
X72077330Y-45879675D02*
X72077330Y-44879675D01*
X72410664Y-44879675D02*
X72743997Y-45879675D01*
X72743997Y-45879675D02*
X73077330Y-44879675D01*
X74648759Y-45879675D02*
X74172569Y-45879675D01*
X74172569Y-45879675D02*
X74172569Y-44879675D01*
X75172569Y-44879675D02*
X75363045Y-44879675D01*
X75363045Y-44879675D02*
X75458283Y-44927294D01*
X75458283Y-44927294D02*
X75553521Y-45022532D01*
X75553521Y-45022532D02*
X75601140Y-45213008D01*
X75601140Y-45213008D02*
X75601140Y-45546341D01*
X75601140Y-45546341D02*
X75553521Y-45736817D01*
X75553521Y-45736817D02*
X75458283Y-45832056D01*
X75458283Y-45832056D02*
X75363045Y-45879675D01*
X75363045Y-45879675D02*
X75172569Y-45879675D01*
X75172569Y-45879675D02*
X75077331Y-45832056D01*
X75077331Y-45832056D02*
X74982093Y-45736817D01*
X74982093Y-45736817D02*
X74934474Y-45546341D01*
X74934474Y-45546341D02*
X74934474Y-45213008D01*
X74934474Y-45213008D02*
X74982093Y-45022532D01*
X74982093Y-45022532D02*
X75077331Y-44927294D01*
X75077331Y-44927294D02*
X75172569Y-44879675D01*
X76553521Y-44927294D02*
X76458283Y-44879675D01*
X76458283Y-44879675D02*
X76315426Y-44879675D01*
X76315426Y-44879675D02*
X76172569Y-44927294D01*
X76172569Y-44927294D02*
X76077331Y-45022532D01*
X76077331Y-45022532D02*
X76029712Y-45117770D01*
X76029712Y-45117770D02*
X75982093Y-45308246D01*
X75982093Y-45308246D02*
X75982093Y-45451103D01*
X75982093Y-45451103D02*
X76029712Y-45641579D01*
X76029712Y-45641579D02*
X76077331Y-45736817D01*
X76077331Y-45736817D02*
X76172569Y-45832056D01*
X76172569Y-45832056D02*
X76315426Y-45879675D01*
X76315426Y-45879675D02*
X76410664Y-45879675D01*
X76410664Y-45879675D02*
X76553521Y-45832056D01*
X76553521Y-45832056D02*
X76601140Y-45784436D01*
X76601140Y-45784436D02*
X76601140Y-45451103D01*
X76601140Y-45451103D02*
X76410664Y-45451103D01*
X77553521Y-44927294D02*
X77458283Y-44879675D01*
X77458283Y-44879675D02*
X77315426Y-44879675D01*
X77315426Y-44879675D02*
X77172569Y-44927294D01*
X77172569Y-44927294D02*
X77077331Y-45022532D01*
X77077331Y-45022532D02*
X77029712Y-45117770D01*
X77029712Y-45117770D02*
X76982093Y-45308246D01*
X76982093Y-45308246D02*
X76982093Y-45451103D01*
X76982093Y-45451103D02*
X77029712Y-45641579D01*
X77029712Y-45641579D02*
X77077331Y-45736817D01*
X77077331Y-45736817D02*
X77172569Y-45832056D01*
X77172569Y-45832056D02*
X77315426Y-45879675D01*
X77315426Y-45879675D02*
X77410664Y-45879675D01*
X77410664Y-45879675D02*
X77553521Y-45832056D01*
X77553521Y-45832056D02*
X77601140Y-45784436D01*
X77601140Y-45784436D02*
X77601140Y-45451103D01*
X77601140Y-45451103D02*
X77410664Y-45451103D01*
X78029712Y-45355865D02*
X78363045Y-45355865D01*
X78505902Y-45879675D02*
X78029712Y-45879675D01*
X78029712Y-45879675D02*
X78029712Y-44879675D01*
X78029712Y-44879675D02*
X78505902Y-44879675D01*
X79505902Y-45879675D02*
X79172569Y-45403484D01*
X78934474Y-45879675D02*
X78934474Y-44879675D01*
X78934474Y-44879675D02*
X79315426Y-44879675D01*
X79315426Y-44879675D02*
X79410664Y-44927294D01*
X79410664Y-44927294D02*
X79458283Y-44974913D01*
X79458283Y-44974913D02*
X79505902Y-45070151D01*
X79505902Y-45070151D02*
X79505902Y-45213008D01*
X79505902Y-45213008D02*
X79458283Y-45308246D01*
X79458283Y-45308246D02*
X79410664Y-45355865D01*
X79410664Y-45355865D02*
X79315426Y-45403484D01*
X79315426Y-45403484D02*
X78934474Y-45403484D01*
X65743996Y-47489619D02*
X65410663Y-47013428D01*
X65172568Y-47489619D02*
X65172568Y-46489619D01*
X65172568Y-46489619D02*
X65553520Y-46489619D01*
X65553520Y-46489619D02*
X65648758Y-46537238D01*
X65648758Y-46537238D02*
X65696377Y-46584857D01*
X65696377Y-46584857D02*
X65743996Y-46680095D01*
X65743996Y-46680095D02*
X65743996Y-46822952D01*
X65743996Y-46822952D02*
X65696377Y-46918190D01*
X65696377Y-46918190D02*
X65648758Y-46965809D01*
X65648758Y-46965809D02*
X65553520Y-47013428D01*
X65553520Y-47013428D02*
X65172568Y-47013428D01*
X66172568Y-46965809D02*
X66505901Y-46965809D01*
X66648758Y-47489619D02*
X66172568Y-47489619D01*
X66172568Y-47489619D02*
X66172568Y-46489619D01*
X66172568Y-46489619D02*
X66648758Y-46489619D01*
X66934473Y-46489619D02*
X67267806Y-47489619D01*
X67267806Y-47489619D02*
X67601139Y-46489619D01*
X68648759Y-47203904D02*
X69124949Y-47203904D01*
X68553521Y-47489619D02*
X68886854Y-46489619D01*
X68886854Y-46489619D02*
X69220187Y-47489619D01*
X70267807Y-46584857D02*
X70315426Y-46537238D01*
X70315426Y-46537238D02*
X70410664Y-46489619D01*
X70410664Y-46489619D02*
X70648759Y-46489619D01*
X70648759Y-46489619D02*
X70743997Y-46537238D01*
X70743997Y-46537238D02*
X70791616Y-46584857D01*
X70791616Y-46584857D02*
X70839235Y-46680095D01*
X70839235Y-46680095D02*
X70839235Y-46775333D01*
X70839235Y-46775333D02*
X70791616Y-46918190D01*
X70791616Y-46918190D02*
X70220188Y-47489619D01*
X70220188Y-47489619D02*
X70839235Y-47489619D01*
X71458283Y-46489619D02*
X71553521Y-46489619D01*
X71553521Y-46489619D02*
X71648759Y-46537238D01*
X71648759Y-46537238D02*
X71696378Y-46584857D01*
X71696378Y-46584857D02*
X71743997Y-46680095D01*
X71743997Y-46680095D02*
X71791616Y-46870571D01*
X71791616Y-46870571D02*
X71791616Y-47108666D01*
X71791616Y-47108666D02*
X71743997Y-47299142D01*
X71743997Y-47299142D02*
X71696378Y-47394380D01*
X71696378Y-47394380D02*
X71648759Y-47442000D01*
X71648759Y-47442000D02*
X71553521Y-47489619D01*
X71553521Y-47489619D02*
X71458283Y-47489619D01*
X71458283Y-47489619D02*
X71363045Y-47442000D01*
X71363045Y-47442000D02*
X71315426Y-47394380D01*
X71315426Y-47394380D02*
X71267807Y-47299142D01*
X71267807Y-47299142D02*
X71220188Y-47108666D01*
X71220188Y-47108666D02*
X71220188Y-46870571D01*
X71220188Y-46870571D02*
X71267807Y-46680095D01*
X71267807Y-46680095D02*
X71315426Y-46584857D01*
X71315426Y-46584857D02*
X71363045Y-46537238D01*
X71363045Y-46537238D02*
X71458283Y-46489619D01*
X72172569Y-46584857D02*
X72220188Y-46537238D01*
X72220188Y-46537238D02*
X72315426Y-46489619D01*
X72315426Y-46489619D02*
X72553521Y-46489619D01*
X72553521Y-46489619D02*
X72648759Y-46537238D01*
X72648759Y-46537238D02*
X72696378Y-46584857D01*
X72696378Y-46584857D02*
X72743997Y-46680095D01*
X72743997Y-46680095D02*
X72743997Y-46775333D01*
X72743997Y-46775333D02*
X72696378Y-46918190D01*
X72696378Y-46918190D02*
X72124950Y-47489619D01*
X72124950Y-47489619D02*
X72743997Y-47489619D01*
X73601140Y-46489619D02*
X73410664Y-46489619D01*
X73410664Y-46489619D02*
X73315426Y-46537238D01*
X73315426Y-46537238D02*
X73267807Y-46584857D01*
X73267807Y-46584857D02*
X73172569Y-46727714D01*
X73172569Y-46727714D02*
X73124950Y-46918190D01*
X73124950Y-46918190D02*
X73124950Y-47299142D01*
X73124950Y-47299142D02*
X73172569Y-47394380D01*
X73172569Y-47394380D02*
X73220188Y-47442000D01*
X73220188Y-47442000D02*
X73315426Y-47489619D01*
X73315426Y-47489619D02*
X73505902Y-47489619D01*
X73505902Y-47489619D02*
X73601140Y-47442000D01*
X73601140Y-47442000D02*
X73648759Y-47394380D01*
X73648759Y-47394380D02*
X73696378Y-47299142D01*
X73696378Y-47299142D02*
X73696378Y-47061047D01*
X73696378Y-47061047D02*
X73648759Y-46965809D01*
X73648759Y-46965809D02*
X73601140Y-46918190D01*
X73601140Y-46918190D02*
X73505902Y-46870571D01*
X73505902Y-46870571D02*
X73315426Y-46870571D01*
X73315426Y-46870571D02*
X73220188Y-46918190D01*
X73220188Y-46918190D02*
X73172569Y-46965809D01*
X73172569Y-46965809D02*
X73124950Y-47061047D01*
X74124950Y-47108666D02*
X74886855Y-47108666D01*
X75553521Y-46489619D02*
X75648759Y-46489619D01*
X75648759Y-46489619D02*
X75743997Y-46537238D01*
X75743997Y-46537238D02*
X75791616Y-46584857D01*
X75791616Y-46584857D02*
X75839235Y-46680095D01*
X75839235Y-46680095D02*
X75886854Y-46870571D01*
X75886854Y-46870571D02*
X75886854Y-47108666D01*
X75886854Y-47108666D02*
X75839235Y-47299142D01*
X75839235Y-47299142D02*
X75791616Y-47394380D01*
X75791616Y-47394380D02*
X75743997Y-47442000D01*
X75743997Y-47442000D02*
X75648759Y-47489619D01*
X75648759Y-47489619D02*
X75553521Y-47489619D01*
X75553521Y-47489619D02*
X75458283Y-47442000D01*
X75458283Y-47442000D02*
X75410664Y-47394380D01*
X75410664Y-47394380D02*
X75363045Y-47299142D01*
X75363045Y-47299142D02*
X75315426Y-47108666D01*
X75315426Y-47108666D02*
X75315426Y-46870571D01*
X75315426Y-46870571D02*
X75363045Y-46680095D01*
X75363045Y-46680095D02*
X75410664Y-46584857D01*
X75410664Y-46584857D02*
X75458283Y-46537238D01*
X75458283Y-46537238D02*
X75553521Y-46489619D01*
X76743997Y-46489619D02*
X76553521Y-46489619D01*
X76553521Y-46489619D02*
X76458283Y-46537238D01*
X76458283Y-46537238D02*
X76410664Y-46584857D01*
X76410664Y-46584857D02*
X76315426Y-46727714D01*
X76315426Y-46727714D02*
X76267807Y-46918190D01*
X76267807Y-46918190D02*
X76267807Y-47299142D01*
X76267807Y-47299142D02*
X76315426Y-47394380D01*
X76315426Y-47394380D02*
X76363045Y-47442000D01*
X76363045Y-47442000D02*
X76458283Y-47489619D01*
X76458283Y-47489619D02*
X76648759Y-47489619D01*
X76648759Y-47489619D02*
X76743997Y-47442000D01*
X76743997Y-47442000D02*
X76791616Y-47394380D01*
X76791616Y-47394380D02*
X76839235Y-47299142D01*
X76839235Y-47299142D02*
X76839235Y-47061047D01*
X76839235Y-47061047D02*
X76791616Y-46965809D01*
X76791616Y-46965809D02*
X76743997Y-46918190D01*
X76743997Y-46918190D02*
X76648759Y-46870571D01*
X76648759Y-46870571D02*
X76458283Y-46870571D01*
X76458283Y-46870571D02*
X76363045Y-46918190D01*
X76363045Y-46918190D02*
X76315426Y-46965809D01*
X76315426Y-46965809D02*
X76267807Y-47061047D01*
D10*
X101749167Y-67272295D02*
X101482500Y-66891342D01*
X101292024Y-67272295D02*
X101292024Y-66472295D01*
X101292024Y-66472295D02*
X101596786Y-66472295D01*
X101596786Y-66472295D02*
X101672976Y-66510390D01*
X101672976Y-66510390D02*
X101711071Y-66548485D01*
X101711071Y-66548485D02*
X101749167Y-66624676D01*
X101749167Y-66624676D02*
X101749167Y-66738961D01*
X101749167Y-66738961D02*
X101711071Y-66815152D01*
X101711071Y-66815152D02*
X101672976Y-66853247D01*
X101672976Y-66853247D02*
X101596786Y-66891342D01*
X101596786Y-66891342D02*
X101292024Y-66891342D01*
X102015833Y-66472295D02*
X102549167Y-66472295D01*
X102549167Y-66472295D02*
X102206309Y-67272295D01*
X98396104Y-69348332D02*
X98434200Y-69386428D01*
X98434200Y-69386428D02*
X98472295Y-69500713D01*
X98472295Y-69500713D02*
X98472295Y-69576904D01*
X98472295Y-69576904D02*
X98434200Y-69691190D01*
X98434200Y-69691190D02*
X98358009Y-69767380D01*
X98358009Y-69767380D02*
X98281819Y-69805475D01*
X98281819Y-69805475D02*
X98129438Y-69843571D01*
X98129438Y-69843571D02*
X98015152Y-69843571D01*
X98015152Y-69843571D02*
X97862771Y-69805475D01*
X97862771Y-69805475D02*
X97786580Y-69767380D01*
X97786580Y-69767380D02*
X97710390Y-69691190D01*
X97710390Y-69691190D02*
X97672295Y-69576904D01*
X97672295Y-69576904D02*
X97672295Y-69500713D01*
X97672295Y-69500713D02*
X97710390Y-69386428D01*
X97710390Y-69386428D02*
X97748485Y-69348332D01*
X97748485Y-69043571D02*
X97710390Y-69005475D01*
X97710390Y-69005475D02*
X97672295Y-68929285D01*
X97672295Y-68929285D02*
X97672295Y-68738809D01*
X97672295Y-68738809D02*
X97710390Y-68662618D01*
X97710390Y-68662618D02*
X97748485Y-68624523D01*
X97748485Y-68624523D02*
X97824676Y-68586428D01*
X97824676Y-68586428D02*
X97900866Y-68586428D01*
X97900866Y-68586428D02*
X98015152Y-68624523D01*
X98015152Y-68624523D02*
X98472295Y-69081666D01*
X98472295Y-69081666D02*
X98472295Y-68586428D01*
X107886667Y-74462200D02*
X108029524Y-74509819D01*
X108029524Y-74509819D02*
X108267619Y-74509819D01*
X108267619Y-74509819D02*
X108362857Y-74462200D01*
X108362857Y-74462200D02*
X108410476Y-74414580D01*
X108410476Y-74414580D02*
X108458095Y-74319342D01*
X108458095Y-74319342D02*
X108458095Y-74224104D01*
X108458095Y-74224104D02*
X108410476Y-74128866D01*
X108410476Y-74128866D02*
X108362857Y-74081247D01*
X108362857Y-74081247D02*
X108267619Y-74033628D01*
X108267619Y-74033628D02*
X108077143Y-73986009D01*
X108077143Y-73986009D02*
X107981905Y-73938390D01*
X107981905Y-73938390D02*
X107934286Y-73890771D01*
X107934286Y-73890771D02*
X107886667Y-73795533D01*
X107886667Y-73795533D02*
X107886667Y-73700295D01*
X107886667Y-73700295D02*
X107934286Y-73605057D01*
X107934286Y-73605057D02*
X107981905Y-73557438D01*
X107981905Y-73557438D02*
X108077143Y-73509819D01*
X108077143Y-73509819D02*
X108315238Y-73509819D01*
X108315238Y-73509819D02*
X108458095Y-73557438D01*
X108791429Y-73509819D02*
X109029524Y-74509819D01*
X109029524Y-74509819D02*
X109220000Y-73795533D01*
X109220000Y-73795533D02*
X109410476Y-74509819D01*
X109410476Y-74509819D02*
X109648572Y-73509819D01*
X110553333Y-74509819D02*
X109981905Y-74509819D01*
X110267619Y-74509819D02*
X110267619Y-73509819D01*
X110267619Y-73509819D02*
X110172381Y-73652676D01*
X110172381Y-73652676D02*
X110077143Y-73747914D01*
X110077143Y-73747914D02*
X109981905Y-73795533D01*
X81048214Y-79026104D02*
X81010118Y-79064200D01*
X81010118Y-79064200D02*
X80895833Y-79102295D01*
X80895833Y-79102295D02*
X80819642Y-79102295D01*
X80819642Y-79102295D02*
X80705356Y-79064200D01*
X80705356Y-79064200D02*
X80629166Y-78988009D01*
X80629166Y-78988009D02*
X80591071Y-78911819D01*
X80591071Y-78911819D02*
X80552975Y-78759438D01*
X80552975Y-78759438D02*
X80552975Y-78645152D01*
X80552975Y-78645152D02*
X80591071Y-78492771D01*
X80591071Y-78492771D02*
X80629166Y-78416580D01*
X80629166Y-78416580D02*
X80705356Y-78340390D01*
X80705356Y-78340390D02*
X80819642Y-78302295D01*
X80819642Y-78302295D02*
X80895833Y-78302295D01*
X80895833Y-78302295D02*
X81010118Y-78340390D01*
X81010118Y-78340390D02*
X81048214Y-78378485D01*
X81810118Y-79102295D02*
X81352975Y-79102295D01*
X81581547Y-79102295D02*
X81581547Y-78302295D01*
X81581547Y-78302295D02*
X81505356Y-78416580D01*
X81505356Y-78416580D02*
X81429166Y-78492771D01*
X81429166Y-78492771D02*
X81352975Y-78530866D01*
X82495833Y-78568961D02*
X82495833Y-79102295D01*
X82305357Y-78264200D02*
X82114880Y-78835628D01*
X82114880Y-78835628D02*
X82610119Y-78835628D01*
X81566104Y-57918332D02*
X81604200Y-57956428D01*
X81604200Y-57956428D02*
X81642295Y-58070713D01*
X81642295Y-58070713D02*
X81642295Y-58146904D01*
X81642295Y-58146904D02*
X81604200Y-58261190D01*
X81604200Y-58261190D02*
X81528009Y-58337380D01*
X81528009Y-58337380D02*
X81451819Y-58375475D01*
X81451819Y-58375475D02*
X81299438Y-58413571D01*
X81299438Y-58413571D02*
X81185152Y-58413571D01*
X81185152Y-58413571D02*
X81032771Y-58375475D01*
X81032771Y-58375475D02*
X80956580Y-58337380D01*
X80956580Y-58337380D02*
X80880390Y-58261190D01*
X80880390Y-58261190D02*
X80842295Y-58146904D01*
X80842295Y-58146904D02*
X80842295Y-58070713D01*
X80842295Y-58070713D02*
X80880390Y-57956428D01*
X80880390Y-57956428D02*
X80918485Y-57918332D01*
X81185152Y-57461190D02*
X81147057Y-57537380D01*
X81147057Y-57537380D02*
X81108961Y-57575475D01*
X81108961Y-57575475D02*
X81032771Y-57613571D01*
X81032771Y-57613571D02*
X80994676Y-57613571D01*
X80994676Y-57613571D02*
X80918485Y-57575475D01*
X80918485Y-57575475D02*
X80880390Y-57537380D01*
X80880390Y-57537380D02*
X80842295Y-57461190D01*
X80842295Y-57461190D02*
X80842295Y-57308809D01*
X80842295Y-57308809D02*
X80880390Y-57232618D01*
X80880390Y-57232618D02*
X80918485Y-57194523D01*
X80918485Y-57194523D02*
X80994676Y-57156428D01*
X80994676Y-57156428D02*
X81032771Y-57156428D01*
X81032771Y-57156428D02*
X81108961Y-57194523D01*
X81108961Y-57194523D02*
X81147057Y-57232618D01*
X81147057Y-57232618D02*
X81185152Y-57308809D01*
X81185152Y-57308809D02*
X81185152Y-57461190D01*
X81185152Y-57461190D02*
X81223247Y-57537380D01*
X81223247Y-57537380D02*
X81261342Y-57575475D01*
X81261342Y-57575475D02*
X81337533Y-57613571D01*
X81337533Y-57613571D02*
X81489914Y-57613571D01*
X81489914Y-57613571D02*
X81566104Y-57575475D01*
X81566104Y-57575475D02*
X81604200Y-57537380D01*
X81604200Y-57537380D02*
X81642295Y-57461190D01*
X81642295Y-57461190D02*
X81642295Y-57308809D01*
X81642295Y-57308809D02*
X81604200Y-57232618D01*
X81604200Y-57232618D02*
X81566104Y-57194523D01*
X81566104Y-57194523D02*
X81489914Y-57156428D01*
X81489914Y-57156428D02*
X81337533Y-57156428D01*
X81337533Y-57156428D02*
X81261342Y-57194523D01*
X81261342Y-57194523D02*
X81223247Y-57232618D01*
X81223247Y-57232618D02*
X81185152Y-57308809D01*
X91560714Y-73946104D02*
X91522618Y-73984200D01*
X91522618Y-73984200D02*
X91408333Y-74022295D01*
X91408333Y-74022295D02*
X91332142Y-74022295D01*
X91332142Y-74022295D02*
X91217856Y-73984200D01*
X91217856Y-73984200D02*
X91141666Y-73908009D01*
X91141666Y-73908009D02*
X91103571Y-73831819D01*
X91103571Y-73831819D02*
X91065475Y-73679438D01*
X91065475Y-73679438D02*
X91065475Y-73565152D01*
X91065475Y-73565152D02*
X91103571Y-73412771D01*
X91103571Y-73412771D02*
X91141666Y-73336580D01*
X91141666Y-73336580D02*
X91217856Y-73260390D01*
X91217856Y-73260390D02*
X91332142Y-73222295D01*
X91332142Y-73222295D02*
X91408333Y-73222295D01*
X91408333Y-73222295D02*
X91522618Y-73260390D01*
X91522618Y-73260390D02*
X91560714Y-73298485D01*
X92322618Y-74022295D02*
X91865475Y-74022295D01*
X92094047Y-74022295D02*
X92094047Y-73222295D01*
X92094047Y-73222295D02*
X92017856Y-73336580D01*
X92017856Y-73336580D02*
X91941666Y-73412771D01*
X91941666Y-73412771D02*
X91865475Y-73450866D01*
X92627380Y-73298485D02*
X92665476Y-73260390D01*
X92665476Y-73260390D02*
X92741666Y-73222295D01*
X92741666Y-73222295D02*
X92932142Y-73222295D01*
X92932142Y-73222295D02*
X93008333Y-73260390D01*
X93008333Y-73260390D02*
X93046428Y-73298485D01*
X93046428Y-73298485D02*
X93084523Y-73374676D01*
X93084523Y-73374676D02*
X93084523Y-73450866D01*
X93084523Y-73450866D02*
X93046428Y-73565152D01*
X93046428Y-73565152D02*
X92589285Y-74022295D01*
X92589285Y-74022295D02*
X93084523Y-74022295D01*
X96364795Y-62819523D02*
X97012414Y-62819523D01*
X97012414Y-62819523D02*
X97088604Y-62781428D01*
X97088604Y-62781428D02*
X97126700Y-62743333D01*
X97126700Y-62743333D02*
X97164795Y-62667142D01*
X97164795Y-62667142D02*
X97164795Y-62514761D01*
X97164795Y-62514761D02*
X97126700Y-62438571D01*
X97126700Y-62438571D02*
X97088604Y-62400476D01*
X97088604Y-62400476D02*
X97012414Y-62362380D01*
X97012414Y-62362380D02*
X96364795Y-62362380D01*
X97164795Y-61562381D02*
X97164795Y-62019524D01*
X97164795Y-61790952D02*
X96364795Y-61790952D01*
X96364795Y-61790952D02*
X96479080Y-61867143D01*
X96479080Y-61867143D02*
X96555271Y-61943333D01*
X96555271Y-61943333D02*
X96593366Y-62019524D01*
X90014795Y-62819523D02*
X90662414Y-62819523D01*
X90662414Y-62819523D02*
X90738604Y-62781428D01*
X90738604Y-62781428D02*
X90776700Y-62743333D01*
X90776700Y-62743333D02*
X90814795Y-62667142D01*
X90814795Y-62667142D02*
X90814795Y-62514761D01*
X90814795Y-62514761D02*
X90776700Y-62438571D01*
X90776700Y-62438571D02*
X90738604Y-62400476D01*
X90738604Y-62400476D02*
X90662414Y-62362380D01*
X90662414Y-62362380D02*
X90014795Y-62362380D01*
X90814795Y-61562381D02*
X90814795Y-62019524D01*
X90814795Y-61790952D02*
X90014795Y-61790952D01*
X90014795Y-61790952D02*
X90129080Y-61867143D01*
X90129080Y-61867143D02*
X90205271Y-61943333D01*
X90205271Y-61943333D02*
X90243366Y-62019524D01*
X107352295Y-47891666D02*
X107923723Y-47891666D01*
X107923723Y-47891666D02*
X108038009Y-47929761D01*
X108038009Y-47929761D02*
X108114200Y-48005952D01*
X108114200Y-48005952D02*
X108152295Y-48120237D01*
X108152295Y-48120237D02*
X108152295Y-48196428D01*
X107352295Y-47586904D02*
X107352295Y-47091666D01*
X107352295Y-47091666D02*
X107657057Y-47358332D01*
X107657057Y-47358332D02*
X107657057Y-47244047D01*
X107657057Y-47244047D02*
X107695152Y-47167856D01*
X107695152Y-47167856D02*
X107733247Y-47129761D01*
X107733247Y-47129761D02*
X107809438Y-47091666D01*
X107809438Y-47091666D02*
X107999914Y-47091666D01*
X107999914Y-47091666D02*
X108076104Y-47129761D01*
X108076104Y-47129761D02*
X108114200Y-47167856D01*
X108114200Y-47167856D02*
X108152295Y-47244047D01*
X108152295Y-47244047D02*
X108152295Y-47472618D01*
X108152295Y-47472618D02*
X108114200Y-47548809D01*
X108114200Y-47548809D02*
X108076104Y-47586904D01*
X110210714Y-83471104D02*
X110172618Y-83509200D01*
X110172618Y-83509200D02*
X110058333Y-83547295D01*
X110058333Y-83547295D02*
X109982142Y-83547295D01*
X109982142Y-83547295D02*
X109867856Y-83509200D01*
X109867856Y-83509200D02*
X109791666Y-83433009D01*
X109791666Y-83433009D02*
X109753571Y-83356819D01*
X109753571Y-83356819D02*
X109715475Y-83204438D01*
X109715475Y-83204438D02*
X109715475Y-83090152D01*
X109715475Y-83090152D02*
X109753571Y-82937771D01*
X109753571Y-82937771D02*
X109791666Y-82861580D01*
X109791666Y-82861580D02*
X109867856Y-82785390D01*
X109867856Y-82785390D02*
X109982142Y-82747295D01*
X109982142Y-82747295D02*
X110058333Y-82747295D01*
X110058333Y-82747295D02*
X110172618Y-82785390D01*
X110172618Y-82785390D02*
X110210714Y-82823485D01*
X110515475Y-83509200D02*
X110629761Y-83547295D01*
X110629761Y-83547295D02*
X110820237Y-83547295D01*
X110820237Y-83547295D02*
X110896428Y-83509200D01*
X110896428Y-83509200D02*
X110934523Y-83471104D01*
X110934523Y-83471104D02*
X110972618Y-83394914D01*
X110972618Y-83394914D02*
X110972618Y-83318723D01*
X110972618Y-83318723D02*
X110934523Y-83242533D01*
X110934523Y-83242533D02*
X110896428Y-83204438D01*
X110896428Y-83204438D02*
X110820237Y-83166342D01*
X110820237Y-83166342D02*
X110667856Y-83128247D01*
X110667856Y-83128247D02*
X110591666Y-83090152D01*
X110591666Y-83090152D02*
X110553571Y-83052057D01*
X110553571Y-83052057D02*
X110515475Y-82975866D01*
X110515475Y-82975866D02*
X110515475Y-82899676D01*
X110515475Y-82899676D02*
X110553571Y-82823485D01*
X110553571Y-82823485D02*
X110591666Y-82785390D01*
X110591666Y-82785390D02*
X110667856Y-82747295D01*
X110667856Y-82747295D02*
X110858333Y-82747295D01*
X110858333Y-82747295D02*
X110972618Y-82785390D01*
X111734523Y-83547295D02*
X111277380Y-83547295D01*
X111505952Y-83547295D02*
X111505952Y-82747295D01*
X111505952Y-82747295D02*
X111429761Y-82861580D01*
X111429761Y-82861580D02*
X111353571Y-82937771D01*
X111353571Y-82937771D02*
X111277380Y-82975866D01*
X112344047Y-83128247D02*
X112458333Y-83166342D01*
X112458333Y-83166342D02*
X112496428Y-83204438D01*
X112496428Y-83204438D02*
X112534524Y-83280628D01*
X112534524Y-83280628D02*
X112534524Y-83394914D01*
X112534524Y-83394914D02*
X112496428Y-83471104D01*
X112496428Y-83471104D02*
X112458333Y-83509200D01*
X112458333Y-83509200D02*
X112382143Y-83547295D01*
X112382143Y-83547295D02*
X112077381Y-83547295D01*
X112077381Y-83547295D02*
X112077381Y-82747295D01*
X112077381Y-82747295D02*
X112344047Y-82747295D01*
X112344047Y-82747295D02*
X112420238Y-82785390D01*
X112420238Y-82785390D02*
X112458333Y-82823485D01*
X112458333Y-82823485D02*
X112496428Y-82899676D01*
X112496428Y-82899676D02*
X112496428Y-82975866D01*
X112496428Y-82975866D02*
X112458333Y-83052057D01*
X112458333Y-83052057D02*
X112420238Y-83090152D01*
X112420238Y-83090152D02*
X112344047Y-83128247D01*
X112344047Y-83128247D02*
X112077381Y-83128247D01*
X89897295Y-55378332D02*
X89516342Y-55644999D01*
X89897295Y-55835475D02*
X89097295Y-55835475D01*
X89097295Y-55835475D02*
X89097295Y-55530713D01*
X89097295Y-55530713D02*
X89135390Y-55454523D01*
X89135390Y-55454523D02*
X89173485Y-55416428D01*
X89173485Y-55416428D02*
X89249676Y-55378332D01*
X89249676Y-55378332D02*
X89363961Y-55378332D01*
X89363961Y-55378332D02*
X89440152Y-55416428D01*
X89440152Y-55416428D02*
X89478247Y-55454523D01*
X89478247Y-55454523D02*
X89516342Y-55530713D01*
X89516342Y-55530713D02*
X89516342Y-55835475D01*
X89097295Y-55111666D02*
X89097295Y-54616428D01*
X89097295Y-54616428D02*
X89402057Y-54883094D01*
X89402057Y-54883094D02*
X89402057Y-54768809D01*
X89402057Y-54768809D02*
X89440152Y-54692618D01*
X89440152Y-54692618D02*
X89478247Y-54654523D01*
X89478247Y-54654523D02*
X89554438Y-54616428D01*
X89554438Y-54616428D02*
X89744914Y-54616428D01*
X89744914Y-54616428D02*
X89821104Y-54654523D01*
X89821104Y-54654523D02*
X89859200Y-54692618D01*
X89859200Y-54692618D02*
X89897295Y-54768809D01*
X89897295Y-54768809D02*
X89897295Y-54997380D01*
X89897295Y-54997380D02*
X89859200Y-55073571D01*
X89859200Y-55073571D02*
X89821104Y-55111666D01*
X83051667Y-59956104D02*
X83013571Y-59994200D01*
X83013571Y-59994200D02*
X82899286Y-60032295D01*
X82899286Y-60032295D02*
X82823095Y-60032295D01*
X82823095Y-60032295D02*
X82708809Y-59994200D01*
X82708809Y-59994200D02*
X82632619Y-59918009D01*
X82632619Y-59918009D02*
X82594524Y-59841819D01*
X82594524Y-59841819D02*
X82556428Y-59689438D01*
X82556428Y-59689438D02*
X82556428Y-59575152D01*
X82556428Y-59575152D02*
X82594524Y-59422771D01*
X82594524Y-59422771D02*
X82632619Y-59346580D01*
X82632619Y-59346580D02*
X82708809Y-59270390D01*
X82708809Y-59270390D02*
X82823095Y-59232295D01*
X82823095Y-59232295D02*
X82899286Y-59232295D01*
X82899286Y-59232295D02*
X83013571Y-59270390D01*
X83013571Y-59270390D02*
X83051667Y-59308485D01*
X83737381Y-59498961D02*
X83737381Y-60032295D01*
X83546905Y-59194200D02*
X83356428Y-59765628D01*
X83356428Y-59765628D02*
X83851667Y-59765628D01*
X147980476Y-59925390D02*
X147904286Y-59887295D01*
X147904286Y-59887295D02*
X147790000Y-59887295D01*
X147790000Y-59887295D02*
X147675714Y-59925390D01*
X147675714Y-59925390D02*
X147599524Y-60001580D01*
X147599524Y-60001580D02*
X147561429Y-60077771D01*
X147561429Y-60077771D02*
X147523333Y-60230152D01*
X147523333Y-60230152D02*
X147523333Y-60344438D01*
X147523333Y-60344438D02*
X147561429Y-60496819D01*
X147561429Y-60496819D02*
X147599524Y-60573009D01*
X147599524Y-60573009D02*
X147675714Y-60649200D01*
X147675714Y-60649200D02*
X147790000Y-60687295D01*
X147790000Y-60687295D02*
X147866191Y-60687295D01*
X147866191Y-60687295D02*
X147980476Y-60649200D01*
X147980476Y-60649200D02*
X148018572Y-60611104D01*
X148018572Y-60611104D02*
X148018572Y-60344438D01*
X148018572Y-60344438D02*
X147866191Y-60344438D01*
X148361429Y-60687295D02*
X148361429Y-59887295D01*
X148361429Y-59887295D02*
X148818572Y-60687295D01*
X148818572Y-60687295D02*
X148818572Y-59887295D01*
X149199524Y-60687295D02*
X149199524Y-59887295D01*
X149199524Y-59887295D02*
X149390000Y-59887295D01*
X149390000Y-59887295D02*
X149504286Y-59925390D01*
X149504286Y-59925390D02*
X149580476Y-60001580D01*
X149580476Y-60001580D02*
X149618571Y-60077771D01*
X149618571Y-60077771D02*
X149656667Y-60230152D01*
X149656667Y-60230152D02*
X149656667Y-60344438D01*
X149656667Y-60344438D02*
X149618571Y-60496819D01*
X149618571Y-60496819D02*
X149580476Y-60573009D01*
X149580476Y-60573009D02*
X149504286Y-60649200D01*
X149504286Y-60649200D02*
X149390000Y-60687295D01*
X149390000Y-60687295D02*
X149199524Y-60687295D01*
X104032142Y-87192295D02*
X104222618Y-87992295D01*
X104222618Y-87992295D02*
X104374999Y-87420866D01*
X104374999Y-87420866D02*
X104527380Y-87992295D01*
X104527380Y-87992295D02*
X104717857Y-87192295D01*
X105479762Y-87992295D02*
X105213095Y-87611342D01*
X105022619Y-87992295D02*
X105022619Y-87192295D01*
X105022619Y-87192295D02*
X105327381Y-87192295D01*
X105327381Y-87192295D02*
X105403571Y-87230390D01*
X105403571Y-87230390D02*
X105441666Y-87268485D01*
X105441666Y-87268485D02*
X105479762Y-87344676D01*
X105479762Y-87344676D02*
X105479762Y-87458961D01*
X105479762Y-87458961D02*
X105441666Y-87535152D01*
X105441666Y-87535152D02*
X105403571Y-87573247D01*
X105403571Y-87573247D02*
X105327381Y-87611342D01*
X105327381Y-87611342D02*
X105022619Y-87611342D01*
X83940714Y-79026104D02*
X83902618Y-79064200D01*
X83902618Y-79064200D02*
X83788333Y-79102295D01*
X83788333Y-79102295D02*
X83712142Y-79102295D01*
X83712142Y-79102295D02*
X83597856Y-79064200D01*
X83597856Y-79064200D02*
X83521666Y-78988009D01*
X83521666Y-78988009D02*
X83483571Y-78911819D01*
X83483571Y-78911819D02*
X83445475Y-78759438D01*
X83445475Y-78759438D02*
X83445475Y-78645152D01*
X83445475Y-78645152D02*
X83483571Y-78492771D01*
X83483571Y-78492771D02*
X83521666Y-78416580D01*
X83521666Y-78416580D02*
X83597856Y-78340390D01*
X83597856Y-78340390D02*
X83712142Y-78302295D01*
X83712142Y-78302295D02*
X83788333Y-78302295D01*
X83788333Y-78302295D02*
X83902618Y-78340390D01*
X83902618Y-78340390D02*
X83940714Y-78378485D01*
X84702618Y-79102295D02*
X84245475Y-79102295D01*
X84474047Y-79102295D02*
X84474047Y-78302295D01*
X84474047Y-78302295D02*
X84397856Y-78416580D01*
X84397856Y-78416580D02*
X84321666Y-78492771D01*
X84321666Y-78492771D02*
X84245475Y-78530866D01*
X85197857Y-78302295D02*
X85274047Y-78302295D01*
X85274047Y-78302295D02*
X85350238Y-78340390D01*
X85350238Y-78340390D02*
X85388333Y-78378485D01*
X85388333Y-78378485D02*
X85426428Y-78454676D01*
X85426428Y-78454676D02*
X85464523Y-78607057D01*
X85464523Y-78607057D02*
X85464523Y-78797533D01*
X85464523Y-78797533D02*
X85426428Y-78949914D01*
X85426428Y-78949914D02*
X85388333Y-79026104D01*
X85388333Y-79026104D02*
X85350238Y-79064200D01*
X85350238Y-79064200D02*
X85274047Y-79102295D01*
X85274047Y-79102295D02*
X85197857Y-79102295D01*
X85197857Y-79102295D02*
X85121666Y-79064200D01*
X85121666Y-79064200D02*
X85083571Y-79026104D01*
X85083571Y-79026104D02*
X85045476Y-78949914D01*
X85045476Y-78949914D02*
X85007380Y-78797533D01*
X85007380Y-78797533D02*
X85007380Y-78607057D01*
X85007380Y-78607057D02*
X85045476Y-78454676D01*
X85045476Y-78454676D02*
X85083571Y-78378485D01*
X85083571Y-78378485D02*
X85121666Y-78340390D01*
X85121666Y-78340390D02*
X85197857Y-78302295D01*
X77787618Y-57474200D02*
X77901904Y-57512295D01*
X77901904Y-57512295D02*
X78092380Y-57512295D01*
X78092380Y-57512295D02*
X78168571Y-57474200D01*
X78168571Y-57474200D02*
X78206666Y-57436104D01*
X78206666Y-57436104D02*
X78244761Y-57359914D01*
X78244761Y-57359914D02*
X78244761Y-57283723D01*
X78244761Y-57283723D02*
X78206666Y-57207533D01*
X78206666Y-57207533D02*
X78168571Y-57169438D01*
X78168571Y-57169438D02*
X78092380Y-57131342D01*
X78092380Y-57131342D02*
X77939999Y-57093247D01*
X77939999Y-57093247D02*
X77863809Y-57055152D01*
X77863809Y-57055152D02*
X77825714Y-57017057D01*
X77825714Y-57017057D02*
X77787618Y-56940866D01*
X77787618Y-56940866D02*
X77787618Y-56864676D01*
X77787618Y-56864676D02*
X77825714Y-56788485D01*
X77825714Y-56788485D02*
X77863809Y-56750390D01*
X77863809Y-56750390D02*
X77939999Y-56712295D01*
X77939999Y-56712295D02*
X78130476Y-56712295D01*
X78130476Y-56712295D02*
X78244761Y-56750390D01*
X79044762Y-57436104D02*
X79006666Y-57474200D01*
X79006666Y-57474200D02*
X78892381Y-57512295D01*
X78892381Y-57512295D02*
X78816190Y-57512295D01*
X78816190Y-57512295D02*
X78701904Y-57474200D01*
X78701904Y-57474200D02*
X78625714Y-57398009D01*
X78625714Y-57398009D02*
X78587619Y-57321819D01*
X78587619Y-57321819D02*
X78549523Y-57169438D01*
X78549523Y-57169438D02*
X78549523Y-57055152D01*
X78549523Y-57055152D02*
X78587619Y-56902771D01*
X78587619Y-56902771D02*
X78625714Y-56826580D01*
X78625714Y-56826580D02*
X78701904Y-56750390D01*
X78701904Y-56750390D02*
X78816190Y-56712295D01*
X78816190Y-56712295D02*
X78892381Y-56712295D01*
X78892381Y-56712295D02*
X79006666Y-56750390D01*
X79006666Y-56750390D02*
X79044762Y-56788485D01*
X79768571Y-57512295D02*
X79387619Y-57512295D01*
X79387619Y-57512295D02*
X79387619Y-56712295D01*
X134105714Y-59976104D02*
X134067618Y-60014200D01*
X134067618Y-60014200D02*
X133953333Y-60052295D01*
X133953333Y-60052295D02*
X133877142Y-60052295D01*
X133877142Y-60052295D02*
X133762856Y-60014200D01*
X133762856Y-60014200D02*
X133686666Y-59938009D01*
X133686666Y-59938009D02*
X133648571Y-59861819D01*
X133648571Y-59861819D02*
X133610475Y-59709438D01*
X133610475Y-59709438D02*
X133610475Y-59595152D01*
X133610475Y-59595152D02*
X133648571Y-59442771D01*
X133648571Y-59442771D02*
X133686666Y-59366580D01*
X133686666Y-59366580D02*
X133762856Y-59290390D01*
X133762856Y-59290390D02*
X133877142Y-59252295D01*
X133877142Y-59252295D02*
X133953333Y-59252295D01*
X133953333Y-59252295D02*
X134067618Y-59290390D01*
X134067618Y-59290390D02*
X134105714Y-59328485D01*
X134410475Y-59328485D02*
X134448571Y-59290390D01*
X134448571Y-59290390D02*
X134524761Y-59252295D01*
X134524761Y-59252295D02*
X134715237Y-59252295D01*
X134715237Y-59252295D02*
X134791428Y-59290390D01*
X134791428Y-59290390D02*
X134829523Y-59328485D01*
X134829523Y-59328485D02*
X134867618Y-59404676D01*
X134867618Y-59404676D02*
X134867618Y-59480866D01*
X134867618Y-59480866D02*
X134829523Y-59595152D01*
X134829523Y-59595152D02*
X134372380Y-60052295D01*
X134372380Y-60052295D02*
X134867618Y-60052295D01*
X135629523Y-60052295D02*
X135172380Y-60052295D01*
X135400952Y-60052295D02*
X135400952Y-59252295D01*
X135400952Y-59252295D02*
X135324761Y-59366580D01*
X135324761Y-59366580D02*
X135248571Y-59442771D01*
X135248571Y-59442771D02*
X135172380Y-59480866D01*
X132959819Y-52403333D02*
X133674104Y-52403333D01*
X133674104Y-52403333D02*
X133816961Y-52450952D01*
X133816961Y-52450952D02*
X133912200Y-52546190D01*
X133912200Y-52546190D02*
X133959819Y-52689047D01*
X133959819Y-52689047D02*
X133959819Y-52784285D01*
X133959819Y-51403333D02*
X133959819Y-51974761D01*
X133959819Y-51689047D02*
X132959819Y-51689047D01*
X132959819Y-51689047D02*
X133102676Y-51784285D01*
X133102676Y-51784285D02*
X133197914Y-51879523D01*
X133197914Y-51879523D02*
X133245533Y-51974761D01*
X84956667Y-72752295D02*
X84690000Y-72371342D01*
X84499524Y-72752295D02*
X84499524Y-71952295D01*
X84499524Y-71952295D02*
X84804286Y-71952295D01*
X84804286Y-71952295D02*
X84880476Y-71990390D01*
X84880476Y-71990390D02*
X84918571Y-72028485D01*
X84918571Y-72028485D02*
X84956667Y-72104676D01*
X84956667Y-72104676D02*
X84956667Y-72218961D01*
X84956667Y-72218961D02*
X84918571Y-72295152D01*
X84918571Y-72295152D02*
X84880476Y-72333247D01*
X84880476Y-72333247D02*
X84804286Y-72371342D01*
X84804286Y-72371342D02*
X84499524Y-72371342D01*
X85642381Y-71952295D02*
X85490000Y-71952295D01*
X85490000Y-71952295D02*
X85413809Y-71990390D01*
X85413809Y-71990390D02*
X85375714Y-72028485D01*
X85375714Y-72028485D02*
X85299524Y-72142771D01*
X85299524Y-72142771D02*
X85261428Y-72295152D01*
X85261428Y-72295152D02*
X85261428Y-72599914D01*
X85261428Y-72599914D02*
X85299524Y-72676104D01*
X85299524Y-72676104D02*
X85337619Y-72714200D01*
X85337619Y-72714200D02*
X85413809Y-72752295D01*
X85413809Y-72752295D02*
X85566190Y-72752295D01*
X85566190Y-72752295D02*
X85642381Y-72714200D01*
X85642381Y-72714200D02*
X85680476Y-72676104D01*
X85680476Y-72676104D02*
X85718571Y-72599914D01*
X85718571Y-72599914D02*
X85718571Y-72409438D01*
X85718571Y-72409438D02*
X85680476Y-72333247D01*
X85680476Y-72333247D02*
X85642381Y-72295152D01*
X85642381Y-72295152D02*
X85566190Y-72257057D01*
X85566190Y-72257057D02*
X85413809Y-72257057D01*
X85413809Y-72257057D02*
X85337619Y-72295152D01*
X85337619Y-72295152D02*
X85299524Y-72333247D01*
X85299524Y-72333247D02*
X85261428Y-72409438D01*
X89020714Y-79026104D02*
X88982618Y-79064200D01*
X88982618Y-79064200D02*
X88868333Y-79102295D01*
X88868333Y-79102295D02*
X88792142Y-79102295D01*
X88792142Y-79102295D02*
X88677856Y-79064200D01*
X88677856Y-79064200D02*
X88601666Y-78988009D01*
X88601666Y-78988009D02*
X88563571Y-78911819D01*
X88563571Y-78911819D02*
X88525475Y-78759438D01*
X88525475Y-78759438D02*
X88525475Y-78645152D01*
X88525475Y-78645152D02*
X88563571Y-78492771D01*
X88563571Y-78492771D02*
X88601666Y-78416580D01*
X88601666Y-78416580D02*
X88677856Y-78340390D01*
X88677856Y-78340390D02*
X88792142Y-78302295D01*
X88792142Y-78302295D02*
X88868333Y-78302295D01*
X88868333Y-78302295D02*
X88982618Y-78340390D01*
X88982618Y-78340390D02*
X89020714Y-78378485D01*
X89782618Y-79102295D02*
X89325475Y-79102295D01*
X89554047Y-79102295D02*
X89554047Y-78302295D01*
X89554047Y-78302295D02*
X89477856Y-78416580D01*
X89477856Y-78416580D02*
X89401666Y-78492771D01*
X89401666Y-78492771D02*
X89325475Y-78530866D01*
X90049285Y-78302295D02*
X90582619Y-78302295D01*
X90582619Y-78302295D02*
X90239761Y-79102295D01*
X70986667Y-78166104D02*
X70948571Y-78204200D01*
X70948571Y-78204200D02*
X70834286Y-78242295D01*
X70834286Y-78242295D02*
X70758095Y-78242295D01*
X70758095Y-78242295D02*
X70643809Y-78204200D01*
X70643809Y-78204200D02*
X70567619Y-78128009D01*
X70567619Y-78128009D02*
X70529524Y-78051819D01*
X70529524Y-78051819D02*
X70491428Y-77899438D01*
X70491428Y-77899438D02*
X70491428Y-77785152D01*
X70491428Y-77785152D02*
X70529524Y-77632771D01*
X70529524Y-77632771D02*
X70567619Y-77556580D01*
X70567619Y-77556580D02*
X70643809Y-77480390D01*
X70643809Y-77480390D02*
X70758095Y-77442295D01*
X70758095Y-77442295D02*
X70834286Y-77442295D01*
X70834286Y-77442295D02*
X70948571Y-77480390D01*
X70948571Y-77480390D02*
X70986667Y-77518485D01*
X71253333Y-77442295D02*
X71786667Y-77442295D01*
X71786667Y-77442295D02*
X71443809Y-78242295D01*
X105740475Y-58109200D02*
X105854761Y-58147295D01*
X105854761Y-58147295D02*
X106045237Y-58147295D01*
X106045237Y-58147295D02*
X106121428Y-58109200D01*
X106121428Y-58109200D02*
X106159523Y-58071104D01*
X106159523Y-58071104D02*
X106197618Y-57994914D01*
X106197618Y-57994914D02*
X106197618Y-57918723D01*
X106197618Y-57918723D02*
X106159523Y-57842533D01*
X106159523Y-57842533D02*
X106121428Y-57804438D01*
X106121428Y-57804438D02*
X106045237Y-57766342D01*
X106045237Y-57766342D02*
X105892856Y-57728247D01*
X105892856Y-57728247D02*
X105816666Y-57690152D01*
X105816666Y-57690152D02*
X105778571Y-57652057D01*
X105778571Y-57652057D02*
X105740475Y-57575866D01*
X105740475Y-57575866D02*
X105740475Y-57499676D01*
X105740475Y-57499676D02*
X105778571Y-57423485D01*
X105778571Y-57423485D02*
X105816666Y-57385390D01*
X105816666Y-57385390D02*
X105892856Y-57347295D01*
X105892856Y-57347295D02*
X106083333Y-57347295D01*
X106083333Y-57347295D02*
X106197618Y-57385390D01*
X106464285Y-57347295D02*
X106654761Y-58147295D01*
X106654761Y-58147295D02*
X106807142Y-57575866D01*
X106807142Y-57575866D02*
X106959523Y-58147295D01*
X106959523Y-58147295D02*
X107150000Y-57347295D01*
X107454762Y-58147295D02*
X107454762Y-57347295D01*
X107454762Y-57347295D02*
X107645238Y-57347295D01*
X107645238Y-57347295D02*
X107759524Y-57385390D01*
X107759524Y-57385390D02*
X107835714Y-57461580D01*
X107835714Y-57461580D02*
X107873809Y-57537771D01*
X107873809Y-57537771D02*
X107911905Y-57690152D01*
X107911905Y-57690152D02*
X107911905Y-57804438D01*
X107911905Y-57804438D02*
X107873809Y-57956819D01*
X107873809Y-57956819D02*
X107835714Y-58033009D01*
X107835714Y-58033009D02*
X107759524Y-58109200D01*
X107759524Y-58109200D02*
X107645238Y-58147295D01*
X107645238Y-58147295D02*
X107454762Y-58147295D01*
X108711905Y-58071104D02*
X108673809Y-58109200D01*
X108673809Y-58109200D02*
X108559524Y-58147295D01*
X108559524Y-58147295D02*
X108483333Y-58147295D01*
X108483333Y-58147295D02*
X108369047Y-58109200D01*
X108369047Y-58109200D02*
X108292857Y-58033009D01*
X108292857Y-58033009D02*
X108254762Y-57956819D01*
X108254762Y-57956819D02*
X108216666Y-57804438D01*
X108216666Y-57804438D02*
X108216666Y-57690152D01*
X108216666Y-57690152D02*
X108254762Y-57537771D01*
X108254762Y-57537771D02*
X108292857Y-57461580D01*
X108292857Y-57461580D02*
X108369047Y-57385390D01*
X108369047Y-57385390D02*
X108483333Y-57347295D01*
X108483333Y-57347295D02*
X108559524Y-57347295D01*
X108559524Y-57347295D02*
X108673809Y-57385390D01*
X108673809Y-57385390D02*
X108711905Y-57423485D01*
X109435714Y-58147295D02*
X109054762Y-58147295D01*
X109054762Y-58147295D02*
X109054762Y-57347295D01*
X109702381Y-58147295D02*
X109702381Y-57347295D01*
X110159524Y-58147295D02*
X109816666Y-57690152D01*
X110159524Y-57347295D02*
X109702381Y-57804438D01*
X83969167Y-73926104D02*
X83931071Y-73964200D01*
X83931071Y-73964200D02*
X83816786Y-74002295D01*
X83816786Y-74002295D02*
X83740595Y-74002295D01*
X83740595Y-74002295D02*
X83626309Y-73964200D01*
X83626309Y-73964200D02*
X83550119Y-73888009D01*
X83550119Y-73888009D02*
X83512024Y-73811819D01*
X83512024Y-73811819D02*
X83473928Y-73659438D01*
X83473928Y-73659438D02*
X83473928Y-73545152D01*
X83473928Y-73545152D02*
X83512024Y-73392771D01*
X83512024Y-73392771D02*
X83550119Y-73316580D01*
X83550119Y-73316580D02*
X83626309Y-73240390D01*
X83626309Y-73240390D02*
X83740595Y-73202295D01*
X83740595Y-73202295D02*
X83816786Y-73202295D01*
X83816786Y-73202295D02*
X83931071Y-73240390D01*
X83931071Y-73240390D02*
X83969167Y-73278485D01*
X84350119Y-74002295D02*
X84502500Y-74002295D01*
X84502500Y-74002295D02*
X84578690Y-73964200D01*
X84578690Y-73964200D02*
X84616786Y-73926104D01*
X84616786Y-73926104D02*
X84692976Y-73811819D01*
X84692976Y-73811819D02*
X84731071Y-73659438D01*
X84731071Y-73659438D02*
X84731071Y-73354676D01*
X84731071Y-73354676D02*
X84692976Y-73278485D01*
X84692976Y-73278485D02*
X84654881Y-73240390D01*
X84654881Y-73240390D02*
X84578690Y-73202295D01*
X84578690Y-73202295D02*
X84426309Y-73202295D01*
X84426309Y-73202295D02*
X84350119Y-73240390D01*
X84350119Y-73240390D02*
X84312024Y-73278485D01*
X84312024Y-73278485D02*
X84273928Y-73354676D01*
X84273928Y-73354676D02*
X84273928Y-73545152D01*
X84273928Y-73545152D02*
X84312024Y-73621342D01*
X84312024Y-73621342D02*
X84350119Y-73659438D01*
X84350119Y-73659438D02*
X84426309Y-73697533D01*
X84426309Y-73697533D02*
X84578690Y-73697533D01*
X84578690Y-73697533D02*
X84654881Y-73659438D01*
X84654881Y-73659438D02*
X84692976Y-73621342D01*
X84692976Y-73621342D02*
X84731071Y-73545152D01*
X94100714Y-79006104D02*
X94062618Y-79044200D01*
X94062618Y-79044200D02*
X93948333Y-79082295D01*
X93948333Y-79082295D02*
X93872142Y-79082295D01*
X93872142Y-79082295D02*
X93757856Y-79044200D01*
X93757856Y-79044200D02*
X93681666Y-78968009D01*
X93681666Y-78968009D02*
X93643571Y-78891819D01*
X93643571Y-78891819D02*
X93605475Y-78739438D01*
X93605475Y-78739438D02*
X93605475Y-78625152D01*
X93605475Y-78625152D02*
X93643571Y-78472771D01*
X93643571Y-78472771D02*
X93681666Y-78396580D01*
X93681666Y-78396580D02*
X93757856Y-78320390D01*
X93757856Y-78320390D02*
X93872142Y-78282295D01*
X93872142Y-78282295D02*
X93948333Y-78282295D01*
X93948333Y-78282295D02*
X94062618Y-78320390D01*
X94062618Y-78320390D02*
X94100714Y-78358485D01*
X94862618Y-79082295D02*
X94405475Y-79082295D01*
X94634047Y-79082295D02*
X94634047Y-78282295D01*
X94634047Y-78282295D02*
X94557856Y-78396580D01*
X94557856Y-78396580D02*
X94481666Y-78472771D01*
X94481666Y-78472771D02*
X94405475Y-78510866D01*
X95319761Y-78625152D02*
X95243571Y-78587057D01*
X95243571Y-78587057D02*
X95205476Y-78548961D01*
X95205476Y-78548961D02*
X95167380Y-78472771D01*
X95167380Y-78472771D02*
X95167380Y-78434676D01*
X95167380Y-78434676D02*
X95205476Y-78358485D01*
X95205476Y-78358485D02*
X95243571Y-78320390D01*
X95243571Y-78320390D02*
X95319761Y-78282295D01*
X95319761Y-78282295D02*
X95472142Y-78282295D01*
X95472142Y-78282295D02*
X95548333Y-78320390D01*
X95548333Y-78320390D02*
X95586428Y-78358485D01*
X95586428Y-78358485D02*
X95624523Y-78434676D01*
X95624523Y-78434676D02*
X95624523Y-78472771D01*
X95624523Y-78472771D02*
X95586428Y-78548961D01*
X95586428Y-78548961D02*
X95548333Y-78587057D01*
X95548333Y-78587057D02*
X95472142Y-78625152D01*
X95472142Y-78625152D02*
X95319761Y-78625152D01*
X95319761Y-78625152D02*
X95243571Y-78663247D01*
X95243571Y-78663247D02*
X95205476Y-78701342D01*
X95205476Y-78701342D02*
X95167380Y-78777533D01*
X95167380Y-78777533D02*
X95167380Y-78929914D01*
X95167380Y-78929914D02*
X95205476Y-79006104D01*
X95205476Y-79006104D02*
X95243571Y-79044200D01*
X95243571Y-79044200D02*
X95319761Y-79082295D01*
X95319761Y-79082295D02*
X95472142Y-79082295D01*
X95472142Y-79082295D02*
X95548333Y-79044200D01*
X95548333Y-79044200D02*
X95586428Y-79006104D01*
X95586428Y-79006104D02*
X95624523Y-78929914D01*
X95624523Y-78929914D02*
X95624523Y-78777533D01*
X95624523Y-78777533D02*
X95586428Y-78701342D01*
X95586428Y-78701342D02*
X95548333Y-78663247D01*
X95548333Y-78663247D02*
X95472142Y-78625152D01*
X100908247Y-75596666D02*
X100908247Y-75863332D01*
X101327295Y-75863332D02*
X100527295Y-75863332D01*
X100527295Y-75863332D02*
X100527295Y-75482380D01*
X100908247Y-74910952D02*
X100946342Y-74796666D01*
X100946342Y-74796666D02*
X100984438Y-74758571D01*
X100984438Y-74758571D02*
X101060628Y-74720475D01*
X101060628Y-74720475D02*
X101174914Y-74720475D01*
X101174914Y-74720475D02*
X101251104Y-74758571D01*
X101251104Y-74758571D02*
X101289200Y-74796666D01*
X101289200Y-74796666D02*
X101327295Y-74872856D01*
X101327295Y-74872856D02*
X101327295Y-75177618D01*
X101327295Y-75177618D02*
X100527295Y-75177618D01*
X100527295Y-75177618D02*
X100527295Y-74910952D01*
X100527295Y-74910952D02*
X100565390Y-74834761D01*
X100565390Y-74834761D02*
X100603485Y-74796666D01*
X100603485Y-74796666D02*
X100679676Y-74758571D01*
X100679676Y-74758571D02*
X100755866Y-74758571D01*
X100755866Y-74758571D02*
X100832057Y-74796666D01*
X100832057Y-74796666D02*
X100870152Y-74834761D01*
X100870152Y-74834761D02*
X100908247Y-74910952D01*
X100908247Y-74910952D02*
X100908247Y-75177618D01*
X101327295Y-73958571D02*
X101327295Y-74415714D01*
X101327295Y-74187142D02*
X100527295Y-74187142D01*
X100527295Y-74187142D02*
X100641580Y-74263333D01*
X100641580Y-74263333D02*
X100717771Y-74339523D01*
X100717771Y-74339523D02*
X100755866Y-74415714D01*
X147523333Y-54807295D02*
X147790000Y-55607295D01*
X147790000Y-55607295D02*
X148056666Y-54807295D01*
X148323333Y-55607295D02*
X148323333Y-54807295D01*
X148323333Y-54807295D02*
X148513809Y-54807295D01*
X148513809Y-54807295D02*
X148628095Y-54845390D01*
X148628095Y-54845390D02*
X148704285Y-54921580D01*
X148704285Y-54921580D02*
X148742380Y-54997771D01*
X148742380Y-54997771D02*
X148780476Y-55150152D01*
X148780476Y-55150152D02*
X148780476Y-55264438D01*
X148780476Y-55264438D02*
X148742380Y-55416819D01*
X148742380Y-55416819D02*
X148704285Y-55493009D01*
X148704285Y-55493009D02*
X148628095Y-55569200D01*
X148628095Y-55569200D02*
X148513809Y-55607295D01*
X148513809Y-55607295D02*
X148323333Y-55607295D01*
X149123333Y-55607295D02*
X149123333Y-54807295D01*
X149123333Y-54807295D02*
X149313809Y-54807295D01*
X149313809Y-54807295D02*
X149428095Y-54845390D01*
X149428095Y-54845390D02*
X149504285Y-54921580D01*
X149504285Y-54921580D02*
X149542380Y-54997771D01*
X149542380Y-54997771D02*
X149580476Y-55150152D01*
X149580476Y-55150152D02*
X149580476Y-55264438D01*
X149580476Y-55264438D02*
X149542380Y-55416819D01*
X149542380Y-55416819D02*
X149504285Y-55493009D01*
X149504285Y-55493009D02*
X149428095Y-55569200D01*
X149428095Y-55569200D02*
X149313809Y-55607295D01*
X149313809Y-55607295D02*
X149123333Y-55607295D01*
X75217295Y-76313332D02*
X74836342Y-76579999D01*
X75217295Y-76770475D02*
X74417295Y-76770475D01*
X74417295Y-76770475D02*
X74417295Y-76465713D01*
X74417295Y-76465713D02*
X74455390Y-76389523D01*
X74455390Y-76389523D02*
X74493485Y-76351428D01*
X74493485Y-76351428D02*
X74569676Y-76313332D01*
X74569676Y-76313332D02*
X74683961Y-76313332D01*
X74683961Y-76313332D02*
X74760152Y-76351428D01*
X74760152Y-76351428D02*
X74798247Y-76389523D01*
X74798247Y-76389523D02*
X74836342Y-76465713D01*
X74836342Y-76465713D02*
X74836342Y-76770475D01*
X74683961Y-75627618D02*
X75217295Y-75627618D01*
X74379200Y-75818094D02*
X74950628Y-76008571D01*
X74950628Y-76008571D02*
X74950628Y-75513332D01*
X147923333Y-65348247D02*
X148037619Y-65386342D01*
X148037619Y-65386342D02*
X148075714Y-65424438D01*
X148075714Y-65424438D02*
X148113810Y-65500628D01*
X148113810Y-65500628D02*
X148113810Y-65614914D01*
X148113810Y-65614914D02*
X148075714Y-65691104D01*
X148075714Y-65691104D02*
X148037619Y-65729200D01*
X148037619Y-65729200D02*
X147961429Y-65767295D01*
X147961429Y-65767295D02*
X147656667Y-65767295D01*
X147656667Y-65767295D02*
X147656667Y-64967295D01*
X147656667Y-64967295D02*
X147923333Y-64967295D01*
X147923333Y-64967295D02*
X147999524Y-65005390D01*
X147999524Y-65005390D02*
X148037619Y-65043485D01*
X148037619Y-65043485D02*
X148075714Y-65119676D01*
X148075714Y-65119676D02*
X148075714Y-65195866D01*
X148075714Y-65195866D02*
X148037619Y-65272057D01*
X148037619Y-65272057D02*
X147999524Y-65310152D01*
X147999524Y-65310152D02*
X147923333Y-65348247D01*
X147923333Y-65348247D02*
X147656667Y-65348247D01*
X148342381Y-64967295D02*
X148799524Y-64967295D01*
X148570952Y-65767295D02*
X148570952Y-64967295D01*
X149066191Y-65767295D02*
X149066191Y-64967295D01*
X149066191Y-64967295D02*
X149523334Y-65767295D01*
X149523334Y-65767295D02*
X149523334Y-64967295D01*
X106254761Y-62554200D02*
X106369047Y-62592295D01*
X106369047Y-62592295D02*
X106559523Y-62592295D01*
X106559523Y-62592295D02*
X106635714Y-62554200D01*
X106635714Y-62554200D02*
X106673809Y-62516104D01*
X106673809Y-62516104D02*
X106711904Y-62439914D01*
X106711904Y-62439914D02*
X106711904Y-62363723D01*
X106711904Y-62363723D02*
X106673809Y-62287533D01*
X106673809Y-62287533D02*
X106635714Y-62249438D01*
X106635714Y-62249438D02*
X106559523Y-62211342D01*
X106559523Y-62211342D02*
X106407142Y-62173247D01*
X106407142Y-62173247D02*
X106330952Y-62135152D01*
X106330952Y-62135152D02*
X106292857Y-62097057D01*
X106292857Y-62097057D02*
X106254761Y-62020866D01*
X106254761Y-62020866D02*
X106254761Y-61944676D01*
X106254761Y-61944676D02*
X106292857Y-61868485D01*
X106292857Y-61868485D02*
X106330952Y-61830390D01*
X106330952Y-61830390D02*
X106407142Y-61792295D01*
X106407142Y-61792295D02*
X106597619Y-61792295D01*
X106597619Y-61792295D02*
X106711904Y-61830390D01*
X106978571Y-61792295D02*
X107169047Y-62592295D01*
X107169047Y-62592295D02*
X107321428Y-62020866D01*
X107321428Y-62020866D02*
X107473809Y-62592295D01*
X107473809Y-62592295D02*
X107664286Y-61792295D01*
X107969048Y-62592295D02*
X107969048Y-61792295D01*
X107969048Y-61792295D02*
X108159524Y-61792295D01*
X108159524Y-61792295D02*
X108273810Y-61830390D01*
X108273810Y-61830390D02*
X108350000Y-61906580D01*
X108350000Y-61906580D02*
X108388095Y-61982771D01*
X108388095Y-61982771D02*
X108426191Y-62135152D01*
X108426191Y-62135152D02*
X108426191Y-62249438D01*
X108426191Y-62249438D02*
X108388095Y-62401819D01*
X108388095Y-62401819D02*
X108350000Y-62478009D01*
X108350000Y-62478009D02*
X108273810Y-62554200D01*
X108273810Y-62554200D02*
X108159524Y-62592295D01*
X108159524Y-62592295D02*
X107969048Y-62592295D01*
X108769048Y-62592295D02*
X108769048Y-61792295D01*
X109302381Y-61792295D02*
X109454762Y-61792295D01*
X109454762Y-61792295D02*
X109530952Y-61830390D01*
X109530952Y-61830390D02*
X109607143Y-61906580D01*
X109607143Y-61906580D02*
X109645238Y-62058961D01*
X109645238Y-62058961D02*
X109645238Y-62325628D01*
X109645238Y-62325628D02*
X109607143Y-62478009D01*
X109607143Y-62478009D02*
X109530952Y-62554200D01*
X109530952Y-62554200D02*
X109454762Y-62592295D01*
X109454762Y-62592295D02*
X109302381Y-62592295D01*
X109302381Y-62592295D02*
X109226190Y-62554200D01*
X109226190Y-62554200D02*
X109150000Y-62478009D01*
X109150000Y-62478009D02*
X109111904Y-62325628D01*
X109111904Y-62325628D02*
X109111904Y-62058961D01*
X109111904Y-62058961D02*
X109150000Y-61906580D01*
X109150000Y-61906580D02*
X109226190Y-61830390D01*
X109226190Y-61830390D02*
X109302381Y-61792295D01*
X83051667Y-68846104D02*
X83013571Y-68884200D01*
X83013571Y-68884200D02*
X82899286Y-68922295D01*
X82899286Y-68922295D02*
X82823095Y-68922295D01*
X82823095Y-68922295D02*
X82708809Y-68884200D01*
X82708809Y-68884200D02*
X82632619Y-68808009D01*
X82632619Y-68808009D02*
X82594524Y-68731819D01*
X82594524Y-68731819D02*
X82556428Y-68579438D01*
X82556428Y-68579438D02*
X82556428Y-68465152D01*
X82556428Y-68465152D02*
X82594524Y-68312771D01*
X82594524Y-68312771D02*
X82632619Y-68236580D01*
X82632619Y-68236580D02*
X82708809Y-68160390D01*
X82708809Y-68160390D02*
X82823095Y-68122295D01*
X82823095Y-68122295D02*
X82899286Y-68122295D01*
X82899286Y-68122295D02*
X83013571Y-68160390D01*
X83013571Y-68160390D02*
X83051667Y-68198485D01*
X83775476Y-68122295D02*
X83394524Y-68122295D01*
X83394524Y-68122295D02*
X83356428Y-68503247D01*
X83356428Y-68503247D02*
X83394524Y-68465152D01*
X83394524Y-68465152D02*
X83470714Y-68427057D01*
X83470714Y-68427057D02*
X83661190Y-68427057D01*
X83661190Y-68427057D02*
X83737381Y-68465152D01*
X83737381Y-68465152D02*
X83775476Y-68503247D01*
X83775476Y-68503247D02*
X83813571Y-68579438D01*
X83813571Y-68579438D02*
X83813571Y-68769914D01*
X83813571Y-68769914D02*
X83775476Y-68846104D01*
X83775476Y-68846104D02*
X83737381Y-68884200D01*
X83737381Y-68884200D02*
X83661190Y-68922295D01*
X83661190Y-68922295D02*
X83470714Y-68922295D01*
X83470714Y-68922295D02*
X83394524Y-68884200D01*
X83394524Y-68884200D02*
X83356428Y-68846104D01*
X130930714Y-59976104D02*
X130892618Y-60014200D01*
X130892618Y-60014200D02*
X130778333Y-60052295D01*
X130778333Y-60052295D02*
X130702142Y-60052295D01*
X130702142Y-60052295D02*
X130587856Y-60014200D01*
X130587856Y-60014200D02*
X130511666Y-59938009D01*
X130511666Y-59938009D02*
X130473571Y-59861819D01*
X130473571Y-59861819D02*
X130435475Y-59709438D01*
X130435475Y-59709438D02*
X130435475Y-59595152D01*
X130435475Y-59595152D02*
X130473571Y-59442771D01*
X130473571Y-59442771D02*
X130511666Y-59366580D01*
X130511666Y-59366580D02*
X130587856Y-59290390D01*
X130587856Y-59290390D02*
X130702142Y-59252295D01*
X130702142Y-59252295D02*
X130778333Y-59252295D01*
X130778333Y-59252295D02*
X130892618Y-59290390D01*
X130892618Y-59290390D02*
X130930714Y-59328485D01*
X131235475Y-59328485D02*
X131273571Y-59290390D01*
X131273571Y-59290390D02*
X131349761Y-59252295D01*
X131349761Y-59252295D02*
X131540237Y-59252295D01*
X131540237Y-59252295D02*
X131616428Y-59290390D01*
X131616428Y-59290390D02*
X131654523Y-59328485D01*
X131654523Y-59328485D02*
X131692618Y-59404676D01*
X131692618Y-59404676D02*
X131692618Y-59480866D01*
X131692618Y-59480866D02*
X131654523Y-59595152D01*
X131654523Y-59595152D02*
X131197380Y-60052295D01*
X131197380Y-60052295D02*
X131692618Y-60052295D01*
X132187857Y-59252295D02*
X132264047Y-59252295D01*
X132264047Y-59252295D02*
X132340238Y-59290390D01*
X132340238Y-59290390D02*
X132378333Y-59328485D01*
X132378333Y-59328485D02*
X132416428Y-59404676D01*
X132416428Y-59404676D02*
X132454523Y-59557057D01*
X132454523Y-59557057D02*
X132454523Y-59747533D01*
X132454523Y-59747533D02*
X132416428Y-59899914D01*
X132416428Y-59899914D02*
X132378333Y-59976104D01*
X132378333Y-59976104D02*
X132340238Y-60014200D01*
X132340238Y-60014200D02*
X132264047Y-60052295D01*
X132264047Y-60052295D02*
X132187857Y-60052295D01*
X132187857Y-60052295D02*
X132111666Y-60014200D01*
X132111666Y-60014200D02*
X132073571Y-59976104D01*
X132073571Y-59976104D02*
X132035476Y-59899914D01*
X132035476Y-59899914D02*
X131997380Y-59747533D01*
X131997380Y-59747533D02*
X131997380Y-59557057D01*
X131997380Y-59557057D02*
X132035476Y-59404676D01*
X132035476Y-59404676D02*
X132073571Y-59328485D01*
X132073571Y-59328485D02*
X132111666Y-59290390D01*
X132111666Y-59290390D02*
X132187857Y-59252295D01*
X86480714Y-79026104D02*
X86442618Y-79064200D01*
X86442618Y-79064200D02*
X86328333Y-79102295D01*
X86328333Y-79102295D02*
X86252142Y-79102295D01*
X86252142Y-79102295D02*
X86137856Y-79064200D01*
X86137856Y-79064200D02*
X86061666Y-78988009D01*
X86061666Y-78988009D02*
X86023571Y-78911819D01*
X86023571Y-78911819D02*
X85985475Y-78759438D01*
X85985475Y-78759438D02*
X85985475Y-78645152D01*
X85985475Y-78645152D02*
X86023571Y-78492771D01*
X86023571Y-78492771D02*
X86061666Y-78416580D01*
X86061666Y-78416580D02*
X86137856Y-78340390D01*
X86137856Y-78340390D02*
X86252142Y-78302295D01*
X86252142Y-78302295D02*
X86328333Y-78302295D01*
X86328333Y-78302295D02*
X86442618Y-78340390D01*
X86442618Y-78340390D02*
X86480714Y-78378485D01*
X87242618Y-79102295D02*
X86785475Y-79102295D01*
X87014047Y-79102295D02*
X87014047Y-78302295D01*
X87014047Y-78302295D02*
X86937856Y-78416580D01*
X86937856Y-78416580D02*
X86861666Y-78492771D01*
X86861666Y-78492771D02*
X86785475Y-78530866D01*
X87966428Y-78302295D02*
X87585476Y-78302295D01*
X87585476Y-78302295D02*
X87547380Y-78683247D01*
X87547380Y-78683247D02*
X87585476Y-78645152D01*
X87585476Y-78645152D02*
X87661666Y-78607057D01*
X87661666Y-78607057D02*
X87852142Y-78607057D01*
X87852142Y-78607057D02*
X87928333Y-78645152D01*
X87928333Y-78645152D02*
X87966428Y-78683247D01*
X87966428Y-78683247D02*
X88004523Y-78759438D01*
X88004523Y-78759438D02*
X88004523Y-78949914D01*
X88004523Y-78949914D02*
X87966428Y-79026104D01*
X87966428Y-79026104D02*
X87928333Y-79064200D01*
X87928333Y-79064200D02*
X87852142Y-79102295D01*
X87852142Y-79102295D02*
X87661666Y-79102295D01*
X87661666Y-79102295D02*
X87585476Y-79064200D01*
X87585476Y-79064200D02*
X87547380Y-79026104D01*
X98358604Y-71888332D02*
X98396700Y-71926428D01*
X98396700Y-71926428D02*
X98434795Y-72040713D01*
X98434795Y-72040713D02*
X98434795Y-72116904D01*
X98434795Y-72116904D02*
X98396700Y-72231190D01*
X98396700Y-72231190D02*
X98320509Y-72307380D01*
X98320509Y-72307380D02*
X98244319Y-72345475D01*
X98244319Y-72345475D02*
X98091938Y-72383571D01*
X98091938Y-72383571D02*
X97977652Y-72383571D01*
X97977652Y-72383571D02*
X97825271Y-72345475D01*
X97825271Y-72345475D02*
X97749080Y-72307380D01*
X97749080Y-72307380D02*
X97672890Y-72231190D01*
X97672890Y-72231190D02*
X97634795Y-72116904D01*
X97634795Y-72116904D02*
X97634795Y-72040713D01*
X97634795Y-72040713D02*
X97672890Y-71926428D01*
X97672890Y-71926428D02*
X97710985Y-71888332D01*
X97634795Y-71202618D02*
X97634795Y-71354999D01*
X97634795Y-71354999D02*
X97672890Y-71431190D01*
X97672890Y-71431190D02*
X97710985Y-71469285D01*
X97710985Y-71469285D02*
X97825271Y-71545475D01*
X97825271Y-71545475D02*
X97977652Y-71583571D01*
X97977652Y-71583571D02*
X98282414Y-71583571D01*
X98282414Y-71583571D02*
X98358604Y-71545475D01*
X98358604Y-71545475D02*
X98396700Y-71507380D01*
X98396700Y-71507380D02*
X98434795Y-71431190D01*
X98434795Y-71431190D02*
X98434795Y-71278809D01*
X98434795Y-71278809D02*
X98396700Y-71202618D01*
X98396700Y-71202618D02*
X98358604Y-71164523D01*
X98358604Y-71164523D02*
X98282414Y-71126428D01*
X98282414Y-71126428D02*
X98091938Y-71126428D01*
X98091938Y-71126428D02*
X98015747Y-71164523D01*
X98015747Y-71164523D02*
X97977652Y-71202618D01*
X97977652Y-71202618D02*
X97939557Y-71278809D01*
X97939557Y-71278809D02*
X97939557Y-71431190D01*
X97939557Y-71431190D02*
X97977652Y-71507380D01*
X97977652Y-71507380D02*
X98015747Y-71545475D01*
X98015747Y-71545475D02*
X98091938Y-71583571D01*
X59145476Y-65407295D02*
X59145476Y-66054914D01*
X59145476Y-66054914D02*
X59183571Y-66131104D01*
X59183571Y-66131104D02*
X59221666Y-66169200D01*
X59221666Y-66169200D02*
X59297857Y-66207295D01*
X59297857Y-66207295D02*
X59450238Y-66207295D01*
X59450238Y-66207295D02*
X59526428Y-66169200D01*
X59526428Y-66169200D02*
X59564523Y-66131104D01*
X59564523Y-66131104D02*
X59602619Y-66054914D01*
X59602619Y-66054914D02*
X59602619Y-65407295D01*
X59945475Y-65483485D02*
X59983571Y-65445390D01*
X59983571Y-65445390D02*
X60059761Y-65407295D01*
X60059761Y-65407295D02*
X60250237Y-65407295D01*
X60250237Y-65407295D02*
X60326428Y-65445390D01*
X60326428Y-65445390D02*
X60364523Y-65483485D01*
X60364523Y-65483485D02*
X60402618Y-65559676D01*
X60402618Y-65559676D02*
X60402618Y-65635866D01*
X60402618Y-65635866D02*
X60364523Y-65750152D01*
X60364523Y-65750152D02*
X59907380Y-66207295D01*
X59907380Y-66207295D02*
X60402618Y-66207295D01*
X109676815Y-66080472D02*
X109676815Y-66651900D01*
X109676815Y-66651900D02*
X109638720Y-66766186D01*
X109638720Y-66766186D02*
X109562529Y-66842377D01*
X109562529Y-66842377D02*
X109448244Y-66880472D01*
X109448244Y-66880472D02*
X109372053Y-66880472D01*
X110400625Y-66347138D02*
X110400625Y-66880472D01*
X110210149Y-66042377D02*
X110019672Y-66613805D01*
X110019672Y-66613805D02*
X110514911Y-66613805D01*
X85845714Y-73946104D02*
X85807618Y-73984200D01*
X85807618Y-73984200D02*
X85693333Y-74022295D01*
X85693333Y-74022295D02*
X85617142Y-74022295D01*
X85617142Y-74022295D02*
X85502856Y-73984200D01*
X85502856Y-73984200D02*
X85426666Y-73908009D01*
X85426666Y-73908009D02*
X85388571Y-73831819D01*
X85388571Y-73831819D02*
X85350475Y-73679438D01*
X85350475Y-73679438D02*
X85350475Y-73565152D01*
X85350475Y-73565152D02*
X85388571Y-73412771D01*
X85388571Y-73412771D02*
X85426666Y-73336580D01*
X85426666Y-73336580D02*
X85502856Y-73260390D01*
X85502856Y-73260390D02*
X85617142Y-73222295D01*
X85617142Y-73222295D02*
X85693333Y-73222295D01*
X85693333Y-73222295D02*
X85807618Y-73260390D01*
X85807618Y-73260390D02*
X85845714Y-73298485D01*
X86607618Y-74022295D02*
X86150475Y-74022295D01*
X86379047Y-74022295D02*
X86379047Y-73222295D01*
X86379047Y-73222295D02*
X86302856Y-73336580D01*
X86302856Y-73336580D02*
X86226666Y-73412771D01*
X86226666Y-73412771D02*
X86150475Y-73450866D01*
X87369523Y-74022295D02*
X86912380Y-74022295D01*
X87140952Y-74022295D02*
X87140952Y-73222295D01*
X87140952Y-73222295D02*
X87064761Y-73336580D01*
X87064761Y-73336580D02*
X86988571Y-73412771D01*
X86988571Y-73412771D02*
X86912380Y-73450866D01*
X74912295Y-61093332D02*
X74531342Y-61359999D01*
X74912295Y-61550475D02*
X74112295Y-61550475D01*
X74112295Y-61550475D02*
X74112295Y-61245713D01*
X74112295Y-61245713D02*
X74150390Y-61169523D01*
X74150390Y-61169523D02*
X74188485Y-61131428D01*
X74188485Y-61131428D02*
X74264676Y-61093332D01*
X74264676Y-61093332D02*
X74378961Y-61093332D01*
X74378961Y-61093332D02*
X74455152Y-61131428D01*
X74455152Y-61131428D02*
X74493247Y-61169523D01*
X74493247Y-61169523D02*
X74531342Y-61245713D01*
X74531342Y-61245713D02*
X74531342Y-61550475D01*
X74912295Y-60331428D02*
X74912295Y-60788571D01*
X74912295Y-60559999D02*
X74112295Y-60559999D01*
X74112295Y-60559999D02*
X74226580Y-60636190D01*
X74226580Y-60636190D02*
X74302771Y-60712380D01*
X74302771Y-60712380D02*
X74340866Y-60788571D01*
X101460476Y-61792295D02*
X101727143Y-62592295D01*
X101727143Y-62592295D02*
X101993809Y-61792295D01*
X102260476Y-62592295D02*
X102260476Y-61792295D01*
X102260476Y-61792295D02*
X102450952Y-61792295D01*
X102450952Y-61792295D02*
X102565238Y-61830390D01*
X102565238Y-61830390D02*
X102641428Y-61906580D01*
X102641428Y-61906580D02*
X102679523Y-61982771D01*
X102679523Y-61982771D02*
X102717619Y-62135152D01*
X102717619Y-62135152D02*
X102717619Y-62249438D01*
X102717619Y-62249438D02*
X102679523Y-62401819D01*
X102679523Y-62401819D02*
X102641428Y-62478009D01*
X102641428Y-62478009D02*
X102565238Y-62554200D01*
X102565238Y-62554200D02*
X102450952Y-62592295D01*
X102450952Y-62592295D02*
X102260476Y-62592295D01*
X103060476Y-62592295D02*
X103060476Y-61792295D01*
X103060476Y-61792295D02*
X103250952Y-61792295D01*
X103250952Y-61792295D02*
X103365238Y-61830390D01*
X103365238Y-61830390D02*
X103441428Y-61906580D01*
X103441428Y-61906580D02*
X103479523Y-61982771D01*
X103479523Y-61982771D02*
X103517619Y-62135152D01*
X103517619Y-62135152D02*
X103517619Y-62249438D01*
X103517619Y-62249438D02*
X103479523Y-62401819D01*
X103479523Y-62401819D02*
X103441428Y-62478009D01*
X103441428Y-62478009D02*
X103365238Y-62554200D01*
X103365238Y-62554200D02*
X103250952Y-62592295D01*
X103250952Y-62592295D02*
X103060476Y-62592295D01*
X103822380Y-62363723D02*
X104203333Y-62363723D01*
X103746190Y-62592295D02*
X104012857Y-61792295D01*
X104012857Y-61792295D02*
X104279523Y-62592295D01*
X101403333Y-57728247D02*
X101517619Y-57766342D01*
X101517619Y-57766342D02*
X101555714Y-57804438D01*
X101555714Y-57804438D02*
X101593810Y-57880628D01*
X101593810Y-57880628D02*
X101593810Y-57994914D01*
X101593810Y-57994914D02*
X101555714Y-58071104D01*
X101555714Y-58071104D02*
X101517619Y-58109200D01*
X101517619Y-58109200D02*
X101441429Y-58147295D01*
X101441429Y-58147295D02*
X101136667Y-58147295D01*
X101136667Y-58147295D02*
X101136667Y-57347295D01*
X101136667Y-57347295D02*
X101403333Y-57347295D01*
X101403333Y-57347295D02*
X101479524Y-57385390D01*
X101479524Y-57385390D02*
X101517619Y-57423485D01*
X101517619Y-57423485D02*
X101555714Y-57499676D01*
X101555714Y-57499676D02*
X101555714Y-57575866D01*
X101555714Y-57575866D02*
X101517619Y-57652057D01*
X101517619Y-57652057D02*
X101479524Y-57690152D01*
X101479524Y-57690152D02*
X101403333Y-57728247D01*
X101403333Y-57728247D02*
X101136667Y-57728247D01*
X102089048Y-57347295D02*
X102241429Y-57347295D01*
X102241429Y-57347295D02*
X102317619Y-57385390D01*
X102317619Y-57385390D02*
X102393810Y-57461580D01*
X102393810Y-57461580D02*
X102431905Y-57613961D01*
X102431905Y-57613961D02*
X102431905Y-57880628D01*
X102431905Y-57880628D02*
X102393810Y-58033009D01*
X102393810Y-58033009D02*
X102317619Y-58109200D01*
X102317619Y-58109200D02*
X102241429Y-58147295D01*
X102241429Y-58147295D02*
X102089048Y-58147295D01*
X102089048Y-58147295D02*
X102012857Y-58109200D01*
X102012857Y-58109200D02*
X101936667Y-58033009D01*
X101936667Y-58033009D02*
X101898571Y-57880628D01*
X101898571Y-57880628D02*
X101898571Y-57613961D01*
X101898571Y-57613961D02*
X101936667Y-57461580D01*
X101936667Y-57461580D02*
X102012857Y-57385390D01*
X102012857Y-57385390D02*
X102089048Y-57347295D01*
X102927143Y-57347295D02*
X103079524Y-57347295D01*
X103079524Y-57347295D02*
X103155714Y-57385390D01*
X103155714Y-57385390D02*
X103231905Y-57461580D01*
X103231905Y-57461580D02*
X103270000Y-57613961D01*
X103270000Y-57613961D02*
X103270000Y-57880628D01*
X103270000Y-57880628D02*
X103231905Y-58033009D01*
X103231905Y-58033009D02*
X103155714Y-58109200D01*
X103155714Y-58109200D02*
X103079524Y-58147295D01*
X103079524Y-58147295D02*
X102927143Y-58147295D01*
X102927143Y-58147295D02*
X102850952Y-58109200D01*
X102850952Y-58109200D02*
X102774762Y-58033009D01*
X102774762Y-58033009D02*
X102736666Y-57880628D01*
X102736666Y-57880628D02*
X102736666Y-57613961D01*
X102736666Y-57613961D02*
X102774762Y-57461580D01*
X102774762Y-57461580D02*
X102850952Y-57385390D01*
X102850952Y-57385390D02*
X102927143Y-57347295D01*
X103498571Y-57347295D02*
X103955714Y-57347295D01*
X103727142Y-58147295D02*
X103727142Y-57347295D01*
X104374762Y-57347295D02*
X104450952Y-57347295D01*
X104450952Y-57347295D02*
X104527143Y-57385390D01*
X104527143Y-57385390D02*
X104565238Y-57423485D01*
X104565238Y-57423485D02*
X104603333Y-57499676D01*
X104603333Y-57499676D02*
X104641428Y-57652057D01*
X104641428Y-57652057D02*
X104641428Y-57842533D01*
X104641428Y-57842533D02*
X104603333Y-57994914D01*
X104603333Y-57994914D02*
X104565238Y-58071104D01*
X104565238Y-58071104D02*
X104527143Y-58109200D01*
X104527143Y-58109200D02*
X104450952Y-58147295D01*
X104450952Y-58147295D02*
X104374762Y-58147295D01*
X104374762Y-58147295D02*
X104298571Y-58109200D01*
X104298571Y-58109200D02*
X104260476Y-58071104D01*
X104260476Y-58071104D02*
X104222381Y-57994914D01*
X104222381Y-57994914D02*
X104184285Y-57842533D01*
X104184285Y-57842533D02*
X104184285Y-57652057D01*
X104184285Y-57652057D02*
X104222381Y-57499676D01*
X104222381Y-57499676D02*
X104260476Y-57423485D01*
X104260476Y-57423485D02*
X104298571Y-57385390D01*
X104298571Y-57385390D02*
X104374762Y-57347295D01*
X78031071Y-68269200D02*
X78145357Y-68307295D01*
X78145357Y-68307295D02*
X78335833Y-68307295D01*
X78335833Y-68307295D02*
X78412024Y-68269200D01*
X78412024Y-68269200D02*
X78450119Y-68231104D01*
X78450119Y-68231104D02*
X78488214Y-68154914D01*
X78488214Y-68154914D02*
X78488214Y-68078723D01*
X78488214Y-68078723D02*
X78450119Y-68002533D01*
X78450119Y-68002533D02*
X78412024Y-67964438D01*
X78412024Y-67964438D02*
X78335833Y-67926342D01*
X78335833Y-67926342D02*
X78183452Y-67888247D01*
X78183452Y-67888247D02*
X78107262Y-67850152D01*
X78107262Y-67850152D02*
X78069167Y-67812057D01*
X78069167Y-67812057D02*
X78031071Y-67735866D01*
X78031071Y-67735866D02*
X78031071Y-67659676D01*
X78031071Y-67659676D02*
X78069167Y-67583485D01*
X78069167Y-67583485D02*
X78107262Y-67545390D01*
X78107262Y-67545390D02*
X78183452Y-67507295D01*
X78183452Y-67507295D02*
X78373929Y-67507295D01*
X78373929Y-67507295D02*
X78488214Y-67545390D01*
X78831072Y-68307295D02*
X78831072Y-67507295D01*
X78831072Y-67507295D02*
X79021548Y-67507295D01*
X79021548Y-67507295D02*
X79135834Y-67545390D01*
X79135834Y-67545390D02*
X79212024Y-67621580D01*
X79212024Y-67621580D02*
X79250119Y-67697771D01*
X79250119Y-67697771D02*
X79288215Y-67850152D01*
X79288215Y-67850152D02*
X79288215Y-67964438D01*
X79288215Y-67964438D02*
X79250119Y-68116819D01*
X79250119Y-68116819D02*
X79212024Y-68193009D01*
X79212024Y-68193009D02*
X79135834Y-68269200D01*
X79135834Y-68269200D02*
X79021548Y-68307295D01*
X79021548Y-68307295D02*
X78831072Y-68307295D01*
X79592976Y-68078723D02*
X79973929Y-68078723D01*
X79516786Y-68307295D02*
X79783453Y-67507295D01*
X79783453Y-67507295D02*
X80050119Y-68307295D01*
X86861667Y-72732295D02*
X86595000Y-72351342D01*
X86404524Y-72732295D02*
X86404524Y-71932295D01*
X86404524Y-71932295D02*
X86709286Y-71932295D01*
X86709286Y-71932295D02*
X86785476Y-71970390D01*
X86785476Y-71970390D02*
X86823571Y-72008485D01*
X86823571Y-72008485D02*
X86861667Y-72084676D01*
X86861667Y-72084676D02*
X86861667Y-72198961D01*
X86861667Y-72198961D02*
X86823571Y-72275152D01*
X86823571Y-72275152D02*
X86785476Y-72313247D01*
X86785476Y-72313247D02*
X86709286Y-72351342D01*
X86709286Y-72351342D02*
X86404524Y-72351342D01*
X87585476Y-71932295D02*
X87204524Y-71932295D01*
X87204524Y-71932295D02*
X87166428Y-72313247D01*
X87166428Y-72313247D02*
X87204524Y-72275152D01*
X87204524Y-72275152D02*
X87280714Y-72237057D01*
X87280714Y-72237057D02*
X87471190Y-72237057D01*
X87471190Y-72237057D02*
X87547381Y-72275152D01*
X87547381Y-72275152D02*
X87585476Y-72313247D01*
X87585476Y-72313247D02*
X87623571Y-72389438D01*
X87623571Y-72389438D02*
X87623571Y-72579914D01*
X87623571Y-72579914D02*
X87585476Y-72656104D01*
X87585476Y-72656104D02*
X87547381Y-72694200D01*
X87547381Y-72694200D02*
X87471190Y-72732295D01*
X87471190Y-72732295D02*
X87280714Y-72732295D01*
X87280714Y-72732295D02*
X87204524Y-72694200D01*
X87204524Y-72694200D02*
X87166428Y-72656104D01*
X89506104Y-69348332D02*
X89544200Y-69386428D01*
X89544200Y-69386428D02*
X89582295Y-69500713D01*
X89582295Y-69500713D02*
X89582295Y-69576904D01*
X89582295Y-69576904D02*
X89544200Y-69691190D01*
X89544200Y-69691190D02*
X89468009Y-69767380D01*
X89468009Y-69767380D02*
X89391819Y-69805475D01*
X89391819Y-69805475D02*
X89239438Y-69843571D01*
X89239438Y-69843571D02*
X89125152Y-69843571D01*
X89125152Y-69843571D02*
X88972771Y-69805475D01*
X88972771Y-69805475D02*
X88896580Y-69767380D01*
X88896580Y-69767380D02*
X88820390Y-69691190D01*
X88820390Y-69691190D02*
X88782295Y-69576904D01*
X88782295Y-69576904D02*
X88782295Y-69500713D01*
X88782295Y-69500713D02*
X88820390Y-69386428D01*
X88820390Y-69386428D02*
X88858485Y-69348332D01*
X89582295Y-68586428D02*
X89582295Y-69043571D01*
X89582295Y-68814999D02*
X88782295Y-68814999D01*
X88782295Y-68814999D02*
X88896580Y-68891190D01*
X88896580Y-68891190D02*
X88972771Y-68967380D01*
X88972771Y-68967380D02*
X89010866Y-69043571D01*
X99655847Y-82092295D02*
X99655847Y-82663723D01*
X99655847Y-82663723D02*
X99617752Y-82778009D01*
X99617752Y-82778009D02*
X99541561Y-82854200D01*
X99541561Y-82854200D02*
X99427276Y-82892295D01*
X99427276Y-82892295D02*
X99351085Y-82892295D01*
X99998704Y-82168485D02*
X100036800Y-82130390D01*
X100036800Y-82130390D02*
X100112990Y-82092295D01*
X100112990Y-82092295D02*
X100303466Y-82092295D01*
X100303466Y-82092295D02*
X100379657Y-82130390D01*
X100379657Y-82130390D02*
X100417752Y-82168485D01*
X100417752Y-82168485D02*
X100455847Y-82244676D01*
X100455847Y-82244676D02*
X100455847Y-82320866D01*
X100455847Y-82320866D02*
X100417752Y-82435152D01*
X100417752Y-82435152D02*
X99960609Y-82892295D01*
X99960609Y-82892295D02*
X100455847Y-82892295D01*
X107152295Y-71710475D02*
X106352295Y-71710475D01*
X106352295Y-71710475D02*
X106352295Y-71519999D01*
X106352295Y-71519999D02*
X106390390Y-71405713D01*
X106390390Y-71405713D02*
X106466580Y-71329523D01*
X106466580Y-71329523D02*
X106542771Y-71291428D01*
X106542771Y-71291428D02*
X106695152Y-71253332D01*
X106695152Y-71253332D02*
X106809438Y-71253332D01*
X106809438Y-71253332D02*
X106961819Y-71291428D01*
X106961819Y-71291428D02*
X107038009Y-71329523D01*
X107038009Y-71329523D02*
X107114200Y-71405713D01*
X107114200Y-71405713D02*
X107152295Y-71519999D01*
X107152295Y-71519999D02*
X107152295Y-71710475D01*
X107152295Y-70491428D02*
X107152295Y-70948571D01*
X107152295Y-70719999D02*
X106352295Y-70719999D01*
X106352295Y-70719999D02*
X106466580Y-70796190D01*
X106466580Y-70796190D02*
X106542771Y-70872380D01*
X106542771Y-70872380D02*
X106580866Y-70948571D01*
X89468604Y-71888332D02*
X89506700Y-71926428D01*
X89506700Y-71926428D02*
X89544795Y-72040713D01*
X89544795Y-72040713D02*
X89544795Y-72116904D01*
X89544795Y-72116904D02*
X89506700Y-72231190D01*
X89506700Y-72231190D02*
X89430509Y-72307380D01*
X89430509Y-72307380D02*
X89354319Y-72345475D01*
X89354319Y-72345475D02*
X89201938Y-72383571D01*
X89201938Y-72383571D02*
X89087652Y-72383571D01*
X89087652Y-72383571D02*
X88935271Y-72345475D01*
X88935271Y-72345475D02*
X88859080Y-72307380D01*
X88859080Y-72307380D02*
X88782890Y-72231190D01*
X88782890Y-72231190D02*
X88744795Y-72116904D01*
X88744795Y-72116904D02*
X88744795Y-72040713D01*
X88744795Y-72040713D02*
X88782890Y-71926428D01*
X88782890Y-71926428D02*
X88820985Y-71888332D01*
X88744795Y-71621666D02*
X88744795Y-71126428D01*
X88744795Y-71126428D02*
X89049557Y-71393094D01*
X89049557Y-71393094D02*
X89049557Y-71278809D01*
X89049557Y-71278809D02*
X89087652Y-71202618D01*
X89087652Y-71202618D02*
X89125747Y-71164523D01*
X89125747Y-71164523D02*
X89201938Y-71126428D01*
X89201938Y-71126428D02*
X89392414Y-71126428D01*
X89392414Y-71126428D02*
X89468604Y-71164523D01*
X89468604Y-71164523D02*
X89506700Y-71202618D01*
X89506700Y-71202618D02*
X89544795Y-71278809D01*
X89544795Y-71278809D02*
X89544795Y-71507380D01*
X89544795Y-71507380D02*
X89506700Y-71583571D01*
X89506700Y-71583571D02*
X89468604Y-71621666D01*
X78212295Y-66173332D02*
X77831342Y-66439999D01*
X78212295Y-66630475D02*
X77412295Y-66630475D01*
X77412295Y-66630475D02*
X77412295Y-66325713D01*
X77412295Y-66325713D02*
X77450390Y-66249523D01*
X77450390Y-66249523D02*
X77488485Y-66211428D01*
X77488485Y-66211428D02*
X77564676Y-66173332D01*
X77564676Y-66173332D02*
X77678961Y-66173332D01*
X77678961Y-66173332D02*
X77755152Y-66211428D01*
X77755152Y-66211428D02*
X77793247Y-66249523D01*
X77793247Y-66249523D02*
X77831342Y-66325713D01*
X77831342Y-66325713D02*
X77831342Y-66630475D01*
X77488485Y-65868571D02*
X77450390Y-65830475D01*
X77450390Y-65830475D02*
X77412295Y-65754285D01*
X77412295Y-65754285D02*
X77412295Y-65563809D01*
X77412295Y-65563809D02*
X77450390Y-65487618D01*
X77450390Y-65487618D02*
X77488485Y-65449523D01*
X77488485Y-65449523D02*
X77564676Y-65411428D01*
X77564676Y-65411428D02*
X77640866Y-65411428D01*
X77640866Y-65411428D02*
X77755152Y-65449523D01*
X77755152Y-65449523D02*
X78212295Y-65906666D01*
X78212295Y-65906666D02*
X78212295Y-65411428D01*
X109125000Y-87992295D02*
X108744048Y-87992295D01*
X108744048Y-87992295D02*
X108744048Y-87192295D01*
X109848810Y-87916104D02*
X109810714Y-87954200D01*
X109810714Y-87954200D02*
X109696429Y-87992295D01*
X109696429Y-87992295D02*
X109620238Y-87992295D01*
X109620238Y-87992295D02*
X109505952Y-87954200D01*
X109505952Y-87954200D02*
X109429762Y-87878009D01*
X109429762Y-87878009D02*
X109391667Y-87801819D01*
X109391667Y-87801819D02*
X109353571Y-87649438D01*
X109353571Y-87649438D02*
X109353571Y-87535152D01*
X109353571Y-87535152D02*
X109391667Y-87382771D01*
X109391667Y-87382771D02*
X109429762Y-87306580D01*
X109429762Y-87306580D02*
X109505952Y-87230390D01*
X109505952Y-87230390D02*
X109620238Y-87192295D01*
X109620238Y-87192295D02*
X109696429Y-87192295D01*
X109696429Y-87192295D02*
X109810714Y-87230390D01*
X109810714Y-87230390D02*
X109848810Y-87268485D01*
X110191667Y-87992295D02*
X110191667Y-87192295D01*
X110191667Y-87192295D02*
X110382143Y-87192295D01*
X110382143Y-87192295D02*
X110496429Y-87230390D01*
X110496429Y-87230390D02*
X110572619Y-87306580D01*
X110572619Y-87306580D02*
X110610714Y-87382771D01*
X110610714Y-87382771D02*
X110648810Y-87535152D01*
X110648810Y-87535152D02*
X110648810Y-87649438D01*
X110648810Y-87649438D02*
X110610714Y-87801819D01*
X110610714Y-87801819D02*
X110572619Y-87878009D01*
X110572619Y-87878009D02*
X110496429Y-87954200D01*
X110496429Y-87954200D02*
X110382143Y-87992295D01*
X110382143Y-87992295D02*
X110191667Y-87992295D01*
X110801191Y-88068485D02*
X111410714Y-88068485D01*
X111486905Y-87192295D02*
X111753572Y-87992295D01*
X111753572Y-87992295D02*
X112020238Y-87192295D01*
X112286905Y-87992295D02*
X112286905Y-87192295D01*
X112286905Y-87192295D02*
X112477381Y-87192295D01*
X112477381Y-87192295D02*
X112591667Y-87230390D01*
X112591667Y-87230390D02*
X112667857Y-87306580D01*
X112667857Y-87306580D02*
X112705952Y-87382771D01*
X112705952Y-87382771D02*
X112744048Y-87535152D01*
X112744048Y-87535152D02*
X112744048Y-87649438D01*
X112744048Y-87649438D02*
X112705952Y-87801819D01*
X112705952Y-87801819D02*
X112667857Y-87878009D01*
X112667857Y-87878009D02*
X112591667Y-87954200D01*
X112591667Y-87954200D02*
X112477381Y-87992295D01*
X112477381Y-87992295D02*
X112286905Y-87992295D01*
X113086905Y-87992295D02*
X113086905Y-87192295D01*
X113086905Y-87192295D02*
X113277381Y-87192295D01*
X113277381Y-87192295D02*
X113391667Y-87230390D01*
X113391667Y-87230390D02*
X113467857Y-87306580D01*
X113467857Y-87306580D02*
X113505952Y-87382771D01*
X113505952Y-87382771D02*
X113544048Y-87535152D01*
X113544048Y-87535152D02*
X113544048Y-87649438D01*
X113544048Y-87649438D02*
X113505952Y-87801819D01*
X113505952Y-87801819D02*
X113467857Y-87878009D01*
X113467857Y-87878009D02*
X113391667Y-87954200D01*
X113391667Y-87954200D02*
X113277381Y-87992295D01*
X113277381Y-87992295D02*
X113086905Y-87992295D01*
X77708214Y-61957295D02*
X77708214Y-61157295D01*
X77708214Y-61157295D02*
X78165357Y-61957295D01*
X78165357Y-61957295D02*
X78165357Y-61157295D01*
X79003452Y-61957295D02*
X78736785Y-61576342D01*
X78546309Y-61957295D02*
X78546309Y-61157295D01*
X78546309Y-61157295D02*
X78851071Y-61157295D01*
X78851071Y-61157295D02*
X78927261Y-61195390D01*
X78927261Y-61195390D02*
X78965356Y-61233485D01*
X78965356Y-61233485D02*
X79003452Y-61309676D01*
X79003452Y-61309676D02*
X79003452Y-61423961D01*
X79003452Y-61423961D02*
X78965356Y-61500152D01*
X78965356Y-61500152D02*
X78927261Y-61538247D01*
X78927261Y-61538247D02*
X78851071Y-61576342D01*
X78851071Y-61576342D02*
X78546309Y-61576342D01*
X79308213Y-61919200D02*
X79422499Y-61957295D01*
X79422499Y-61957295D02*
X79612975Y-61957295D01*
X79612975Y-61957295D02*
X79689166Y-61919200D01*
X79689166Y-61919200D02*
X79727261Y-61881104D01*
X79727261Y-61881104D02*
X79765356Y-61804914D01*
X79765356Y-61804914D02*
X79765356Y-61728723D01*
X79765356Y-61728723D02*
X79727261Y-61652533D01*
X79727261Y-61652533D02*
X79689166Y-61614438D01*
X79689166Y-61614438D02*
X79612975Y-61576342D01*
X79612975Y-61576342D02*
X79460594Y-61538247D01*
X79460594Y-61538247D02*
X79384404Y-61500152D01*
X79384404Y-61500152D02*
X79346309Y-61462057D01*
X79346309Y-61462057D02*
X79308213Y-61385866D01*
X79308213Y-61385866D02*
X79308213Y-61309676D01*
X79308213Y-61309676D02*
X79346309Y-61233485D01*
X79346309Y-61233485D02*
X79384404Y-61195390D01*
X79384404Y-61195390D02*
X79460594Y-61157295D01*
X79460594Y-61157295D02*
X79651071Y-61157295D01*
X79651071Y-61157295D02*
X79765356Y-61195390D01*
X79993928Y-61157295D02*
X80451071Y-61157295D01*
X80222499Y-61957295D02*
X80222499Y-61157295D01*
X142724285Y-78671009D02*
X142867142Y-78718628D01*
X142867142Y-78718628D02*
X142914761Y-78766247D01*
X142914761Y-78766247D02*
X142962380Y-78861485D01*
X142962380Y-78861485D02*
X142962380Y-79004342D01*
X142962380Y-79004342D02*
X142914761Y-79099580D01*
X142914761Y-79099580D02*
X142867142Y-79147200D01*
X142867142Y-79147200D02*
X142771904Y-79194819D01*
X142771904Y-79194819D02*
X142390952Y-79194819D01*
X142390952Y-79194819D02*
X142390952Y-78194819D01*
X142390952Y-78194819D02*
X142724285Y-78194819D01*
X142724285Y-78194819D02*
X142819523Y-78242438D01*
X142819523Y-78242438D02*
X142867142Y-78290057D01*
X142867142Y-78290057D02*
X142914761Y-78385295D01*
X142914761Y-78385295D02*
X142914761Y-78480533D01*
X142914761Y-78480533D02*
X142867142Y-78575771D01*
X142867142Y-78575771D02*
X142819523Y-78623390D01*
X142819523Y-78623390D02*
X142724285Y-78671009D01*
X142724285Y-78671009D02*
X142390952Y-78671009D01*
X143248095Y-78194819D02*
X143819523Y-78194819D01*
X143533809Y-79194819D02*
X143533809Y-78194819D01*
X144676666Y-79194819D02*
X144105238Y-79194819D01*
X144390952Y-79194819D02*
X144390952Y-78194819D01*
X144390952Y-78194819D02*
X144295714Y-78337676D01*
X144295714Y-78337676D02*
X144200476Y-78432914D01*
X144200476Y-78432914D02*
X144105238Y-78480533D01*
X103575000Y-83547295D02*
X103308333Y-83166342D01*
X103117857Y-83547295D02*
X103117857Y-82747295D01*
X103117857Y-82747295D02*
X103422619Y-82747295D01*
X103422619Y-82747295D02*
X103498809Y-82785390D01*
X103498809Y-82785390D02*
X103536904Y-82823485D01*
X103536904Y-82823485D02*
X103575000Y-82899676D01*
X103575000Y-82899676D02*
X103575000Y-83013961D01*
X103575000Y-83013961D02*
X103536904Y-83090152D01*
X103536904Y-83090152D02*
X103498809Y-83128247D01*
X103498809Y-83128247D02*
X103422619Y-83166342D01*
X103422619Y-83166342D02*
X103117857Y-83166342D01*
X103917857Y-83128247D02*
X104184523Y-83128247D01*
X104298809Y-83547295D02*
X103917857Y-83547295D01*
X103917857Y-83547295D02*
X103917857Y-82747295D01*
X103917857Y-82747295D02*
X104298809Y-82747295D01*
X104603571Y-83509200D02*
X104717857Y-83547295D01*
X104717857Y-83547295D02*
X104908333Y-83547295D01*
X104908333Y-83547295D02*
X104984524Y-83509200D01*
X104984524Y-83509200D02*
X105022619Y-83471104D01*
X105022619Y-83471104D02*
X105060714Y-83394914D01*
X105060714Y-83394914D02*
X105060714Y-83318723D01*
X105060714Y-83318723D02*
X105022619Y-83242533D01*
X105022619Y-83242533D02*
X104984524Y-83204438D01*
X104984524Y-83204438D02*
X104908333Y-83166342D01*
X104908333Y-83166342D02*
X104755952Y-83128247D01*
X104755952Y-83128247D02*
X104679762Y-83090152D01*
X104679762Y-83090152D02*
X104641667Y-83052057D01*
X104641667Y-83052057D02*
X104603571Y-82975866D01*
X104603571Y-82975866D02*
X104603571Y-82899676D01*
X104603571Y-82899676D02*
X104641667Y-82823485D01*
X104641667Y-82823485D02*
X104679762Y-82785390D01*
X104679762Y-82785390D02*
X104755952Y-82747295D01*
X104755952Y-82747295D02*
X104946429Y-82747295D01*
X104946429Y-82747295D02*
X105060714Y-82785390D01*
X105289286Y-82747295D02*
X105746429Y-82747295D01*
X105517857Y-83547295D02*
X105517857Y-82747295D01*
X106279762Y-83128247D02*
X106394048Y-83166342D01*
X106394048Y-83166342D02*
X106432143Y-83204438D01*
X106432143Y-83204438D02*
X106470239Y-83280628D01*
X106470239Y-83280628D02*
X106470239Y-83394914D01*
X106470239Y-83394914D02*
X106432143Y-83471104D01*
X106432143Y-83471104D02*
X106394048Y-83509200D01*
X106394048Y-83509200D02*
X106317858Y-83547295D01*
X106317858Y-83547295D02*
X106013096Y-83547295D01*
X106013096Y-83547295D02*
X106013096Y-82747295D01*
X106013096Y-82747295D02*
X106279762Y-82747295D01*
X106279762Y-82747295D02*
X106355953Y-82785390D01*
X106355953Y-82785390D02*
X106394048Y-82823485D01*
X106394048Y-82823485D02*
X106432143Y-82899676D01*
X106432143Y-82899676D02*
X106432143Y-82975866D01*
X106432143Y-82975866D02*
X106394048Y-83052057D01*
X106394048Y-83052057D02*
X106355953Y-83090152D01*
X106355953Y-83090152D02*
X106279762Y-83128247D01*
X106279762Y-83128247D02*
X106013096Y-83128247D01*
X81048214Y-73926104D02*
X81010118Y-73964200D01*
X81010118Y-73964200D02*
X80895833Y-74002295D01*
X80895833Y-74002295D02*
X80819642Y-74002295D01*
X80819642Y-74002295D02*
X80705356Y-73964200D01*
X80705356Y-73964200D02*
X80629166Y-73888009D01*
X80629166Y-73888009D02*
X80591071Y-73811819D01*
X80591071Y-73811819D02*
X80552975Y-73659438D01*
X80552975Y-73659438D02*
X80552975Y-73545152D01*
X80552975Y-73545152D02*
X80591071Y-73392771D01*
X80591071Y-73392771D02*
X80629166Y-73316580D01*
X80629166Y-73316580D02*
X80705356Y-73240390D01*
X80705356Y-73240390D02*
X80819642Y-73202295D01*
X80819642Y-73202295D02*
X80895833Y-73202295D01*
X80895833Y-73202295D02*
X81010118Y-73240390D01*
X81010118Y-73240390D02*
X81048214Y-73278485D01*
X81810118Y-74002295D02*
X81352975Y-74002295D01*
X81581547Y-74002295D02*
X81581547Y-73202295D01*
X81581547Y-73202295D02*
X81505356Y-73316580D01*
X81505356Y-73316580D02*
X81429166Y-73392771D01*
X81429166Y-73392771D02*
X81352975Y-73430866D01*
X82076785Y-73202295D02*
X82572023Y-73202295D01*
X82572023Y-73202295D02*
X82305357Y-73507057D01*
X82305357Y-73507057D02*
X82419642Y-73507057D01*
X82419642Y-73507057D02*
X82495833Y-73545152D01*
X82495833Y-73545152D02*
X82533928Y-73583247D01*
X82533928Y-73583247D02*
X82572023Y-73659438D01*
X82572023Y-73659438D02*
X82572023Y-73849914D01*
X82572023Y-73849914D02*
X82533928Y-73926104D01*
X82533928Y-73926104D02*
X82495833Y-73964200D01*
X82495833Y-73964200D02*
X82419642Y-74002295D01*
X82419642Y-74002295D02*
X82191071Y-74002295D01*
X82191071Y-74002295D02*
X82114880Y-73964200D01*
X82114880Y-73964200D02*
X82076785Y-73926104D01*
X91560714Y-79026104D02*
X91522618Y-79064200D01*
X91522618Y-79064200D02*
X91408333Y-79102295D01*
X91408333Y-79102295D02*
X91332142Y-79102295D01*
X91332142Y-79102295D02*
X91217856Y-79064200D01*
X91217856Y-79064200D02*
X91141666Y-78988009D01*
X91141666Y-78988009D02*
X91103571Y-78911819D01*
X91103571Y-78911819D02*
X91065475Y-78759438D01*
X91065475Y-78759438D02*
X91065475Y-78645152D01*
X91065475Y-78645152D02*
X91103571Y-78492771D01*
X91103571Y-78492771D02*
X91141666Y-78416580D01*
X91141666Y-78416580D02*
X91217856Y-78340390D01*
X91217856Y-78340390D02*
X91332142Y-78302295D01*
X91332142Y-78302295D02*
X91408333Y-78302295D01*
X91408333Y-78302295D02*
X91522618Y-78340390D01*
X91522618Y-78340390D02*
X91560714Y-78378485D01*
X92322618Y-79102295D02*
X91865475Y-79102295D01*
X92094047Y-79102295D02*
X92094047Y-78302295D01*
X92094047Y-78302295D02*
X92017856Y-78416580D01*
X92017856Y-78416580D02*
X91941666Y-78492771D01*
X91941666Y-78492771D02*
X91865475Y-78530866D01*
X92703571Y-79102295D02*
X92855952Y-79102295D01*
X92855952Y-79102295D02*
X92932142Y-79064200D01*
X92932142Y-79064200D02*
X92970238Y-79026104D01*
X92970238Y-79026104D02*
X93046428Y-78911819D01*
X93046428Y-78911819D02*
X93084523Y-78759438D01*
X93084523Y-78759438D02*
X93084523Y-78454676D01*
X93084523Y-78454676D02*
X93046428Y-78378485D01*
X93046428Y-78378485D02*
X93008333Y-78340390D01*
X93008333Y-78340390D02*
X92932142Y-78302295D01*
X92932142Y-78302295D02*
X92779761Y-78302295D01*
X92779761Y-78302295D02*
X92703571Y-78340390D01*
X92703571Y-78340390D02*
X92665476Y-78378485D01*
X92665476Y-78378485D02*
X92627380Y-78454676D01*
X92627380Y-78454676D02*
X92627380Y-78645152D01*
X92627380Y-78645152D02*
X92665476Y-78721342D01*
X92665476Y-78721342D02*
X92703571Y-78759438D01*
X92703571Y-78759438D02*
X92779761Y-78797533D01*
X92779761Y-78797533D02*
X92932142Y-78797533D01*
X92932142Y-78797533D02*
X93008333Y-78759438D01*
X93008333Y-78759438D02*
X93046428Y-78721342D01*
X93046428Y-78721342D02*
X93084523Y-78645152D01*
X88385714Y-73946104D02*
X88347618Y-73984200D01*
X88347618Y-73984200D02*
X88233333Y-74022295D01*
X88233333Y-74022295D02*
X88157142Y-74022295D01*
X88157142Y-74022295D02*
X88042856Y-73984200D01*
X88042856Y-73984200D02*
X87966666Y-73908009D01*
X87966666Y-73908009D02*
X87928571Y-73831819D01*
X87928571Y-73831819D02*
X87890475Y-73679438D01*
X87890475Y-73679438D02*
X87890475Y-73565152D01*
X87890475Y-73565152D02*
X87928571Y-73412771D01*
X87928571Y-73412771D02*
X87966666Y-73336580D01*
X87966666Y-73336580D02*
X88042856Y-73260390D01*
X88042856Y-73260390D02*
X88157142Y-73222295D01*
X88157142Y-73222295D02*
X88233333Y-73222295D01*
X88233333Y-73222295D02*
X88347618Y-73260390D01*
X88347618Y-73260390D02*
X88385714Y-73298485D01*
X89147618Y-74022295D02*
X88690475Y-74022295D01*
X88919047Y-74022295D02*
X88919047Y-73222295D01*
X88919047Y-73222295D02*
X88842856Y-73336580D01*
X88842856Y-73336580D02*
X88766666Y-73412771D01*
X88766666Y-73412771D02*
X88690475Y-73450866D01*
X89833333Y-73222295D02*
X89680952Y-73222295D01*
X89680952Y-73222295D02*
X89604761Y-73260390D01*
X89604761Y-73260390D02*
X89566666Y-73298485D01*
X89566666Y-73298485D02*
X89490476Y-73412771D01*
X89490476Y-73412771D02*
X89452380Y-73565152D01*
X89452380Y-73565152D02*
X89452380Y-73869914D01*
X89452380Y-73869914D02*
X89490476Y-73946104D01*
X89490476Y-73946104D02*
X89528571Y-73984200D01*
X89528571Y-73984200D02*
X89604761Y-74022295D01*
X89604761Y-74022295D02*
X89757142Y-74022295D01*
X89757142Y-74022295D02*
X89833333Y-73984200D01*
X89833333Y-73984200D02*
X89871428Y-73946104D01*
X89871428Y-73946104D02*
X89909523Y-73869914D01*
X89909523Y-73869914D02*
X89909523Y-73679438D01*
X89909523Y-73679438D02*
X89871428Y-73603247D01*
X89871428Y-73603247D02*
X89833333Y-73565152D01*
X89833333Y-73565152D02*
X89757142Y-73527057D01*
X89757142Y-73527057D02*
X89604761Y-73527057D01*
X89604761Y-73527057D02*
X89528571Y-73565152D01*
X89528571Y-73565152D02*
X89490476Y-73603247D01*
X89490476Y-73603247D02*
X89452380Y-73679438D01*
%TO.C,R7*%
D13*
X101655436Y-67825000D02*
X102109564Y-67825000D01*
X101655436Y-69295000D02*
X102109564Y-69295000D01*
%TO.C,C2*%
X95308748Y-68480000D02*
X95831252Y-68480000D01*
X95308748Y-69950000D02*
X95831252Y-69950000D01*
%TO.C,SW1*%
X106120000Y-75005000D02*
X106120000Y-75105000D01*
X106120000Y-75005000D02*
X112320000Y-75005000D01*
X106120000Y-76605000D02*
X106120000Y-79605000D01*
X106120000Y-81205000D02*
X106120000Y-81105000D01*
X106120000Y-81205000D02*
X112320000Y-81205000D01*
X112320000Y-75105000D02*
X112320000Y-75005000D01*
X112320000Y-76605000D02*
X112320000Y-79605000D01*
X112320000Y-81205000D02*
X112320000Y-81105000D01*
%TO.C,C14*%
X80827500Y-81414252D02*
X80827500Y-80891748D01*
X82297500Y-81414252D02*
X82297500Y-80891748D01*
%TO.C,C8*%
X84081252Y-57050000D02*
X83558748Y-57050000D01*
X84081252Y-58520000D02*
X83558748Y-58520000D01*
%TO.C,C12*%
X91340000Y-76461252D02*
X91340000Y-75938748D01*
X92810000Y-76461252D02*
X92810000Y-75938748D01*
%TO.C,U1*%
X86842500Y-58600000D02*
X87292500Y-58600000D01*
X86842500Y-59050000D02*
X86842500Y-58600000D01*
X86842500Y-65820000D02*
X86842500Y-65370000D01*
X87292500Y-65820000D02*
X86842500Y-65820000D01*
X93612500Y-58600000D02*
X94062500Y-58600000D01*
X94062500Y-58600000D02*
X94062500Y-59050000D01*
X94062500Y-65370000D02*
X94062500Y-65820000D01*
X94062500Y-65820000D02*
X93612500Y-65820000D01*
X86202500Y-59050000D02*
X85862500Y-58580000D01*
X86542500Y-58580000D01*
X86202500Y-59050000D01*
G36*
X86202500Y-59050000D02*
G01*
X85862500Y-58580000D01*
X86542500Y-58580000D01*
X86202500Y-59050000D01*
G37*
%TO.C,J3*%
X93870000Y-44975000D02*
X93870000Y-50275000D01*
X104140000Y-44975000D02*
X93870000Y-44975000D01*
X104140000Y-44975000D02*
X104140000Y-47625000D01*
X104140000Y-47625000D02*
X106790000Y-47625000D01*
X105410000Y-44975000D02*
X106790000Y-44975000D01*
X106790000Y-44975000D02*
X106790000Y-46355000D01*
X106790000Y-47625000D02*
X106790000Y-50275000D01*
X106790000Y-50275000D02*
X93870000Y-50275000D01*
%TO.C,TP13*%
X112075000Y-85090000D02*
G75*
G02*
X110175000Y-85090000I-950000J0D01*
G01*
X110175000Y-85090000D02*
G75*
G02*
X112075000Y-85090000I950000J0D01*
G01*
%TO.C,R3*%
X87222064Y-54510000D02*
X86767936Y-54510000D01*
X87222064Y-55980000D02*
X86767936Y-55980000D01*
%TO.C,C4*%
X82450000Y-62471252D02*
X82450000Y-61948748D01*
X83920000Y-62471252D02*
X83920000Y-61948748D01*
%TO.C,TP2*%
X149540000Y-62230000D02*
G75*
G02*
X147640000Y-62230000I-950000J0D01*
G01*
X147640000Y-62230000D02*
G75*
G02*
X149540000Y-62230000I950000J0D01*
G01*
%TO.C,TP11*%
X105725000Y-89535000D02*
G75*
G02*
X103825000Y-89535000I-950000J0D01*
G01*
X103825000Y-89535000D02*
G75*
G02*
X105725000Y-89535000I950000J0D01*
G01*
%TO.C,C10*%
X83720000Y-81414252D02*
X83720000Y-80891748D01*
X85190000Y-81414252D02*
X85190000Y-80891748D01*
%TO.C,TP8*%
X79690000Y-59055000D02*
G75*
G02*
X77790000Y-59055000I-950000J0D01*
G01*
X77790000Y-59055000D02*
G75*
G02*
X79690000Y-59055000I950000J0D01*
G01*
%TO.C,C21*%
X133885000Y-62491252D02*
X133885000Y-61968748D01*
X135355000Y-62491252D02*
X135355000Y-61968748D01*
%TO.C,J1*%
X134505000Y-53450000D02*
X134505000Y-52070000D01*
X135885000Y-53450000D02*
X134505000Y-53450000D01*
X137155000Y-50690000D02*
X139805000Y-50690000D01*
X137155000Y-53450000D02*
X137155000Y-50690000D01*
X137155000Y-53450000D02*
X139805000Y-53450000D01*
X139805000Y-53450000D02*
X139805000Y-50690000D01*
%TO.C,R6*%
X84355000Y-70077064D02*
X84355000Y-69622936D01*
X85825000Y-70077064D02*
X85825000Y-69622936D01*
%TO.C,C17*%
X88800000Y-80891748D02*
X88800000Y-81414252D01*
X90270000Y-80891748D02*
X90270000Y-81414252D01*
%TO.C,C7*%
X71381252Y-75465000D02*
X70858748Y-75465000D01*
X71381252Y-76935000D02*
X70858748Y-76935000D01*
%TO.C,TP7*%
X108900000Y-59690000D02*
G75*
G02*
X107000000Y-59690000I-950000J0D01*
G01*
X107000000Y-59690000D02*
G75*
G02*
X108900000Y-59690000I950000J0D01*
G01*
%TO.C,C9*%
X83367500Y-76441252D02*
X83367500Y-75918748D01*
X84837500Y-76441252D02*
X84837500Y-75918748D01*
%TO.C,C18*%
X93880000Y-81521252D02*
X93880000Y-80998748D01*
X95350000Y-81521252D02*
X95350000Y-80998748D01*
%TO.C,FB1*%
X98500000Y-75309622D02*
X98500000Y-74510378D01*
X99620000Y-75309622D02*
X99620000Y-74510378D01*
%TO.C,TP1*%
X149540000Y-57150000D02*
G75*
G02*
X147640000Y-57150000I-950000J0D01*
G01*
X147640000Y-57150000D02*
G75*
G02*
X149540000Y-57150000I950000J0D01*
G01*
%TO.C,R4*%
X77167936Y-75445000D02*
X77622064Y-75445000D01*
X77167936Y-76915000D02*
X77622064Y-76915000D01*
%TO.C,TP14*%
X149540000Y-67310000D02*
G75*
G02*
X147640000Y-67310000I-950000J0D01*
G01*
X147640000Y-67310000D02*
G75*
G02*
X149540000Y-67310000I950000J0D01*
G01*
%TO.C,TP6*%
X108900000Y-64135000D02*
G75*
G02*
X107000000Y-64135000I-950000J0D01*
G01*
X107000000Y-64135000D02*
G75*
G02*
X108900000Y-64135000I950000J0D01*
G01*
%TO.C,C5*%
X82450000Y-65758748D02*
X82450000Y-66281252D01*
X83920000Y-65758748D02*
X83920000Y-66281252D01*
%TO.C,C20*%
X130710000Y-62491252D02*
X130710000Y-61968748D01*
X132180000Y-62491252D02*
X132180000Y-61968748D01*
%TO.C,C15*%
X86260000Y-81414252D02*
X86260000Y-80891748D01*
X87730000Y-81414252D02*
X87730000Y-80891748D01*
%TO.C,C6*%
X95271248Y-71020000D02*
X95793752Y-71020000D01*
X95271248Y-72490000D02*
X95793752Y-72490000D01*
%TO.C,U2*%
X59005000Y-66685000D02*
X60505000Y-66685000D01*
X59005000Y-68405000D02*
X60505000Y-68405000D01*
X58555000Y-66945000D02*
X58275000Y-66945000D01*
X58555000Y-66665000D01*
X58555000Y-66945000D01*
G36*
X58555000Y-66945000D02*
G01*
X58275000Y-66945000D01*
X58555000Y-66665000D01*
X58555000Y-66945000D01*
G37*
%TO.C,J4*%
X112285000Y-62848000D02*
X112285000Y-61468000D01*
X113665000Y-62848000D02*
X112285000Y-62848000D01*
X114935000Y-60088000D02*
X127745000Y-60088000D01*
X114935000Y-62848000D02*
X114935000Y-60088000D01*
X114935000Y-62848000D02*
X127745000Y-62848000D01*
X127745000Y-62848000D02*
X127745000Y-60088000D01*
%TO.C,C11*%
X85625000Y-76461252D02*
X85625000Y-75938748D01*
X87095000Y-76461252D02*
X87095000Y-75938748D01*
%TO.C,R1*%
X75465000Y-61187064D02*
X75465000Y-60732936D01*
X76935000Y-61187064D02*
X76935000Y-60732936D01*
%TO.C,TP3*%
X103820000Y-64135000D02*
G75*
G02*
X101920000Y-64135000I-950000J0D01*
G01*
X101920000Y-64135000D02*
G75*
G02*
X103820000Y-64135000I950000J0D01*
G01*
%TO.C,TP5*%
X103820000Y-59690000D02*
G75*
G02*
X101920000Y-59690000I-950000J0D01*
G01*
X101920000Y-59690000D02*
G75*
G02*
X103820000Y-59690000I950000J0D01*
G01*
%TO.C,TP9*%
X79952500Y-69830000D02*
G75*
G02*
X78052500Y-69830000I-950000J0D01*
G01*
X78052500Y-69830000D02*
G75*
G02*
X79952500Y-69830000I950000J0D01*
G01*
%TO.C,R5*%
X86260000Y-69602936D02*
X86260000Y-70057064D01*
X87730000Y-69602936D02*
X87730000Y-70057064D01*
%TO.C,C1*%
X92021252Y-68480000D02*
X91498748Y-68480000D01*
X92021252Y-69950000D02*
X91498748Y-69950000D01*
%TO.C,J2*%
D14*
X79132520Y-88027501D02*
X79132520Y-90210000D01*
X79132520Y-90210000D02*
X99232480Y-90210000D01*
X81672520Y-83078000D02*
X82688520Y-84271800D01*
X81672520Y-83078000D02*
X83704520Y-83078000D01*
X82215013Y-85010000D02*
X79132520Y-85010000D01*
X83704520Y-83078000D02*
X82688520Y-84271800D01*
X99232480Y-85010000D02*
X96150012Y-85010000D01*
X99232480Y-90210000D02*
X99232480Y-88027501D01*
%TO.C,D1*%
D13*
X107450000Y-70385000D02*
X108100000Y-70385000D01*
X107450000Y-71855000D02*
X107450000Y-70385000D01*
X108750000Y-71855000D02*
X108420000Y-71855000D01*
X109070000Y-70385000D02*
X109720000Y-70385000D01*
X109720000Y-70385000D02*
X109720000Y-71855000D01*
X108425000Y-72300000D02*
X108615000Y-72160000D01*
X108615000Y-72440000D01*
X108425000Y-72300000D01*
G36*
X108615000Y-72440000D02*
G01*
X108425000Y-72300000D01*
X108615000Y-72160000D01*
X108615000Y-72440000D01*
G37*
%TO.C,C3*%
X91983752Y-71020000D02*
X91461248Y-71020000D01*
X91983752Y-72490000D02*
X91461248Y-72490000D01*
%TO.C,R2*%
X75465000Y-65812936D02*
X75465000Y-66267064D01*
X76935000Y-65812936D02*
X76935000Y-66267064D01*
%TO.C,TP10*%
X112075000Y-89535000D02*
G75*
G02*
X110175000Y-89535000I-950000J0D01*
G01*
X110175000Y-89535000D02*
G75*
G02*
X112075000Y-89535000I950000J0D01*
G01*
%TO.C,TP4*%
X79972500Y-63500000D02*
G75*
G02*
X78072500Y-63500000I-950000J0D01*
G01*
X78072500Y-63500000D02*
G75*
G02*
X79972500Y-63500000I950000J0D01*
G01*
%TO.C,BT1*%
X118760000Y-73280000D02*
X118760000Y-75740000D01*
X118760000Y-81740000D02*
X118760000Y-82370000D01*
X118760000Y-82370000D02*
X120200000Y-86320000D01*
X120840000Y-71200000D02*
X118760000Y-73280000D01*
X124340000Y-71200000D02*
X120840000Y-71200000D01*
X138240000Y-71200000D02*
X134740000Y-71200000D01*
X138240000Y-71200000D02*
X140320000Y-73280000D01*
X140320000Y-73280000D02*
X140320000Y-75740000D01*
X140320000Y-81740000D02*
X140320000Y-82370000D01*
X140320000Y-82370000D02*
X138880000Y-86320000D01*
X123536646Y-87306530D02*
G75*
G02*
X120200000Y-86320000I-1306646J1716531D01*
G01*
X138865243Y-86328169D02*
G75*
G02*
X135540000Y-87290000I-2015243J738169D01*
G01*
%TO.C,TP12*%
X105725000Y-85090000D02*
G75*
G02*
X103825000Y-85090000I-950000J0D01*
G01*
X103825000Y-85090000D02*
G75*
G02*
X105725000Y-85090000I950000J0D01*
G01*
%TO.C,C13*%
X80827500Y-76441252D02*
X80827500Y-75918748D01*
X82297500Y-76441252D02*
X82297500Y-75918748D01*
%TO.C,C19*%
X91340000Y-81414252D02*
X91340000Y-80891748D01*
X92810000Y-81414252D02*
X92810000Y-80891748D01*
%TO.C,C16*%
X88165000Y-76461252D02*
X88165000Y-75938748D01*
X89635000Y-76461252D02*
X89635000Y-75938748D01*
%TD*%
M02*
