%TF.GenerationSoftware,KiCad,Pcbnew,10.0.3*%
%TF.CreationDate,2026-07-20T09:59:09-07:00*%
%TF.ProjectId,SHT41-Sensor-Breakout,53485434-312d-4536-956e-736f722d4272,A*%
%TF.SameCoordinates,Original*%
%TF.FileFunction,Soldermask,Top*%
%TF.FilePolarity,Negative*%
%FSLAX46Y46*%
G04 Gerber Fmt 4.6, Leading zero omitted, Abs format (unit mm)*
G04 Created by KiCad (PCBNEW 10.0.3) date 2026-07-20 09:59:09*
%MOMM*%
%LPD*%
G01*
G04 APERTURE LIST*
G04 Aperture macros list*
%AMRoundRect*
0 Rectangle with rounded corners*
0 $1 Rounding radius*
0 $2 $3 $4 $5 $6 $7 $8 $9 X,Y pos of 4 corners*
0 Add a 4 corners polygon primitive as box body*
4,1,4,$2,$3,$4,$5,$6,$7,$8,$9,$2,$3,0*
0 Add four circle primitives for the rounded corners*
1,1,$1+$1,$2,$3*
1,1,$1+$1,$4,$5*
1,1,$1+$1,$6,$7*
1,1,$1+$1,$8,$9*
0 Add four rect primitives between the rounded corners*
20,1,$1+$1,$2,$3,$4,$5,0*
20,1,$1+$1,$4,$5,$6,$7,0*
20,1,$1+$1,$6,$7,$8,$9,0*
20,1,$1+$1,$8,$9,$2,$3,0*%
G04 Aperture macros list end*
%ADD10C,0.000000*%
%ADD11RoundRect,0.250000X-0.262500X-0.450000X0.262500X-0.450000X0.262500X0.450000X-0.262500X0.450000X0*%
%ADD12RoundRect,0.250000X-0.250000X-0.475000X0.250000X-0.475000X0.250000X0.475000X-0.250000X0.475000X0*%
%ADD13RoundRect,0.250000X-0.800000X-0.450000X0.800000X-0.450000X0.800000X0.450000X-0.800000X0.450000X0*%
%ADD14C,3.200000*%
%ADD15RoundRect,0.250000X0.475000X-0.250000X0.475000X0.250000X-0.475000X0.250000X-0.475000X-0.250000X0*%
%ADD16RoundRect,0.250000X0.250000X0.475000X-0.250000X0.475000X-0.250000X-0.475000X0.250000X-0.475000X0*%
%ADD17RoundRect,0.075000X-0.662500X-0.075000X0.662500X-0.075000X0.662500X0.075000X-0.662500X0.075000X0*%
%ADD18RoundRect,0.075000X-0.075000X-0.662500X0.075000X-0.662500X0.075000X0.662500X-0.075000X0.662500X0*%
%ADD19R,1.700000X1.700000*%
%ADD20C,1.700000*%
%ADD21C,1.500000*%
%ADD22RoundRect,0.250000X0.262500X0.450000X-0.262500X0.450000X-0.262500X-0.450000X0.262500X-0.450000X0*%
%ADD23RoundRect,0.250000X0.450000X-0.262500X0.450000X0.262500X-0.450000X0.262500X-0.450000X-0.262500X0*%
%ADD24RoundRect,0.250000X-0.475000X0.250000X-0.475000X-0.250000X0.475000X-0.250000X0.475000X0.250000X0*%
%ADD25RoundRect,0.218750X0.381250X-0.218750X0.381250X0.218750X-0.381250X0.218750X-0.381250X-0.218750X0*%
%ADD26R,0.500000X0.300000*%
%ADD27RoundRect,0.250000X-0.450000X0.262500X-0.450000X-0.262500X0.450000X-0.262500X0.450000X0.262500X0*%
%ADD28R,0.300000X0.800000*%
%ADD29R,1.098096X2.204545*%
%ADD30R,1.300000X3.049999*%
%ADD31R,1.097753X2.237200*%
%ADD32RoundRect,0.112500X0.112500X-0.350000X0.112500X0.350000X-0.112500X0.350000X-0.112500X-0.350000X0*%
%ADD33R,1.270000X5.080000*%
%ADD34C,17.800000*%
G04 APERTURE END LIST*
D10*
%TO.C,J2*%
G36*
X80132500Y-87710000D02*
G01*
X79032500Y-87710000D01*
X79032500Y-85510000D01*
X80132500Y-85510000D01*
X80132500Y-87710000D01*
G37*
G36*
X99332500Y-87710000D02*
G01*
X98232500Y-87710000D01*
X98232500Y-85510000D01*
X99332500Y-85510000D01*
X99332500Y-87710000D01*
G37*
%TD*%
D11*
%TO.C,R7*%
X100970000Y-68560000D03*
X102795000Y-68560000D03*
%TD*%
D12*
%TO.C,C2*%
X94620000Y-69215000D03*
X96520000Y-69215000D03*
%TD*%
D13*
%TO.C,SW1*%
X104670000Y-75855000D03*
X113770000Y-75855000D03*
X104670000Y-80355000D03*
X113770000Y-80355000D03*
%TD*%
D14*
%TO.C,H4*%
X147320000Y-88265000D03*
%TD*%
D15*
%TO.C,C14*%
X81562500Y-82103000D03*
X81562500Y-80203000D03*
%TD*%
D16*
%TO.C,C8*%
X84770000Y-57785000D03*
X82870000Y-57785000D03*
%TD*%
D14*
%TO.C,H2*%
X147320000Y-46355000D03*
%TD*%
D15*
%TO.C,C12*%
X92075000Y-77150000D03*
X92075000Y-75250000D03*
%TD*%
D17*
%TO.C,U1*%
X86290000Y-59460000D03*
X86290000Y-59960000D03*
X86290000Y-60460000D03*
X86290000Y-60960000D03*
X86290000Y-61460000D03*
X86290000Y-61960000D03*
X86290000Y-62460000D03*
X86290000Y-62960000D03*
X86290000Y-63460000D03*
X86290000Y-63960000D03*
X86290000Y-64460000D03*
X86290000Y-64960000D03*
D18*
X87702500Y-66372500D03*
X88202500Y-66372500D03*
X88702500Y-66372500D03*
X89202500Y-66372500D03*
X89702500Y-66372500D03*
X90202500Y-66372500D03*
X90702500Y-66372500D03*
X91202500Y-66372500D03*
X91702500Y-66372500D03*
X92202500Y-66372500D03*
X92702500Y-66372500D03*
X93202500Y-66372500D03*
D17*
X94615000Y-64960000D03*
X94615000Y-64460000D03*
X94615000Y-63960000D03*
X94615000Y-63460000D03*
X94615000Y-62960000D03*
X94615000Y-62460000D03*
X94615000Y-61960000D03*
X94615000Y-61460000D03*
X94615000Y-60960000D03*
X94615000Y-60460000D03*
X94615000Y-59960000D03*
X94615000Y-59460000D03*
D18*
X93202500Y-58047500D03*
X92702500Y-58047500D03*
X92202500Y-58047500D03*
X91702500Y-58047500D03*
X91202500Y-58047500D03*
X90702500Y-58047500D03*
X90202500Y-58047500D03*
X89702500Y-58047500D03*
X89202500Y-58047500D03*
X88702500Y-58047500D03*
X88202500Y-58047500D03*
X87702500Y-58047500D03*
%TD*%
D19*
%TO.C,J3*%
X105410000Y-46355000D03*
D20*
X105410000Y-48895000D03*
X102870000Y-46355000D03*
X102870000Y-48895000D03*
X100330000Y-46355000D03*
X100330000Y-48895000D03*
X97790000Y-46355000D03*
X97790000Y-48895000D03*
X95250000Y-46355000D03*
X95250000Y-48895000D03*
%TD*%
D21*
%TO.C,TP13*%
X111125000Y-85090000D03*
%TD*%
D22*
%TO.C,R3*%
X87907500Y-55245000D03*
X86082500Y-55245000D03*
%TD*%
D15*
%TO.C,C4*%
X83185000Y-63160000D03*
X83185000Y-61260000D03*
%TD*%
D21*
%TO.C,TP2*%
X148590000Y-62230000D03*
%TD*%
%TO.C,TP11*%
X104775000Y-89535000D03*
%TD*%
D15*
%TO.C,C10*%
X84455000Y-82103000D03*
X84455000Y-80203000D03*
%TD*%
D21*
%TO.C,TP8*%
X78740000Y-59055000D03*
%TD*%
D15*
%TO.C,C21*%
X134620000Y-63180000D03*
X134620000Y-61280000D03*
%TD*%
D19*
%TO.C,J1*%
X135885000Y-52070000D03*
D20*
X138425000Y-52070000D03*
%TD*%
D23*
%TO.C,R6*%
X85090000Y-70762500D03*
X85090000Y-68937500D03*
%TD*%
D24*
%TO.C,C17*%
X89535000Y-80203000D03*
X89535000Y-82103000D03*
%TD*%
D16*
%TO.C,C7*%
X72070000Y-76200000D03*
X70170000Y-76200000D03*
%TD*%
D21*
%TO.C,TP7*%
X107950000Y-59690000D03*
%TD*%
D15*
%TO.C,C9*%
X84102500Y-77130000D03*
X84102500Y-75230000D03*
%TD*%
D14*
%TO.C,H1*%
X59055000Y-46355000D03*
%TD*%
D15*
%TO.C,C18*%
X94615000Y-82210000D03*
X94615000Y-80310000D03*
%TD*%
D25*
%TO.C,FB1*%
X99060000Y-75972500D03*
X99060000Y-73847500D03*
%TD*%
D21*
%TO.C,TP1*%
X148590000Y-57150000D03*
%TD*%
D11*
%TO.C,R4*%
X76482500Y-76180000D03*
X78307500Y-76180000D03*
%TD*%
D21*
%TO.C,TP14*%
X148590000Y-67310000D03*
%TD*%
%TO.C,TP6*%
X107950000Y-64135000D03*
%TD*%
D24*
%TO.C,C5*%
X83185000Y-65070000D03*
X83185000Y-66970000D03*
%TD*%
D15*
%TO.C,C20*%
X131445000Y-63180000D03*
X131445000Y-61280000D03*
%TD*%
%TO.C,C15*%
X86995000Y-82103000D03*
X86995000Y-80203000D03*
%TD*%
D12*
%TO.C,C6*%
X94582500Y-71755000D03*
X96482500Y-71755000D03*
%TD*%
D26*
%TO.C,U2*%
X59055000Y-67145000D03*
X59055000Y-67945000D03*
X60455000Y-67945000D03*
X60455000Y-67145000D03*
%TD*%
D19*
%TO.C,J4*%
X113665000Y-61468000D03*
D20*
X116205000Y-61468000D03*
X118745000Y-61468000D03*
X121285000Y-61468000D03*
X123825000Y-61468000D03*
X126365000Y-61468000D03*
%TD*%
D15*
%TO.C,C11*%
X86360000Y-77150000D03*
X86360000Y-75250000D03*
%TD*%
D23*
%TO.C,R1*%
X76200000Y-61872500D03*
X76200000Y-60047500D03*
%TD*%
D21*
%TO.C,TP3*%
X102870000Y-64135000D03*
%TD*%
%TO.C,TP5*%
X102870000Y-59690000D03*
%TD*%
%TO.C,TP9*%
X79002500Y-69830000D03*
%TD*%
D27*
%TO.C,R5*%
X86995000Y-68917500D03*
X86995000Y-70742500D03*
%TD*%
D14*
%TO.C,H3*%
X59055000Y-88265000D03*
%TD*%
D16*
%TO.C,C1*%
X92710000Y-69215000D03*
X90810000Y-69215000D03*
%TD*%
D28*
%TO.C,J2*%
X82682513Y-85110000D03*
X83182512Y-85110000D03*
X83682514Y-85110000D03*
X84182513Y-85110000D03*
X84682514Y-85110000D03*
X85182513Y-85110000D03*
X85682512Y-85110000D03*
X86182514Y-85110000D03*
X86682513Y-85110000D03*
X87182514Y-85110000D03*
X87682513Y-85110000D03*
X88182512Y-85110000D03*
X88682514Y-85110000D03*
X89182513Y-85110000D03*
X89682514Y-85110000D03*
X90182513Y-85110000D03*
X90682512Y-85110000D03*
X91182514Y-85110000D03*
X91682513Y-85110000D03*
X92182514Y-85110000D03*
X92682513Y-85110000D03*
X93182512Y-85110000D03*
X93682514Y-85110000D03*
X94182513Y-85110000D03*
X94682512Y-85110000D03*
X95182513Y-85110000D03*
X95682512Y-85110000D03*
D29*
X79575002Y-86604063D03*
D30*
X80782513Y-87035000D03*
X97582487Y-87035000D03*
D31*
X98780695Y-86603845D03*
%TD*%
D32*
%TO.C,D1*%
X107935000Y-72007500D03*
X109235000Y-72007500D03*
X108585000Y-70232500D03*
%TD*%
D16*
%TO.C,C3*%
X92672500Y-71755000D03*
X90772500Y-71755000D03*
%TD*%
D27*
%TO.C,R2*%
X76200000Y-65127500D03*
X76200000Y-66952500D03*
%TD*%
D21*
%TO.C,TP10*%
X111125000Y-89535000D03*
%TD*%
%TO.C,TP4*%
X79022500Y-63500000D03*
%TD*%
D33*
%TO.C,BT1*%
X118555000Y-78740000D03*
X140525000Y-78740000D03*
D34*
X129540000Y-78740000D03*
%TD*%
D21*
%TO.C,TP12*%
X104775000Y-85090000D03*
%TD*%
D15*
%TO.C,C13*%
X81562500Y-77130000D03*
X81562500Y-75230000D03*
%TD*%
%TO.C,C19*%
X92075000Y-82103000D03*
X92075000Y-80203000D03*
%TD*%
%TO.C,C16*%
X88900000Y-77150000D03*
X88900000Y-75250000D03*
%TD*%
M02*
