%TF.GenerationSoftware,KiCad,Pcbnew,10.0.3*%
%TF.CreationDate,2026-07-20T09:59:09-07:00*%
%TF.ProjectId,SHT41-Sensor-Breakout,53485434-312d-4536-956e-736f722d4272,A*%
%TF.SameCoordinates,Original*%
%TF.FileFunction,Copper,L2,Bot*%
%TF.FilePolarity,Positive*%
%FSLAX46Y46*%
G04 Gerber Fmt 4.6, Leading zero omitted, Abs format (unit mm)*
G04 Created by KiCad (PCBNEW 10.0.3) date 2026-07-20 09:59:09*
%MOMM*%
%LPD*%
G01*
G04 APERTURE LIST*
%TA.AperFunction,ComponentPad*%
%ADD10R,1.700000X1.700000*%
%TD*%
%TA.AperFunction,ComponentPad*%
%ADD11C,1.700000*%
%TD*%
%TA.AperFunction,ViaPad*%
%ADD12C,0.800000*%
%TD*%
%TA.AperFunction,Conductor*%
%ADD13C,0.500000*%
%TD*%
%TA.AperFunction,Conductor*%
%ADD14C,0.250000*%
%TD*%
%TA.AperFunction,Conductor*%
%ADD15C,0.200000*%
%TD*%
G04 APERTURE END LIST*
D10*
%TO.P,J3,1,Pin_1_1*%
%TO.N,/NRST*%
X105410000Y-46355000D03*
D11*
%TO.P,J3,2,Pin_2_2*%
%TO.N,/SWDCLK*%
X105410000Y-48895000D03*
%TO.P,J3,3,Pin_3_3*%
%TO.N,unconnected-(J3-Pin_3-Pad3)*%
X102870000Y-46355000D03*
%TO.P,J3,4,Pin_4_4*%
%TO.N,/SWDIO*%
X102870000Y-48895000D03*
%TO.P,J3,5,Pin_5_5*%
%TO.N,GND*%
X100330000Y-46355000D03*
%TO.P,J3,6,Pin_6_6*%
X100330000Y-48895000D03*
%TO.P,J3,7,Pin_7_7*%
%TO.N,VDD*%
X97790000Y-46355000D03*
%TO.P,J3,8,Pin_8_8*%
X97790000Y-48895000D03*
%TO.P,J3,9,Pin_9_9*%
%TO.N,unconnected-(J3-Pin_9-Pad9)*%
X95250000Y-46355000D03*
%TO.P,J3,10,Pin_10_10*%
%TO.N,unconnected-(J3-Pin_10-Pad10)*%
X95250000Y-48895000D03*
%TD*%
D10*
%TO.P,J1,1,Pin_1_1*%
%TO.N,VDD*%
X135885000Y-52070000D03*
D11*
%TO.P,J1,2,Pin_2_2*%
%TO.N,GND*%
X138425000Y-52070000D03*
%TD*%
D10*
%TO.P,J4,1,Pin_1_1*%
%TO.N,VDD*%
X113665000Y-61468000D03*
D11*
%TO.P,J4,2,Pin_2_2*%
%TO.N,/SD_CS_N*%
X116205000Y-61468000D03*
%TO.P,J4,3,Pin_3_3*%
%TO.N,/SPI2_MOSI*%
X118745000Y-61468000D03*
%TO.P,J4,4,Pin_4_4*%
%TO.N,/SPI2_SCK*%
X121285000Y-61468000D03*
%TO.P,J4,5,Pin_5_5*%
%TO.N,/SPI2_MISO*%
X123825000Y-61468000D03*
%TO.P,J4,6,Pin_6_6*%
%TO.N,GND*%
X126365000Y-61468000D03*
%TD*%
D12*
%TO.N,VDD*%
X91520570Y-61608124D03*
%TO.N,/SD_CS_N*%
X105410000Y-60833000D03*
%TO.N,GND*%
X81915000Y-87630000D03*
X57150000Y-57785000D03*
X82550000Y-55245000D03*
X88900000Y-70485000D03*
X69850000Y-73025000D03*
X81280000Y-78740000D03*
X81280000Y-66040000D03*
X109855000Y-80010000D03*
X84545000Y-78740000D03*
X80645000Y-73660000D03*
X146050000Y-62230000D03*
X89026873Y-60883125D03*
X100330000Y-87630000D03*
X93980000Y-74930000D03*
X83820000Y-73660000D03*
X97155000Y-81915000D03*
X98970000Y-71755000D03*
X123825000Y-89535000D03*
X133350000Y-57785000D03*
X88900000Y-86995000D03*
%TO.N,/BTN_LCD_WAKE_N*%
X102870000Y-71755000D03*
X98970000Y-67945000D03*
%TO.N,/NRST*%
X81495000Y-60325000D03*
%TO.N,/VDDA*%
X90994553Y-63140706D03*
X105029000Y-62140000D03*
%TO.N,/DB5*%
X83257109Y-89609999D03*
X85281590Y-66131969D03*
%TO.N,/DB4*%
X86360000Y-90170000D03*
X85875153Y-67550153D03*
%TO.N,/DB3*%
X86995000Y-67701701D03*
X87616396Y-90260000D03*
%TO.N,/DB2*%
X90805000Y-90715000D03*
X88724645Y-64199374D03*
%TO.N,/DB1*%
X92075000Y-90715000D03*
X89429451Y-63448577D03*
%TO.N,/DB0*%
X89154979Y-68192500D03*
X93345000Y-90715000D03*
%TO.N,/{slash}WR*%
X102870000Y-90715000D03*
X90328438Y-63886558D03*
%TO.N,/A0*%
X95836104Y-88606410D03*
X91987654Y-63257960D03*
%TO.N,/CS1B*%
X91952652Y-64257348D03*
X102235000Y-86995000D03*
%TO.N,/SPI2_SCK*%
X97790000Y-64685000D03*
%TO.N,/SPI2_MISO*%
X100383360Y-64098360D03*
%TO.N,/SPI2_MOSI*%
X98599840Y-63235000D03*
%TO.N,/SWDCLK*%
X97912347Y-56637347D03*
%TO.N,/I2C1_SCL*%
X79375000Y-60325000D03*
X90452500Y-55335000D03*
%TO.N,/I2C1_SDA*%
X79619695Y-65405000D03*
X90787488Y-60235000D03*
X73660000Y-65405000D03*
%TO.N,/BOOT0*%
X98425000Y-59690000D03*
X96447194Y-57077194D03*
%TO.N,/LCD_VDD*%
X78740000Y-78740000D03*
X79814847Y-90365153D03*
X81475851Y-71950851D03*
%TO.N,/LCD_C3P*%
X87630000Y-86995000D03*
X88900000Y-78740000D03*
%TO.N,/LCD_C1P*%
X87630000Y-73660000D03*
X86697047Y-87355000D03*
%TD*%
%TO.N,VDD*%
D13*
X92335857Y-60792837D02*
X91520570Y-61608124D01*
X92335857Y-59806042D02*
X92335857Y-60792837D01*
X97790000Y-48895000D02*
X97790000Y-51435000D01*
X93345000Y-55880000D02*
X93345000Y-58796899D01*
X93345000Y-58796899D02*
X92335857Y-59806042D01*
X97790000Y-51435000D02*
X93345000Y-55880000D01*
%TO.N,/SD_CS_N*%
D14*
X115030000Y-62643000D02*
X116205000Y-61468000D01*
X111030000Y-62643000D02*
X115030000Y-62643000D01*
X105410000Y-60833000D02*
X109220000Y-60833000D01*
X109220000Y-60833000D02*
X111030000Y-62643000D01*
%TO.N,/BTN_LCD_WAKE_N*%
X99060000Y-68035000D02*
X98970000Y-67945000D01*
X99150000Y-68035000D02*
X99060000Y-68035000D01*
X102870000Y-71755000D02*
X99150000Y-68035000D01*
%TO.N,/NRST*%
X105410000Y-45815000D02*
X105410000Y-46355000D01*
X82130000Y-59690000D02*
X82550000Y-59690000D01*
X81495000Y-60325000D02*
X82130000Y-59690000D01*
X103600000Y-47625000D02*
X105410000Y-45815000D01*
X82550000Y-59690000D02*
X94615000Y-47625000D01*
X94615000Y-47625000D02*
X103600000Y-47625000D01*
%TO.N,/VDDA*%
X104939000Y-62230000D02*
X91905259Y-62230000D01*
X91905259Y-62230000D02*
X90994553Y-63140706D01*
X105029000Y-62140000D02*
X104939000Y-62230000D01*
%TO.N,/DB5*%
X85090000Y-74930000D02*
X83185000Y-76835000D01*
X83185000Y-88265000D02*
X83257109Y-88337109D01*
X83257109Y-88337109D02*
X83257109Y-89609999D01*
X83185000Y-76835000D02*
X83185000Y-88265000D01*
X85281590Y-66131969D02*
X85281590Y-66483410D01*
X85090000Y-66675000D02*
X85090000Y-74930000D01*
X85281590Y-66483410D02*
X85090000Y-66675000D01*
%TO.N,/DB4*%
X86360000Y-89535000D02*
X86360000Y-90170000D01*
X85875153Y-68303262D02*
X85725000Y-68453415D01*
X85875153Y-67550153D02*
X85875153Y-68303262D01*
X85090000Y-81280000D02*
X85090000Y-88265000D01*
X85725000Y-80645000D02*
X85090000Y-81280000D01*
X85725000Y-68453415D02*
X85725000Y-80645000D01*
X85090000Y-88265000D02*
X86360000Y-89535000D01*
%TO.N,/DB3*%
X85725000Y-81915000D02*
X86360000Y-81280000D01*
X86360000Y-81280000D02*
X86360000Y-68336701D01*
X85725000Y-88263604D02*
X85725000Y-81915000D01*
X86360000Y-68336701D02*
X86995000Y-67701701D01*
X87616396Y-90260000D02*
X87616396Y-90155000D01*
X87616396Y-90155000D02*
X85725000Y-88263604D01*
%TO.N,/DB2*%
X91440000Y-67945000D02*
X91440000Y-86112486D01*
X90805000Y-86747486D02*
X90805000Y-90715000D01*
X88724645Y-65229645D02*
X91440000Y-67945000D01*
X91440000Y-86112486D02*
X90805000Y-86747486D01*
X88724645Y-64199374D02*
X88724645Y-65229645D01*
%TO.N,/DB1*%
X90170000Y-65406396D02*
X90170000Y-65795305D01*
X92075000Y-67700305D02*
X92075000Y-90715000D01*
X89535000Y-64135000D02*
X89535000Y-64771396D01*
X89535000Y-64771396D02*
X90170000Y-65406396D01*
X89429451Y-64029451D02*
X89535000Y-64135000D01*
X89429451Y-63448577D02*
X89429451Y-64029451D01*
X90170000Y-65795305D02*
X92075000Y-67700305D01*
%TO.N,/DB0*%
X90170000Y-91105305D02*
X90170000Y-91440000D01*
X89154979Y-68192500D02*
X89154979Y-68199979D01*
X90170000Y-69215000D02*
X90170000Y-90324695D01*
X90080000Y-91015305D02*
X90170000Y-91105305D01*
X90170000Y-90324695D02*
X90080000Y-90414695D01*
X89154979Y-68199979D02*
X90170000Y-69215000D01*
X92620000Y-91440000D02*
X93345000Y-90715000D01*
X90080000Y-90414695D02*
X90080000Y-91015305D01*
X90170000Y-91440000D02*
X92620000Y-91440000D01*
%TO.N,/{slash}WR*%
X96070000Y-78290000D02*
X96070000Y-78291396D01*
X95885000Y-70485000D02*
X95885000Y-78105000D01*
X90328438Y-64928438D02*
X95885000Y-70485000D01*
X90328438Y-63886558D02*
X90328438Y-64928438D01*
X95111104Y-88306105D02*
X95111104Y-88906715D01*
X95535799Y-87881410D02*
X95111104Y-88306105D01*
X98610000Y-84905000D02*
X95633590Y-87881410D01*
X95633590Y-87881410D02*
X95535799Y-87881410D01*
X97155000Y-90805000D02*
X102780000Y-90805000D01*
X95885000Y-78105000D02*
X96070000Y-78290000D01*
X95535799Y-89331410D02*
X95681410Y-89331410D01*
X98610000Y-80831396D02*
X98610000Y-84905000D01*
X95111104Y-88906715D02*
X95535799Y-89331410D01*
X102780000Y-90805000D02*
X102870000Y-90715000D01*
X96070000Y-78291396D02*
X98610000Y-80831396D01*
X95681410Y-89331410D02*
X97155000Y-90805000D01*
%TO.N,/A0*%
X91987654Y-63257960D02*
X91713266Y-63532348D01*
X96520000Y-78105000D02*
X99060000Y-80645000D01*
X96520000Y-69850000D02*
X96520000Y-78105000D01*
X91227652Y-63957043D02*
X91227652Y-64017962D01*
X99060000Y-85382513D02*
X95836104Y-88606410D01*
X91227652Y-64017962D02*
X91105071Y-64140543D01*
X91105071Y-64140543D02*
X91105071Y-64435071D01*
X91713266Y-63532348D02*
X91652347Y-63532348D01*
X99060000Y-80645000D02*
X99060000Y-85382513D01*
X91652347Y-63532348D02*
X91227652Y-63957043D01*
X91105071Y-64435071D02*
X96520000Y-69850000D01*
%TO.N,/CS1B*%
X96970000Y-69665000D02*
X97027500Y-69722500D01*
X97027500Y-77976104D02*
X99510000Y-80458604D01*
X96970000Y-69663604D02*
X96970000Y-69665000D01*
X92165000Y-64469695D02*
X92165000Y-64858604D01*
X91952652Y-64257348D02*
X92165000Y-64469695D01*
X99510000Y-84270000D02*
X102235000Y-86995000D01*
X92165000Y-64858604D02*
X96970000Y-69663604D01*
X97027500Y-69722500D02*
X97027500Y-77976104D01*
X99510000Y-80458604D02*
X99510000Y-84270000D01*
%TO.N,/SPI2_SCK*%
X99956415Y-63500000D02*
X100083055Y-63373360D01*
X97790000Y-64685000D02*
X98051415Y-64423585D01*
X100810305Y-63500000D02*
X108585000Y-63500000D01*
X100683665Y-63373360D02*
X100810305Y-63500000D01*
X119634000Y-64008000D02*
X121285000Y-62357000D01*
X99695000Y-63500000D02*
X99956415Y-63500000D01*
X109093000Y-64008000D02*
X119634000Y-64008000D01*
X100083055Y-63373360D02*
X100683665Y-63373360D01*
X121285000Y-62357000D02*
X121285000Y-61468000D01*
X98771415Y-64423585D02*
X99695000Y-63500000D01*
X108585000Y-63500000D02*
X109093000Y-64008000D01*
X98051415Y-64423585D02*
X98771415Y-64423585D01*
%TO.N,/SPI2_MISO*%
X100801000Y-64516000D02*
X120777000Y-64516000D01*
X100383360Y-64098360D02*
X100801000Y-64516000D01*
X120777000Y-64516000D02*
X123825000Y-61468000D01*
%TO.N,/SPI2_MOSI*%
X107950000Y-62865000D02*
X108135000Y-63050000D01*
X109279396Y-63558000D02*
X116655000Y-63558000D01*
X108771396Y-63050000D02*
X109279396Y-63558000D01*
X116655000Y-63558000D02*
X118745000Y-61468000D01*
X98969840Y-62865000D02*
X107950000Y-62865000D01*
X98599840Y-63235000D02*
X98969840Y-62865000D01*
X108135000Y-63050000D02*
X108771396Y-63050000D01*
%TO.N,/SWDCLK*%
X101885000Y-54960000D02*
X105410000Y-51435000D01*
X105410000Y-51435000D02*
X105410000Y-48895000D01*
X99589694Y-54960000D02*
X101885000Y-54960000D01*
X97912347Y-56637347D02*
X99589694Y-54960000D01*
%TO.N,/I2C1_SCL*%
X80645000Y-61595000D02*
X79375000Y-60325000D01*
X85815000Y-61595000D02*
X80645000Y-61595000D01*
X90452500Y-56957500D02*
X85815000Y-61595000D01*
X90452500Y-55335000D02*
X90452500Y-56957500D01*
%TO.N,/I2C1_SDA*%
X90805000Y-61491568D02*
X90066568Y-62230000D01*
X81670305Y-65405000D02*
X81580305Y-65315000D01*
X81580305Y-65315000D02*
X80979695Y-65315000D01*
X90805000Y-60325000D02*
X90805000Y-61491568D01*
X80979695Y-65315000D02*
X80889695Y-65405000D01*
X90066568Y-62230000D02*
X89535000Y-62230000D01*
X79619695Y-65405000D02*
X73660000Y-65405000D01*
X86360000Y-65405000D02*
X81670305Y-65405000D01*
X90787488Y-60307488D02*
X90805000Y-60325000D01*
X80889695Y-65405000D02*
X79619695Y-65405000D01*
X90787488Y-60235000D02*
X90787488Y-60307488D01*
X89535000Y-62230000D02*
X86360000Y-65405000D01*
%TO.N,/BOOT0*%
X96447194Y-57077194D02*
X96447194Y-58347194D01*
X96447194Y-58347194D02*
X97790000Y-59690000D01*
X97790000Y-59690000D02*
X98425000Y-59690000D01*
%TO.N,/LCD_VDD*%
X81475851Y-74734149D02*
X81475851Y-71950851D01*
X78740000Y-77470000D02*
X81475851Y-74734149D01*
D13*
X80010000Y-90170000D02*
X79814847Y-90365153D01*
D14*
X78740000Y-78740000D02*
X78740000Y-77470000D01*
D13*
X78740000Y-78740000D02*
X78740000Y-80010000D01*
X80010000Y-81280000D02*
X80010000Y-90170000D01*
X78740000Y-80010000D02*
X80010000Y-81280000D01*
%TO.N,/LCD_C3P*%
D14*
X88900000Y-78740000D02*
X88265000Y-79375000D01*
X88265000Y-82550000D02*
X87630000Y-83185000D01*
X88265000Y-79375000D02*
X88265000Y-82550000D01*
X87630000Y-83185000D02*
X87630000Y-86995000D01*
%TO.N,/LCD_C1P*%
D15*
X86995000Y-83185000D02*
X87630000Y-82550000D01*
X86930000Y-86705050D02*
X86995000Y-86640050D01*
X87630000Y-82550000D02*
X87630000Y-73660000D01*
X86930000Y-87122047D02*
X86930000Y-86705050D01*
X86995000Y-86640050D02*
X86995000Y-83185000D01*
X86697047Y-87355000D02*
X86930000Y-87122047D01*
%TD*%
%TA.AperFunction,Conductor*%
%TO.N,GND*%
G36*
X87967654Y-64756202D02*
G01*
X87994014Y-64758088D01*
X88003067Y-64763906D01*
X88010107Y-64765438D01*
X88038361Y-64786589D01*
X88062826Y-64811054D01*
X88096311Y-64872377D01*
X88099145Y-64898735D01*
X88099145Y-65291254D01*
X88105510Y-65323256D01*
X88105514Y-65323274D01*
X88106290Y-65327171D01*
X88123182Y-65412097D01*
X88136992Y-65445437D01*
X88140126Y-65453003D01*
X88140127Y-65453007D01*
X88170330Y-65525925D01*
X88170335Y-65525934D01*
X88204559Y-65577152D01*
X88204560Y-65577154D01*
X88238786Y-65628378D01*
X88330231Y-65719823D01*
X88330253Y-65719843D01*
X90778181Y-68167771D01*
X90811666Y-68229094D01*
X90814500Y-68255452D01*
X90814500Y-68675546D01*
X90808261Y-68696791D01*
X90806682Y-68718878D01*
X90798609Y-68729661D01*
X90794815Y-68742585D01*
X90778082Y-68757083D01*
X90764812Y-68774812D01*
X90752189Y-68779520D01*
X90742011Y-68788340D01*
X90720095Y-68791491D01*
X90699348Y-68799230D01*
X90686185Y-68796366D01*
X90672853Y-68798284D01*
X90652710Y-68789085D01*
X90631075Y-68784379D01*
X90613345Y-68771108D01*
X90609297Y-68769259D01*
X90602820Y-68763229D01*
X90596674Y-68757083D01*
X90568733Y-68729142D01*
X90568732Y-68729141D01*
X90091798Y-68252207D01*
X90058313Y-68190884D01*
X90055479Y-68164526D01*
X90055479Y-68103806D01*
X90055478Y-68103804D01*
X90020875Y-67929841D01*
X90020872Y-67929832D01*
X89952995Y-67765959D01*
X89952988Y-67765946D01*
X89854443Y-67618465D01*
X89854440Y-67618461D01*
X89729017Y-67493038D01*
X89729013Y-67493035D01*
X89581532Y-67394490D01*
X89581519Y-67394483D01*
X89417646Y-67326606D01*
X89417637Y-67326603D01*
X89243673Y-67292000D01*
X89243670Y-67292000D01*
X89066288Y-67292000D01*
X89066285Y-67292000D01*
X88892320Y-67326603D01*
X88892311Y-67326606D01*
X88728438Y-67394483D01*
X88728425Y-67394490D01*
X88580944Y-67493035D01*
X88580940Y-67493038D01*
X88455517Y-67618461D01*
X88455514Y-67618465D01*
X88356969Y-67765946D01*
X88356962Y-67765959D01*
X88289085Y-67929832D01*
X88289082Y-67929841D01*
X88254479Y-68103804D01*
X88254479Y-68281195D01*
X88289082Y-68455158D01*
X88289085Y-68455167D01*
X88356962Y-68619040D01*
X88356969Y-68619053D01*
X88455514Y-68766534D01*
X88455517Y-68766538D01*
X88580940Y-68891961D01*
X88580944Y-68891964D01*
X88728425Y-68990509D01*
X88728438Y-68990516D01*
X88851342Y-69041423D01*
X88892313Y-69058394D01*
X88892315Y-69058394D01*
X88892320Y-69058396D01*
X89066283Y-69092999D01*
X89066286Y-69093000D01*
X89066288Y-69093000D01*
X89112048Y-69093000D01*
X89179087Y-69112685D01*
X89199729Y-69129319D01*
X89508181Y-69437771D01*
X89541666Y-69499094D01*
X89544500Y-69525452D01*
X89544500Y-77855630D01*
X89524815Y-77922669D01*
X89472011Y-77968424D01*
X89402853Y-77978368D01*
X89351610Y-77958733D01*
X89326551Y-77941989D01*
X89326540Y-77941983D01*
X89162667Y-77874106D01*
X89162658Y-77874103D01*
X88988694Y-77839500D01*
X88988691Y-77839500D01*
X88811309Y-77839500D01*
X88811306Y-77839500D01*
X88637341Y-77874103D01*
X88637332Y-77874106D01*
X88473459Y-77941983D01*
X88473446Y-77941990D01*
X88423391Y-77975437D01*
X88356714Y-77996315D01*
X88289334Y-77977831D01*
X88242643Y-77925852D01*
X88230500Y-77872335D01*
X88230500Y-74384361D01*
X88250185Y-74317322D01*
X88266814Y-74296684D01*
X88329464Y-74234035D01*
X88428013Y-74086547D01*
X88495894Y-73922666D01*
X88499383Y-73905129D01*
X88526446Y-73769072D01*
X88530500Y-73748691D01*
X88530500Y-73571309D01*
X88530500Y-73571306D01*
X88530499Y-73571304D01*
X88495896Y-73397341D01*
X88495893Y-73397332D01*
X88491579Y-73386918D01*
X88465791Y-73324659D01*
X88428016Y-73233459D01*
X88428009Y-73233446D01*
X88329464Y-73085965D01*
X88329461Y-73085961D01*
X88204038Y-72960538D01*
X88204034Y-72960535D01*
X88056553Y-72861990D01*
X88056540Y-72861983D01*
X87892667Y-72794106D01*
X87892658Y-72794103D01*
X87718694Y-72759500D01*
X87718691Y-72759500D01*
X87541309Y-72759500D01*
X87541306Y-72759500D01*
X87367341Y-72794103D01*
X87367332Y-72794106D01*
X87203459Y-72861983D01*
X87203448Y-72861989D01*
X87178390Y-72878733D01*
X87111713Y-72899610D01*
X87044333Y-72881125D01*
X86997643Y-72829146D01*
X86985500Y-72775630D01*
X86985500Y-68723496D01*
X87005185Y-68656457D01*
X87057989Y-68610702D01*
X87085307Y-68601879D01*
X87133303Y-68592332D01*
X87257658Y-68567597D01*
X87257661Y-68567595D01*
X87257666Y-68567595D01*
X87421547Y-68499714D01*
X87569035Y-68401165D01*
X87694464Y-68275736D01*
X87793013Y-68128248D01*
X87860894Y-67964367D01*
X87867764Y-67929832D01*
X87895499Y-67790396D01*
X87895500Y-67790394D01*
X87895500Y-67613007D01*
X87895499Y-67613005D01*
X87860896Y-67439042D01*
X87860893Y-67439033D01*
X87793016Y-67275160D01*
X87793009Y-67275147D01*
X87694464Y-67127666D01*
X87694461Y-67127662D01*
X87569038Y-67002239D01*
X87569034Y-67002236D01*
X87421553Y-66903691D01*
X87421540Y-66903684D01*
X87257667Y-66835807D01*
X87257658Y-66835804D01*
X87083694Y-66801201D01*
X87083691Y-66801201D01*
X86906309Y-66801201D01*
X86906306Y-66801201D01*
X86732341Y-66835804D01*
X86732332Y-66835807D01*
X86598142Y-66891390D01*
X86528672Y-66898859D01*
X86466193Y-66867583D01*
X86463034Y-66864535D01*
X86449188Y-66850689D01*
X86449187Y-66850688D01*
X86449186Y-66850687D01*
X86301706Y-66752143D01*
X86301693Y-66752136D01*
X86158233Y-66692714D01*
X86103829Y-66648873D01*
X86081764Y-66582579D01*
X86091124Y-66530701D01*
X86147484Y-66394635D01*
X86182090Y-66220660D01*
X86182090Y-66154500D01*
X86183227Y-66150627D01*
X86182336Y-66146691D01*
X86192989Y-66117379D01*
X86201775Y-66087461D01*
X86204824Y-66084818D01*
X86206204Y-66081024D01*
X86231017Y-66062122D01*
X86254579Y-66041706D01*
X86259495Y-66040429D01*
X86261785Y-66038685D01*
X86277114Y-66035852D01*
X86296208Y-66030894D01*
X86301136Y-66030500D01*
X86421607Y-66030500D01*
X86495465Y-66015809D01*
X86502572Y-66014395D01*
X86502576Y-66014395D01*
X86523353Y-66010261D01*
X86542452Y-66006463D01*
X86575792Y-65992652D01*
X86656286Y-65959312D01*
X86720412Y-65916463D01*
X86758733Y-65890858D01*
X86845858Y-65803733D01*
X86845859Y-65803731D01*
X86852925Y-65796665D01*
X86852928Y-65796661D01*
X87863001Y-64786587D01*
X87870944Y-64782250D01*
X87876370Y-64775003D01*
X87901129Y-64765768D01*
X87924322Y-64753104D01*
X87933351Y-64753749D01*
X87941834Y-64750586D01*
X87967654Y-64756202D01*
G37*
%TD.AperFunction*%
%TA.AperFunction,Conductor*%
G36*
X152343039Y-41929685D02*
G01*
X152388794Y-41982489D01*
X152400000Y-42034000D01*
X152400000Y-92586000D01*
X152380315Y-92653039D01*
X152327511Y-92698794D01*
X152276000Y-92710000D01*
X54734000Y-92710000D01*
X54666961Y-92690315D01*
X54621206Y-92637511D01*
X54610000Y-92586000D01*
X54610000Y-88143711D01*
X57204500Y-88143711D01*
X57204500Y-88386288D01*
X57236161Y-88626785D01*
X57298947Y-88861104D01*
X57340740Y-88962000D01*
X57391776Y-89085212D01*
X57513064Y-89295289D01*
X57513066Y-89295292D01*
X57513067Y-89295293D01*
X57660733Y-89487736D01*
X57660739Y-89487743D01*
X57832256Y-89659260D01*
X57832263Y-89659266D01*
X57840634Y-89665689D01*
X58024711Y-89806936D01*
X58234788Y-89928224D01*
X58458900Y-90021054D01*
X58693211Y-90083838D01*
X58873586Y-90107584D01*
X58933711Y-90115500D01*
X58933712Y-90115500D01*
X59176289Y-90115500D01*
X59224388Y-90109167D01*
X59416789Y-90083838D01*
X59651100Y-90021054D01*
X59875212Y-89928224D01*
X60085289Y-89806936D01*
X60277738Y-89659265D01*
X60449265Y-89487738D01*
X60596936Y-89295289D01*
X60718224Y-89085212D01*
X60811054Y-88861100D01*
X60873838Y-88626789D01*
X60905500Y-88386288D01*
X60905500Y-88143712D01*
X60873838Y-87903211D01*
X60811054Y-87668900D01*
X60718224Y-87444788D01*
X60596936Y-87234711D01*
X60449265Y-87042262D01*
X60449260Y-87042256D01*
X60277743Y-86870739D01*
X60277736Y-86870733D01*
X60085293Y-86723067D01*
X60085292Y-86723066D01*
X60085289Y-86723064D01*
X59875212Y-86601776D01*
X59875205Y-86601773D01*
X59651104Y-86508947D01*
X59416785Y-86446161D01*
X59176289Y-86414500D01*
X59176288Y-86414500D01*
X58933712Y-86414500D01*
X58933711Y-86414500D01*
X58693214Y-86446161D01*
X58458895Y-86508947D01*
X58234794Y-86601773D01*
X58234785Y-86601777D01*
X58024706Y-86723067D01*
X57832263Y-86870733D01*
X57832256Y-86870739D01*
X57660739Y-87042256D01*
X57660733Y-87042263D01*
X57513067Y-87234706D01*
X57391777Y-87444785D01*
X57391773Y-87444794D01*
X57298947Y-87668895D01*
X57236161Y-87903214D01*
X57204500Y-88143711D01*
X54610000Y-88143711D01*
X54610000Y-78651304D01*
X77839500Y-78651304D01*
X77839500Y-78828695D01*
X77874103Y-79002658D01*
X77874106Y-79002667D01*
X77941984Y-79166542D01*
X77941985Y-79166543D01*
X77941987Y-79166547D01*
X77968602Y-79206378D01*
X77989480Y-79273055D01*
X77989500Y-79275269D01*
X77989500Y-80083918D01*
X77989500Y-80083920D01*
X77989499Y-80083920D01*
X78018340Y-80228907D01*
X78018343Y-80228917D01*
X78074912Y-80365488D01*
X78074916Y-80365495D01*
X78095963Y-80396994D01*
X78095964Y-80396997D01*
X78095965Y-80396997D01*
X78112823Y-80422228D01*
X78157051Y-80488420D01*
X78157052Y-80488421D01*
X79223181Y-81554548D01*
X79256666Y-81615871D01*
X79259500Y-81642229D01*
X79259500Y-89595638D01*
X79239815Y-89662677D01*
X79223181Y-89683319D01*
X79115385Y-89791114D01*
X79115382Y-89791118D01*
X79016837Y-89938599D01*
X79016830Y-89938612D01*
X78948953Y-90102485D01*
X78948950Y-90102494D01*
X78914347Y-90276457D01*
X78914347Y-90453848D01*
X78948950Y-90627811D01*
X78948953Y-90627820D01*
X79016830Y-90791693D01*
X79016837Y-90791706D01*
X79115382Y-90939187D01*
X79115385Y-90939191D01*
X79240808Y-91064614D01*
X79240812Y-91064617D01*
X79388293Y-91163162D01*
X79388306Y-91163169D01*
X79471789Y-91197748D01*
X79552181Y-91231047D01*
X79552183Y-91231047D01*
X79552188Y-91231049D01*
X79726151Y-91265652D01*
X79726154Y-91265653D01*
X79726156Y-91265653D01*
X79903540Y-91265653D01*
X79903541Y-91265652D01*
X79961529Y-91254117D01*
X80077505Y-91231049D01*
X80077508Y-91231047D01*
X80077513Y-91231047D01*
X80241394Y-91163166D01*
X80388882Y-91064617D01*
X80514311Y-90939188D01*
X80612860Y-90791700D01*
X80680741Y-90627819D01*
X80681042Y-90626309D01*
X80715346Y-90453848D01*
X80715347Y-90453846D01*
X80715347Y-90452956D01*
X80715520Y-90452082D01*
X80715944Y-90447784D01*
X80716367Y-90447825D01*
X80724786Y-90405503D01*
X80731658Y-90388913D01*
X80751643Y-90288446D01*
X80760500Y-90243920D01*
X80760500Y-81206079D01*
X80731659Y-81061092D01*
X80731658Y-81061091D01*
X80731658Y-81061087D01*
X80711704Y-81012914D01*
X80675087Y-80924511D01*
X80675080Y-80924498D01*
X80592952Y-80801585D01*
X80585507Y-80794140D01*
X80488416Y-80697049D01*
X79526819Y-79735451D01*
X79493334Y-79674128D01*
X79490500Y-79647770D01*
X79490500Y-79275269D01*
X79510185Y-79208230D01*
X79511398Y-79206378D01*
X79538013Y-79166547D01*
X79605894Y-79002666D01*
X79640500Y-78828691D01*
X79640500Y-78651309D01*
X79640500Y-78651306D01*
X79640499Y-78651304D01*
X79605896Y-78477341D01*
X79605893Y-78477332D01*
X79538016Y-78313459D01*
X79538009Y-78313446D01*
X79439464Y-78165965D01*
X79439461Y-78165961D01*
X79401819Y-78128319D01*
X79368334Y-78066996D01*
X79365500Y-78040638D01*
X79365500Y-77780452D01*
X79385185Y-77713413D01*
X79401819Y-77692771D01*
X80677830Y-76416761D01*
X81961709Y-75132882D01*
X82030163Y-75030434D01*
X82077314Y-74916600D01*
X82101352Y-74795755D01*
X82101352Y-74672542D01*
X82101352Y-74667432D01*
X82101351Y-74667406D01*
X82101351Y-72650212D01*
X82121036Y-72583173D01*
X82137671Y-72562530D01*
X82175312Y-72524889D01*
X82175315Y-72524886D01*
X82273864Y-72377398D01*
X82341745Y-72213517D01*
X82348105Y-72181547D01*
X82368948Y-72076758D01*
X82376351Y-72039542D01*
X82376351Y-71862160D01*
X82376351Y-71862157D01*
X82376350Y-71862155D01*
X82341747Y-71688192D01*
X82341744Y-71688183D01*
X82332682Y-71666306D01*
X82286827Y-71555600D01*
X82273867Y-71524310D01*
X82273860Y-71524297D01*
X82175315Y-71376816D01*
X82175312Y-71376812D01*
X82049889Y-71251389D01*
X82049885Y-71251386D01*
X81902404Y-71152841D01*
X81902391Y-71152834D01*
X81738518Y-71084957D01*
X81738509Y-71084954D01*
X81564545Y-71050351D01*
X81564542Y-71050351D01*
X81387160Y-71050351D01*
X81387157Y-71050351D01*
X81213192Y-71084954D01*
X81213183Y-71084957D01*
X81049310Y-71152834D01*
X81049297Y-71152841D01*
X80901816Y-71251386D01*
X80901812Y-71251389D01*
X80776389Y-71376812D01*
X80776386Y-71376816D01*
X80677841Y-71524297D01*
X80677834Y-71524310D01*
X80609957Y-71688183D01*
X80609954Y-71688192D01*
X80575351Y-71862155D01*
X80575351Y-72039546D01*
X80609954Y-72213509D01*
X80609957Y-72213518D01*
X80677834Y-72377391D01*
X80677841Y-72377404D01*
X80776386Y-72524885D01*
X80776389Y-72524889D01*
X80814031Y-72562530D01*
X80847517Y-72623852D01*
X80850351Y-72650212D01*
X80850351Y-74423696D01*
X80830666Y-74490735D01*
X80814032Y-74511377D01*
X78254144Y-77071264D01*
X78254138Y-77071272D01*
X78185690Y-77173708D01*
X78185688Y-77173713D01*
X78138540Y-77287538D01*
X78138537Y-77287546D01*
X78118297Y-77389309D01*
X78118296Y-77389314D01*
X78114500Y-77408394D01*
X78114500Y-78040638D01*
X78094815Y-78107677D01*
X78078181Y-78128319D01*
X78040538Y-78165961D01*
X78040535Y-78165965D01*
X77941990Y-78313446D01*
X77941983Y-78313459D01*
X77874106Y-78477332D01*
X77874103Y-78477341D01*
X77839500Y-78651304D01*
X54610000Y-78651304D01*
X54610000Y-60560000D01*
X57845047Y-60560000D01*
X57846976Y-60588208D01*
X57852138Y-60663668D01*
X57852427Y-60672130D01*
X57852427Y-60696073D01*
X57855445Y-60717070D01*
X57856417Y-60726247D01*
X57862835Y-60820066D01*
X57886131Y-60932174D01*
X57886130Y-60932174D01*
X57886918Y-60935970D01*
X57891158Y-60965454D01*
X57897613Y-60987440D01*
X57898637Y-60992365D01*
X57898639Y-60992370D01*
X57915869Y-61075286D01*
X57915872Y-61075295D01*
X57915873Y-61075299D01*
X57923112Y-61095667D01*
X57958080Y-61194061D01*
X57959245Y-61197338D01*
X57967831Y-61226580D01*
X57975983Y-61244432D01*
X57985516Y-61271253D01*
X58003171Y-61320931D01*
X58067063Y-61444238D01*
X58068491Y-61446994D01*
X58080886Y-61474135D01*
X58089498Y-61487536D01*
X58092157Y-61492667D01*
X58092162Y-61492675D01*
X58123099Y-61552381D01*
X58171195Y-61620518D01*
X58211677Y-61677867D01*
X58211677Y-61677868D01*
X58213240Y-61680082D01*
X58228021Y-61703082D01*
X58235862Y-61712131D01*
X58239414Y-61717163D01*
X58239419Y-61717169D01*
X58273429Y-61765349D01*
X58273432Y-61765352D01*
X58390238Y-61890422D01*
X58391814Y-61892110D01*
X58406241Y-61908759D01*
X58412130Y-61913862D01*
X58416603Y-61918651D01*
X58416605Y-61918653D01*
X58426875Y-61929650D01*
X58451356Y-61955862D01*
X58451360Y-61955866D01*
X58451362Y-61955867D01*
X58482477Y-61981181D01*
X58602674Y-62078969D01*
X58611918Y-62086979D01*
X58614781Y-62088818D01*
X58620162Y-62093196D01*
X58620163Y-62093197D01*
X58653560Y-62120368D01*
X58653565Y-62120372D01*
X58653567Y-62120373D01*
X58653568Y-62120374D01*
X58869224Y-62251518D01*
X58876304Y-62255823D01*
X59099980Y-62352978D01*
X59115396Y-62359674D01*
X59366409Y-62430005D01*
X59624657Y-62465499D01*
X59624658Y-62465500D01*
X59624660Y-62465500D01*
X59752294Y-62465500D01*
X59757702Y-62465617D01*
X60150615Y-62482772D01*
X60156297Y-62483152D01*
X60244410Y-62491082D01*
X60249456Y-62491641D01*
X60593384Y-62536920D01*
X60599323Y-62537850D01*
X60685084Y-62553413D01*
X60689747Y-62554352D01*
X61030032Y-62629792D01*
X61036085Y-62631297D01*
X61118078Y-62653926D01*
X61122313Y-62655178D01*
X61457021Y-62760710D01*
X61463229Y-62762852D01*
X61539950Y-62791646D01*
X61543732Y-62793138D01*
X61871108Y-62928743D01*
X61877413Y-62931564D01*
X61947312Y-62965226D01*
X61950676Y-62966911D01*
X62268997Y-63132618D01*
X62275280Y-63136126D01*
X62337027Y-63173018D01*
X62340035Y-63174874D01*
X62399426Y-63212710D01*
X62647575Y-63370797D01*
X62653783Y-63375025D01*
X62677741Y-63392431D01*
X62706108Y-63413043D01*
X62708706Y-63414983D01*
X62909080Y-63568734D01*
X63003831Y-63641439D01*
X63009921Y-63646428D01*
X63051572Y-63682818D01*
X63053760Y-63684776D01*
X63335014Y-63942498D01*
X63340865Y-63948226D01*
X63370714Y-63979444D01*
X63372453Y-63981302D01*
X63626421Y-64258459D01*
X63638514Y-64271656D01*
X63644039Y-64278116D01*
X63661019Y-64299408D01*
X63662441Y-64301227D01*
X63897057Y-64606983D01*
X63911929Y-64626365D01*
X63917046Y-64633548D01*
X63920235Y-64638380D01*
X63921323Y-64640058D01*
X64151070Y-65000689D01*
X64156478Y-65010057D01*
X64356088Y-65393505D01*
X64360660Y-65403309D01*
X64526097Y-65802708D01*
X64529797Y-65812874D01*
X64659790Y-66225161D01*
X64662590Y-66235609D01*
X64756160Y-66657674D01*
X64758038Y-66668328D01*
X64814464Y-67096922D01*
X64815407Y-67107698D01*
X64834263Y-67539591D01*
X64834263Y-67550409D01*
X64815407Y-67982301D01*
X64814464Y-67993077D01*
X64758038Y-68421671D01*
X64756160Y-68432325D01*
X64662590Y-68854390D01*
X64659790Y-68864838D01*
X64529797Y-69277125D01*
X64526097Y-69287291D01*
X64360660Y-69686690D01*
X64356088Y-69696494D01*
X64156478Y-70079942D01*
X64151069Y-70089310D01*
X63921322Y-70449940D01*
X63920235Y-70451618D01*
X63917046Y-70456450D01*
X63911929Y-70463633D01*
X63662448Y-70788763D01*
X63661019Y-70790590D01*
X63644039Y-70811882D01*
X63638514Y-70818342D01*
X63372512Y-71108633D01*
X63370714Y-71110554D01*
X63340865Y-71141772D01*
X63335014Y-71147500D01*
X63053760Y-71405222D01*
X63051572Y-71407180D01*
X63009921Y-71443570D01*
X63003822Y-71448566D01*
X62708706Y-71675015D01*
X62706108Y-71676955D01*
X62653806Y-71714957D01*
X62647543Y-71719222D01*
X62340035Y-71915124D01*
X62337011Y-71916990D01*
X62275318Y-71953851D01*
X62268974Y-71957393D01*
X61950722Y-72123064D01*
X61947266Y-72124795D01*
X61877434Y-72158424D01*
X61871086Y-72161265D01*
X61543781Y-72296840D01*
X61539899Y-72298372D01*
X61463266Y-72327133D01*
X61456982Y-72329301D01*
X61122337Y-72434813D01*
X61118040Y-72436083D01*
X61036143Y-72458686D01*
X61029991Y-72460216D01*
X60689754Y-72535644D01*
X60685057Y-72536590D01*
X60599335Y-72552146D01*
X60593379Y-72553078D01*
X60249467Y-72598355D01*
X60244397Y-72598917D01*
X60156308Y-72606845D01*
X60150602Y-72607226D01*
X59757703Y-72624382D01*
X59752294Y-72624500D01*
X59624658Y-72624500D01*
X59366411Y-72659994D01*
X59366403Y-72659996D01*
X59115391Y-72730327D01*
X58876304Y-72834176D01*
X58799101Y-72881125D01*
X58653568Y-72969626D01*
X58653567Y-72969627D01*
X58653559Y-72969632D01*
X58620154Y-72996806D01*
X58620155Y-72996807D01*
X58614771Y-73001187D01*
X58611918Y-73003021D01*
X58602688Y-73011017D01*
X58601176Y-73012249D01*
X58601172Y-73012252D01*
X58451355Y-73134138D01*
X58451354Y-73134139D01*
X58416597Y-73171351D01*
X58416598Y-73171352D01*
X58412119Y-73176146D01*
X58406241Y-73181241D01*
X58391830Y-73197871D01*
X58390221Y-73199595D01*
X58273434Y-73324644D01*
X58273422Y-73324659D01*
X58239420Y-73372828D01*
X58235859Y-73377871D01*
X58228021Y-73386918D01*
X58213257Y-73409889D01*
X58211690Y-73412111D01*
X58211669Y-73412143D01*
X58123098Y-73537619D01*
X58092158Y-73597330D01*
X58092157Y-73597329D01*
X58089488Y-73602478D01*
X58080886Y-73615865D01*
X58068495Y-73642996D01*
X58067061Y-73645765D01*
X58003170Y-73769069D01*
X58003169Y-73769072D01*
X57977787Y-73840491D01*
X57977786Y-73840494D01*
X57975978Y-73845580D01*
X57967831Y-73863420D01*
X57959251Y-73892639D01*
X57958079Y-73895938D01*
X57915876Y-74014691D01*
X57915872Y-74014705D01*
X57898638Y-74097632D01*
X57898639Y-74097633D01*
X57897619Y-74102541D01*
X57891158Y-74124546D01*
X57886915Y-74154051D01*
X57886131Y-74157828D01*
X57886130Y-74157829D01*
X57862836Y-74269923D01*
X57862835Y-74269930D01*
X57856417Y-74363751D01*
X57856101Y-74368371D01*
X57852427Y-74393925D01*
X57852427Y-74422097D01*
X57852138Y-74426324D01*
X57852138Y-74426330D01*
X57845047Y-74529999D01*
X57852138Y-74633668D01*
X57852138Y-74633671D01*
X57852427Y-74637897D01*
X57852427Y-74666075D01*
X57856100Y-74691626D01*
X57856416Y-74696237D01*
X57856417Y-74696247D01*
X57862835Y-74790066D01*
X57862835Y-74790070D01*
X57862836Y-74790072D01*
X57876972Y-74858100D01*
X57886131Y-74902174D01*
X57886130Y-74902174D01*
X57886918Y-74905970D01*
X57891158Y-74935454D01*
X57897613Y-74957440D01*
X57898637Y-74962365D01*
X57898639Y-74962370D01*
X57915869Y-75045286D01*
X57915872Y-75045295D01*
X57958080Y-75164061D01*
X57959245Y-75167338D01*
X57967831Y-75196580D01*
X57975983Y-75214432D01*
X57986326Y-75243533D01*
X58003171Y-75290931D01*
X58067063Y-75414238D01*
X58068491Y-75416994D01*
X58080886Y-75444135D01*
X58089498Y-75457536D01*
X58092157Y-75462667D01*
X58092162Y-75462675D01*
X58123099Y-75522381D01*
X58211677Y-75647867D01*
X58211677Y-75647868D01*
X58213240Y-75650082D01*
X58228021Y-75673082D01*
X58235862Y-75682131D01*
X58239414Y-75687163D01*
X58239419Y-75687169D01*
X58273429Y-75735349D01*
X58273432Y-75735352D01*
X58390238Y-75860422D01*
X58391814Y-75862110D01*
X58406241Y-75878759D01*
X58412130Y-75883862D01*
X58416603Y-75888651D01*
X58451356Y-75925862D01*
X58602674Y-76048969D01*
X58611918Y-76056979D01*
X58614781Y-76058818D01*
X58620162Y-76063196D01*
X58620163Y-76063197D01*
X58653560Y-76090368D01*
X58653565Y-76090372D01*
X58653567Y-76090373D01*
X58653568Y-76090374D01*
X58846817Y-76207892D01*
X58876304Y-76225823D01*
X59115391Y-76329672D01*
X59115396Y-76329674D01*
X59366409Y-76400005D01*
X59624657Y-76435499D01*
X59624658Y-76435500D01*
X59624660Y-76435500D01*
X60046034Y-76435500D01*
X60046045Y-76435500D01*
X60626888Y-76397430D01*
X61203998Y-76321452D01*
X61494382Y-76263691D01*
X61774879Y-76207897D01*
X61774886Y-76207895D01*
X61774903Y-76207892D01*
X62079596Y-76126249D01*
X62337153Y-76057238D01*
X62337159Y-76057236D01*
X62888357Y-75870129D01*
X63426138Y-75647373D01*
X63948198Y-75389922D01*
X64452302Y-75098877D01*
X64539209Y-75040806D01*
X64539888Y-75040406D01*
X64542679Y-75038488D01*
X64905956Y-74795755D01*
X64936281Y-74775493D01*
X64936296Y-74775482D01*
X64944637Y-74769081D01*
X65025277Y-74707203D01*
X65029841Y-74704072D01*
X65046314Y-74691061D01*
X65398095Y-74421131D01*
X65488222Y-74342091D01*
X65496235Y-74335765D01*
X65521705Y-74312727D01*
X65835733Y-74037333D01*
X65926017Y-73947048D01*
X65936987Y-73937128D01*
X65967815Y-73905250D01*
X66247333Y-73625733D01*
X66336734Y-73523790D01*
X66350129Y-73509942D01*
X66383619Y-73470328D01*
X66631131Y-73188095D01*
X66718521Y-73074204D01*
X66733816Y-73056116D01*
X66767930Y-73009814D01*
X66985485Y-72726292D01*
X67069744Y-72600189D01*
X67086333Y-72577675D01*
X67119399Y-72525874D01*
X67308877Y-72242302D01*
X67388822Y-72103832D01*
X67406107Y-72076758D01*
X67436970Y-72020438D01*
X67599922Y-71738198D01*
X67674344Y-71587283D01*
X67691709Y-71555600D01*
X67719447Y-71495824D01*
X67857373Y-71216138D01*
X67925006Y-71052855D01*
X67941864Y-71016530D01*
X67965850Y-70954248D01*
X68080129Y-70678357D01*
X68139722Y-70502799D01*
X68155454Y-70461956D01*
X68175240Y-70398167D01*
X68267236Y-70127159D01*
X68317513Y-69939521D01*
X68331526Y-69894353D01*
X68346873Y-69829948D01*
X68417892Y-69564903D01*
X68457547Y-69365539D01*
X68469293Y-69316258D01*
X68480124Y-69252037D01*
X68531452Y-68993998D01*
X68559189Y-68783309D01*
X68568140Y-68730252D01*
X68574505Y-68666976D01*
X68607430Y-68416888D01*
X68621947Y-68195391D01*
X68627626Y-68138952D01*
X68629686Y-68077321D01*
X68645253Y-67839809D01*
X68645500Y-67836048D01*
X68645500Y-67604341D01*
X68647484Y-67545000D01*
X68645500Y-67485658D01*
X68645500Y-67253950D01*
X68638489Y-67146987D01*
X68629686Y-67012684D01*
X68627626Y-66951048D01*
X68621947Y-66894613D01*
X68607430Y-66673112D01*
X68574504Y-66423020D01*
X68568140Y-66359748D01*
X68559187Y-66306677D01*
X68531452Y-66096002D01*
X68480127Y-65837974D01*
X68469293Y-65773742D01*
X68457545Y-65724450D01*
X68417892Y-65525097D01*
X68361946Y-65316304D01*
X72759500Y-65316304D01*
X72759500Y-65493695D01*
X72794103Y-65667658D01*
X72794106Y-65667667D01*
X72861983Y-65831540D01*
X72861990Y-65831553D01*
X72960535Y-65979034D01*
X72960538Y-65979038D01*
X73085961Y-66104461D01*
X73085965Y-66104464D01*
X73233446Y-66203009D01*
X73233459Y-66203016D01*
X73356363Y-66253923D01*
X73397334Y-66270894D01*
X73397336Y-66270894D01*
X73397341Y-66270896D01*
X73571304Y-66305499D01*
X73571307Y-66305500D01*
X73571309Y-66305500D01*
X73748693Y-66305500D01*
X73748694Y-66305499D01*
X73806682Y-66293964D01*
X73922658Y-66270896D01*
X73922661Y-66270894D01*
X73922666Y-66270894D01*
X74086547Y-66203013D01*
X74234035Y-66104464D01*
X74271679Y-66066820D01*
X74333001Y-66033334D01*
X74359361Y-66030500D01*
X78920334Y-66030500D01*
X78987373Y-66050185D01*
X79008016Y-66066820D01*
X79045656Y-66104461D01*
X79045660Y-66104464D01*
X79193141Y-66203009D01*
X79193154Y-66203016D01*
X79316058Y-66253923D01*
X79357029Y-66270894D01*
X79357031Y-66270894D01*
X79357036Y-66270896D01*
X79530999Y-66305499D01*
X79531002Y-66305500D01*
X79531004Y-66305500D01*
X79708388Y-66305500D01*
X79708389Y-66305499D01*
X79766377Y-66293964D01*
X79882353Y-66270896D01*
X79882356Y-66270894D01*
X79882361Y-66270894D01*
X80046242Y-66203013D01*
X80193730Y-66104464D01*
X80231374Y-66066820D01*
X80292696Y-66033334D01*
X80319056Y-66030500D01*
X80951303Y-66030500D01*
X80951303Y-66030499D01*
X81025160Y-66015809D01*
X81072147Y-66006463D01*
X81105487Y-65992652D01*
X81185981Y-65959312D01*
X81185988Y-65959307D01*
X81191358Y-65956438D01*
X81192409Y-65958405D01*
X81200911Y-65955743D01*
X81216816Y-65945523D01*
X81247798Y-65941068D01*
X81249550Y-65940520D01*
X81251751Y-65940500D01*
X81308251Y-65940500D01*
X81367820Y-65957991D01*
X81368649Y-65956441D01*
X81374017Y-65959310D01*
X81374018Y-65959310D01*
X81374019Y-65959311D01*
X81487853Y-66006463D01*
X81534840Y-66015809D01*
X81608696Y-66030499D01*
X81608697Y-66030500D01*
X81608698Y-66030500D01*
X81608699Y-66030500D01*
X84257090Y-66030500D01*
X84324129Y-66050185D01*
X84369884Y-66102989D01*
X84381090Y-66154500D01*
X84381090Y-66220664D01*
X84415693Y-66394627D01*
X84415696Y-66394636D01*
X84463668Y-66510452D01*
X84471137Y-66579922D01*
X84470725Y-66582091D01*
X84464500Y-66613390D01*
X84464500Y-74619547D01*
X84444815Y-74686586D01*
X84428181Y-74707228D01*
X82699144Y-76436264D01*
X82699138Y-76436272D01*
X82630692Y-76538705D01*
X82630684Y-76538719D01*
X82597347Y-76619207D01*
X82591823Y-76632543D01*
X82583537Y-76652545D01*
X82583535Y-76652553D01*
X82559500Y-76773389D01*
X82559500Y-76773394D01*
X82559500Y-88326606D01*
X82583259Y-88446056D01*
X82583263Y-88446078D01*
X82583535Y-88447445D01*
X82583536Y-88447448D01*
X82583537Y-88447451D01*
X82622171Y-88540725D01*
X82631609Y-88588174D01*
X82631609Y-88910637D01*
X82611924Y-88977676D01*
X82595290Y-88998318D01*
X82557647Y-89035960D01*
X82557644Y-89035964D01*
X82459099Y-89183445D01*
X82459092Y-89183458D01*
X82391215Y-89347331D01*
X82391212Y-89347340D01*
X82356609Y-89521303D01*
X82356609Y-89698694D01*
X82391212Y-89872657D01*
X82391215Y-89872666D01*
X82459092Y-90036539D01*
X82459099Y-90036552D01*
X82557644Y-90184033D01*
X82557647Y-90184037D01*
X82683070Y-90309460D01*
X82683074Y-90309463D01*
X82830555Y-90408008D01*
X82830568Y-90408015D01*
X82941211Y-90453844D01*
X82994443Y-90475893D01*
X82994445Y-90475893D01*
X82994450Y-90475895D01*
X83168413Y-90510498D01*
X83168416Y-90510499D01*
X83168418Y-90510499D01*
X83345802Y-90510499D01*
X83345803Y-90510498D01*
X83403791Y-90498963D01*
X83519767Y-90475895D01*
X83519770Y-90475893D01*
X83519775Y-90475893D01*
X83683656Y-90408012D01*
X83831144Y-90309463D01*
X83956573Y-90184034D01*
X84055122Y-90036546D01*
X84123003Y-89872665D01*
X84127690Y-89849106D01*
X84149449Y-89739715D01*
X84157609Y-89698690D01*
X84157609Y-89521308D01*
X84157609Y-89521305D01*
X84157608Y-89521303D01*
X84123005Y-89347340D01*
X84123002Y-89347331D01*
X84117066Y-89333001D01*
X84088210Y-89263334D01*
X84055125Y-89183458D01*
X84055118Y-89183445D01*
X83956573Y-89035964D01*
X83956570Y-89035960D01*
X83918928Y-88998318D01*
X83885443Y-88936995D01*
X83882609Y-88910637D01*
X83882609Y-88404850D01*
X83882610Y-88404829D01*
X83882610Y-88275500D01*
X83858573Y-88154663D01*
X83858572Y-88154662D01*
X83858572Y-88154658D01*
X83845729Y-88123653D01*
X83845727Y-88123649D01*
X83819938Y-88061385D01*
X83819937Y-88061378D01*
X83810500Y-88013934D01*
X83810500Y-77145452D01*
X83830185Y-77078413D01*
X83846819Y-77057771D01*
X84887819Y-76016771D01*
X84949142Y-75983286D01*
X85018834Y-75988270D01*
X85074767Y-76030142D01*
X85099184Y-76095606D01*
X85099500Y-76104452D01*
X85099500Y-80334547D01*
X85079815Y-80401586D01*
X85063181Y-80422228D01*
X84691269Y-80794140D01*
X84691267Y-80794142D01*
X84647704Y-80837704D01*
X84604142Y-80881266D01*
X84575251Y-80924505D01*
X84575250Y-80924504D01*
X84535689Y-80983712D01*
X84535685Y-80983719D01*
X84523593Y-81012914D01*
X84488538Y-81097544D01*
X84488535Y-81097556D01*
X84464500Y-81218389D01*
X84464500Y-81218393D01*
X84464500Y-81218394D01*
X84464500Y-88326606D01*
X84488259Y-88446056D01*
X84488263Y-88446078D01*
X84488536Y-88447449D01*
X84488537Y-88447451D01*
X84535685Y-88561280D01*
X84535692Y-88561292D01*
X84564116Y-88603832D01*
X84564119Y-88603836D01*
X84568525Y-88610429D01*
X84604142Y-88663733D01*
X84691267Y-88750858D01*
X84691270Y-88750860D01*
X84698623Y-88758213D01*
X85539410Y-89599000D01*
X85572895Y-89660323D01*
X85567911Y-89730015D01*
X85563534Y-89739715D01*
X85494106Y-89907332D01*
X85494103Y-89907341D01*
X85459500Y-90081304D01*
X85459500Y-90258695D01*
X85494103Y-90432658D01*
X85494106Y-90432667D01*
X85561983Y-90596540D01*
X85561990Y-90596553D01*
X85660535Y-90744034D01*
X85660538Y-90744038D01*
X85785961Y-90869461D01*
X85785965Y-90869464D01*
X85933446Y-90968009D01*
X85933459Y-90968016D01*
X86056363Y-91018923D01*
X86097334Y-91035894D01*
X86097336Y-91035894D01*
X86097341Y-91035896D01*
X86271304Y-91070499D01*
X86271307Y-91070500D01*
X86271309Y-91070500D01*
X86448693Y-91070500D01*
X86448694Y-91070499D01*
X86511487Y-91058009D01*
X86622658Y-91035896D01*
X86622661Y-91035894D01*
X86622666Y-91035894D01*
X86786547Y-90968013D01*
X86860405Y-90918661D01*
X86927082Y-90897783D01*
X86994462Y-90916267D01*
X87016978Y-90934082D01*
X87042357Y-90959461D01*
X87042361Y-90959464D01*
X87189842Y-91058009D01*
X87189855Y-91058016D01*
X87312759Y-91108923D01*
X87353730Y-91125894D01*
X87353732Y-91125894D01*
X87353737Y-91125896D01*
X87527700Y-91160499D01*
X87527703Y-91160500D01*
X87527705Y-91160500D01*
X87705089Y-91160500D01*
X87705090Y-91160499D01*
X87763078Y-91148964D01*
X87879054Y-91125896D01*
X87879057Y-91125894D01*
X87879062Y-91125894D01*
X88042943Y-91058013D01*
X88190431Y-90959464D01*
X88315860Y-90834035D01*
X88414409Y-90686547D01*
X88482290Y-90522666D01*
X88484711Y-90510499D01*
X88516895Y-90348695D01*
X88516896Y-90348693D01*
X88516896Y-90171306D01*
X88516895Y-90171304D01*
X88482292Y-89997341D01*
X88482289Y-89997332D01*
X88414412Y-89833459D01*
X88414405Y-89833446D01*
X88315860Y-89685965D01*
X88315857Y-89685961D01*
X88190434Y-89560538D01*
X88190430Y-89560535D01*
X88042949Y-89461990D01*
X88042936Y-89461983D01*
X87879063Y-89394106D01*
X87879054Y-89394103D01*
X87742477Y-89366937D01*
X87680566Y-89334552D01*
X87678987Y-89333001D01*
X86796095Y-88450109D01*
X86762610Y-88388786D01*
X86767594Y-88319094D01*
X86809466Y-88263161D01*
X86859585Y-88240811D01*
X86959705Y-88220896D01*
X86959708Y-88220894D01*
X86959713Y-88220894D01*
X87123594Y-88153013D01*
X87271082Y-88054464D01*
X87315729Y-88009817D01*
X87400819Y-87924728D01*
X87402661Y-87926570D01*
X87450994Y-87893593D01*
X87513385Y-87889945D01*
X87541309Y-87895500D01*
X87541312Y-87895500D01*
X87718693Y-87895500D01*
X87718694Y-87895499D01*
X87776682Y-87883964D01*
X87892658Y-87860896D01*
X87892661Y-87860894D01*
X87892666Y-87860894D01*
X88056547Y-87793013D01*
X88204035Y-87694464D01*
X88329464Y-87569035D01*
X88428013Y-87421547D01*
X88495894Y-87257666D01*
X88530500Y-87083691D01*
X88530500Y-86906309D01*
X88530500Y-86906306D01*
X88530499Y-86906304D01*
X88495896Y-86732341D01*
X88495893Y-86732332D01*
X88492055Y-86723067D01*
X88441816Y-86601776D01*
X88428016Y-86568459D01*
X88428009Y-86568446D01*
X88329464Y-86420965D01*
X88329461Y-86420961D01*
X88291819Y-86383319D01*
X88258334Y-86321996D01*
X88255500Y-86295638D01*
X88255500Y-83495452D01*
X88275185Y-83428413D01*
X88291819Y-83407771D01*
X88750855Y-82948736D01*
X88750855Y-82948735D01*
X88750858Y-82948733D01*
X88819312Y-82846285D01*
X88866463Y-82732451D01*
X88890501Y-82611606D01*
X88890501Y-82488393D01*
X88890501Y-82483283D01*
X88890500Y-82483257D01*
X88890500Y-79761795D01*
X88910185Y-79694756D01*
X88962989Y-79649001D01*
X88990307Y-79640178D01*
X89038303Y-79630631D01*
X89162658Y-79605896D01*
X89162661Y-79605894D01*
X89162666Y-79605894D01*
X89326547Y-79538013D01*
X89351607Y-79521267D01*
X89418284Y-79500389D01*
X89485665Y-79518872D01*
X89532356Y-79570850D01*
X89544500Y-79624369D01*
X89544500Y-90052639D01*
X89533915Y-90102770D01*
X89529571Y-90112597D01*
X89525688Y-90118409D01*
X89506676Y-90164310D01*
X89506119Y-90165654D01*
X89506114Y-90165666D01*
X89478538Y-90232240D01*
X89478535Y-90232250D01*
X89454500Y-90353084D01*
X89454500Y-91076915D01*
X89478535Y-91197748D01*
X89478538Y-91197760D01*
X89481012Y-91203733D01*
X89492326Y-91231047D01*
X89525688Y-91311591D01*
X89529855Y-91317827D01*
X89534321Y-91328158D01*
X89537267Y-91352106D01*
X89544480Y-91375129D01*
X89544500Y-91377360D01*
X89544500Y-91501610D01*
X89568535Y-91622444D01*
X89568538Y-91622454D01*
X89615687Y-91736283D01*
X89615692Y-91736292D01*
X89684141Y-91838732D01*
X89684144Y-91838736D01*
X89771263Y-91925855D01*
X89771267Y-91925858D01*
X89873707Y-91994307D01*
X89873711Y-91994309D01*
X89873714Y-91994311D01*
X89987548Y-92041463D01*
X90108389Y-92065499D01*
X90108393Y-92065500D01*
X90108394Y-92065500D01*
X92681607Y-92065500D01*
X92742029Y-92053481D01*
X92802452Y-92041463D01*
X92835792Y-92027652D01*
X92916286Y-91994312D01*
X92967509Y-91960084D01*
X93018733Y-91925858D01*
X93105858Y-91838733D01*
X93105860Y-91838729D01*
X93292772Y-91651816D01*
X93354095Y-91618334D01*
X93380452Y-91615500D01*
X93433693Y-91615500D01*
X93433694Y-91615499D01*
X93491682Y-91603964D01*
X93607658Y-91580896D01*
X93607661Y-91580894D01*
X93607666Y-91580894D01*
X93771547Y-91513013D01*
X93919035Y-91414464D01*
X94044464Y-91289035D01*
X94143013Y-91141547D01*
X94210894Y-90977666D01*
X94214516Y-90959461D01*
X94234239Y-90860301D01*
X94245500Y-90803691D01*
X94245500Y-90626309D01*
X94245500Y-90626306D01*
X94245499Y-90626304D01*
X94210896Y-90452341D01*
X94210893Y-90452332D01*
X94210789Y-90452082D01*
X94191496Y-90405503D01*
X94143016Y-90288459D01*
X94143009Y-90288446D01*
X94044464Y-90140965D01*
X94044461Y-90140961D01*
X93919038Y-90015538D01*
X93919034Y-90015535D01*
X93771553Y-89916990D01*
X93771540Y-89916983D01*
X93607667Y-89849106D01*
X93607658Y-89849103D01*
X93433694Y-89814500D01*
X93433691Y-89814500D01*
X93256309Y-89814500D01*
X93256306Y-89814500D01*
X93082341Y-89849103D01*
X93082332Y-89849106D01*
X92918459Y-89916983D01*
X92918448Y-89916989D01*
X92893390Y-89933733D01*
X92826713Y-89954610D01*
X92759333Y-89936125D01*
X92712643Y-89884146D01*
X92700500Y-89830630D01*
X92700500Y-68484452D01*
X92720185Y-68417413D01*
X92772989Y-68371658D01*
X92842147Y-68361714D01*
X92905703Y-68390739D01*
X92912181Y-68396771D01*
X95223181Y-70707771D01*
X95256666Y-70769094D01*
X95259500Y-70795452D01*
X95259500Y-78043393D01*
X95259500Y-78166607D01*
X95259500Y-78166609D01*
X95259499Y-78166609D01*
X95265323Y-78195883D01*
X95265323Y-78195885D01*
X95276911Y-78254142D01*
X95283537Y-78287451D01*
X95330688Y-78401286D01*
X95364915Y-78452509D01*
X95399142Y-78503733D01*
X95486267Y-78590858D01*
X95486269Y-78590859D01*
X95496232Y-78600822D01*
X95573442Y-78678032D01*
X95581617Y-78687052D01*
X95584142Y-78690129D01*
X95678332Y-78784319D01*
X95678338Y-78784324D01*
X97948181Y-81054167D01*
X97981666Y-81115490D01*
X97984500Y-81141848D01*
X97984500Y-84594547D01*
X97964815Y-84661586D01*
X97948181Y-84682228D01*
X95365864Y-87264544D01*
X95337845Y-87285567D01*
X95331897Y-87288831D01*
X95239513Y-87327099D01*
X95139789Y-87393733D01*
X95137065Y-87395553D01*
X95136598Y-87396019D01*
X95136596Y-87396021D01*
X94863723Y-87668895D01*
X94712373Y-87820245D01*
X94712371Y-87820247D01*
X94671725Y-87860893D01*
X94625246Y-87907371D01*
X94613649Y-87924728D01*
X94601429Y-87943017D01*
X94556792Y-88009819D01*
X94543950Y-88040824D01*
X94509641Y-88123653D01*
X94509640Y-88123656D01*
X94509639Y-88123660D01*
X94485604Y-88244494D01*
X94485604Y-88244499D01*
X94485604Y-88968321D01*
X94508854Y-89085212D01*
X94509641Y-89089166D01*
X94509643Y-89089173D01*
X94556789Y-89202995D01*
X94556791Y-89202998D01*
X94556792Y-89203001D01*
X94591019Y-89254224D01*
X94625246Y-89305448D01*
X94712371Y-89392573D01*
X94712373Y-89392574D01*
X95049940Y-89730142D01*
X95049941Y-89730143D01*
X95137066Y-89817268D01*
X95169348Y-89838838D01*
X95239513Y-89885721D01*
X95353347Y-89932873D01*
X95372546Y-89936691D01*
X95434457Y-89969075D01*
X95436038Y-89970628D01*
X96666016Y-91200606D01*
X96666045Y-91200637D01*
X96756264Y-91290856D01*
X96794589Y-91316464D01*
X96815963Y-91330746D01*
X96858715Y-91359312D01*
X96904784Y-91378394D01*
X96972548Y-91406463D01*
X97012773Y-91414464D01*
X97093391Y-91430499D01*
X97093392Y-91430500D01*
X97093393Y-91430500D01*
X97093394Y-91430500D01*
X102282349Y-91430500D01*
X102349388Y-91450185D01*
X102351237Y-91451396D01*
X102443453Y-91513013D01*
X102607334Y-91580894D01*
X102607336Y-91580894D01*
X102607341Y-91580896D01*
X102781304Y-91615499D01*
X102781307Y-91615500D01*
X102781309Y-91615500D01*
X102958693Y-91615500D01*
X102958694Y-91615499D01*
X103016682Y-91603964D01*
X103132658Y-91580896D01*
X103132661Y-91580894D01*
X103132666Y-91580894D01*
X103296547Y-91513013D01*
X103444035Y-91414464D01*
X103569464Y-91289035D01*
X103668013Y-91141547D01*
X103735894Y-90977666D01*
X103739516Y-90959461D01*
X103759239Y-90860301D01*
X103770500Y-90803691D01*
X103770500Y-90626309D01*
X103770500Y-90626306D01*
X103770499Y-90626304D01*
X103735896Y-90452341D01*
X103735893Y-90452332D01*
X103735789Y-90452082D01*
X103716496Y-90405503D01*
X103668016Y-90288459D01*
X103668009Y-90288446D01*
X103569464Y-90140965D01*
X103569461Y-90140961D01*
X103444038Y-90015538D01*
X103444034Y-90015535D01*
X103296553Y-89916990D01*
X103296540Y-89916983D01*
X103132667Y-89849106D01*
X103132658Y-89849103D01*
X102958694Y-89814500D01*
X102958691Y-89814500D01*
X102781309Y-89814500D01*
X102781306Y-89814500D01*
X102607341Y-89849103D01*
X102607332Y-89849106D01*
X102443459Y-89916983D01*
X102443446Y-89916990D01*
X102295965Y-90015535D01*
X102295961Y-90015538D01*
X102168319Y-90143181D01*
X102106996Y-90176666D01*
X102080638Y-90179500D01*
X97465452Y-90179500D01*
X97398413Y-90159815D01*
X97377771Y-90143181D01*
X96559247Y-89324657D01*
X96525762Y-89263334D01*
X96530746Y-89193642D01*
X96543821Y-89168093D01*
X96634117Y-89032957D01*
X96701998Y-88869076D01*
X96736604Y-88695101D01*
X96736604Y-88641860D01*
X96756289Y-88574821D01*
X96772918Y-88554184D01*
X97183391Y-88143711D01*
X145469500Y-88143711D01*
X145469500Y-88386288D01*
X145501161Y-88626785D01*
X145563947Y-88861104D01*
X145605740Y-88962000D01*
X145656776Y-89085212D01*
X145778064Y-89295289D01*
X145778066Y-89295292D01*
X145778067Y-89295293D01*
X145925733Y-89487736D01*
X145925739Y-89487743D01*
X146097256Y-89659260D01*
X146097263Y-89659266D01*
X146105634Y-89665689D01*
X146289711Y-89806936D01*
X146499788Y-89928224D01*
X146723900Y-90021054D01*
X146958211Y-90083838D01*
X147138586Y-90107584D01*
X147198711Y-90115500D01*
X147198712Y-90115500D01*
X147441289Y-90115500D01*
X147489388Y-90109167D01*
X147681789Y-90083838D01*
X147916100Y-90021054D01*
X148140212Y-89928224D01*
X148350289Y-89806936D01*
X148542738Y-89659265D01*
X148714265Y-89487738D01*
X148861936Y-89295289D01*
X148983224Y-89085212D01*
X149076054Y-88861100D01*
X149138838Y-88626789D01*
X149170500Y-88386288D01*
X149170500Y-88143712D01*
X149138838Y-87903211D01*
X149076054Y-87668900D01*
X148983224Y-87444788D01*
X148861936Y-87234711D01*
X148714265Y-87042262D01*
X148714260Y-87042256D01*
X148542743Y-86870739D01*
X148542736Y-86870733D01*
X148350293Y-86723067D01*
X148350292Y-86723066D01*
X148350289Y-86723064D01*
X148140212Y-86601776D01*
X148140205Y-86601773D01*
X147916104Y-86508947D01*
X147681785Y-86446161D01*
X147441289Y-86414500D01*
X147441288Y-86414500D01*
X147198712Y-86414500D01*
X147198711Y-86414500D01*
X146958214Y-86446161D01*
X146723895Y-86508947D01*
X146499794Y-86601773D01*
X146499785Y-86601777D01*
X146289706Y-86723067D01*
X146097263Y-86870733D01*
X146097256Y-86870739D01*
X145925739Y-87042256D01*
X145925733Y-87042263D01*
X145778067Y-87234706D01*
X145656777Y-87444785D01*
X145656773Y-87444794D01*
X145563947Y-87668895D01*
X145501161Y-87903214D01*
X145469500Y-88143711D01*
X97183391Y-88143711D01*
X99458730Y-85868372D01*
X99458733Y-85868371D01*
X99545858Y-85781246D01*
X99590956Y-85713752D01*
X99614312Y-85678799D01*
X99661463Y-85564964D01*
X99661464Y-85564954D01*
X99661664Y-85564300D01*
X99661867Y-85563989D01*
X99663795Y-85559336D01*
X99664676Y-85559701D01*
X99699954Y-85505857D01*
X99763763Y-85477393D01*
X99832831Y-85487944D01*
X99868010Y-85512600D01*
X101298181Y-86942771D01*
X101331666Y-87004094D01*
X101334500Y-87030452D01*
X101334500Y-87083695D01*
X101369103Y-87257658D01*
X101369106Y-87257667D01*
X101436983Y-87421540D01*
X101436990Y-87421553D01*
X101535535Y-87569034D01*
X101535538Y-87569038D01*
X101660961Y-87694461D01*
X101660965Y-87694464D01*
X101808446Y-87793009D01*
X101808459Y-87793016D01*
X101931363Y-87843923D01*
X101972334Y-87860894D01*
X101972336Y-87860894D01*
X101972341Y-87860896D01*
X102146304Y-87895499D01*
X102146307Y-87895500D01*
X102146309Y-87895500D01*
X102323693Y-87895500D01*
X102323694Y-87895499D01*
X102381682Y-87883964D01*
X102497658Y-87860896D01*
X102497661Y-87860894D01*
X102497666Y-87860894D01*
X102661547Y-87793013D01*
X102809035Y-87694464D01*
X102934464Y-87569035D01*
X103033013Y-87421547D01*
X103100894Y-87257666D01*
X103135500Y-87083691D01*
X103135500Y-86906309D01*
X103135500Y-86906306D01*
X103135499Y-86906304D01*
X103100896Y-86732341D01*
X103100893Y-86732332D01*
X103097055Y-86723067D01*
X103046816Y-86601776D01*
X103033016Y-86568459D01*
X103033009Y-86568446D01*
X102934464Y-86420965D01*
X102934461Y-86420961D01*
X102809038Y-86295538D01*
X102809034Y-86295535D01*
X102661553Y-86196990D01*
X102661540Y-86196983D01*
X102497667Y-86129106D01*
X102497658Y-86129103D01*
X102323694Y-86094500D01*
X102323691Y-86094500D01*
X102270452Y-86094500D01*
X102203413Y-86074815D01*
X102182771Y-86058181D01*
X100171819Y-84047229D01*
X100138334Y-83985906D01*
X100135500Y-83959548D01*
X100135500Y-80396993D01*
X100111464Y-80276159D01*
X100111463Y-80276152D01*
X100064311Y-80162318D01*
X100064310Y-80162317D01*
X100064307Y-80162311D01*
X99995858Y-80059871D01*
X99995855Y-80059867D01*
X99905637Y-79969649D01*
X99905606Y-79969620D01*
X97689319Y-77753333D01*
X97655834Y-77692010D01*
X97653000Y-77665652D01*
X97653000Y-69660893D01*
X97652999Y-69660889D01*
X97628963Y-69540048D01*
X97581811Y-69426214D01*
X97581810Y-69426213D01*
X97581807Y-69426207D01*
X97513358Y-69323767D01*
X97513355Y-69323763D01*
X97466555Y-69276964D01*
X97465954Y-69276360D01*
X97458454Y-69268756D01*
X97455858Y-69264871D01*
X97368733Y-69177746D01*
X97368729Y-69177743D01*
X96047290Y-67856304D01*
X98069500Y-67856304D01*
X98069500Y-68033695D01*
X98104103Y-68207658D01*
X98104106Y-68207667D01*
X98171983Y-68371540D01*
X98171990Y-68371553D01*
X98270535Y-68519034D01*
X98270538Y-68519038D01*
X98395961Y-68644461D01*
X98395965Y-68644464D01*
X98543446Y-68743009D01*
X98543459Y-68743016D01*
X98666363Y-68793923D01*
X98707334Y-68810894D01*
X98707336Y-68810894D01*
X98707341Y-68810896D01*
X98881304Y-68845499D01*
X98881307Y-68845500D01*
X99024548Y-68845500D01*
X99091587Y-68865185D01*
X99112229Y-68881819D01*
X101933181Y-71702771D01*
X101966666Y-71764094D01*
X101969500Y-71790452D01*
X101969500Y-71843695D01*
X102004103Y-72017658D01*
X102004106Y-72017667D01*
X102071983Y-72181540D01*
X102071990Y-72181553D01*
X102170535Y-72329034D01*
X102170538Y-72329038D01*
X102295961Y-72454461D01*
X102295965Y-72454464D01*
X102443446Y-72553009D01*
X102443459Y-72553016D01*
X102563074Y-72602561D01*
X102607334Y-72620894D01*
X102607336Y-72620894D01*
X102607341Y-72620896D01*
X102781304Y-72655499D01*
X102781307Y-72655500D01*
X102781309Y-72655500D01*
X102958693Y-72655500D01*
X102958694Y-72655499D01*
X103020331Y-72643239D01*
X103132658Y-72620896D01*
X103132661Y-72620894D01*
X103132666Y-72620894D01*
X103296547Y-72553013D01*
X103444035Y-72454464D01*
X103569464Y-72329035D01*
X103668013Y-72181547D01*
X103735894Y-72017666D01*
X103770500Y-71843691D01*
X103770500Y-71666309D01*
X103770500Y-71666306D01*
X103770499Y-71666304D01*
X103735896Y-71492341D01*
X103735893Y-71492332D01*
X103668016Y-71328459D01*
X103668009Y-71328446D01*
X103569464Y-71180965D01*
X103569461Y-71180961D01*
X103444038Y-71055538D01*
X103444034Y-71055535D01*
X103296553Y-70956990D01*
X103296540Y-70956983D01*
X103132667Y-70889106D01*
X103132658Y-70889103D01*
X102958694Y-70854500D01*
X102958691Y-70854500D01*
X102905453Y-70854500D01*
X102838414Y-70834815D01*
X102817772Y-70818181D01*
X99900723Y-67901132D01*
X99867238Y-67839809D01*
X99866787Y-67837642D01*
X99835896Y-67682341D01*
X99835893Y-67682332D01*
X99768016Y-67518459D01*
X99768009Y-67518446D01*
X99669464Y-67370965D01*
X99669461Y-67370961D01*
X99544038Y-67245538D01*
X99544034Y-67245535D01*
X99396553Y-67146990D01*
X99396540Y-67146983D01*
X99232667Y-67079106D01*
X99232658Y-67079103D01*
X99058694Y-67044500D01*
X99058691Y-67044500D01*
X98881309Y-67044500D01*
X98881306Y-67044500D01*
X98707341Y-67079103D01*
X98707332Y-67079106D01*
X98543459Y-67146983D01*
X98543446Y-67146990D01*
X98395965Y-67245535D01*
X98395961Y-67245538D01*
X98270538Y-67370961D01*
X98270535Y-67370965D01*
X98171990Y-67518446D01*
X98171983Y-67518459D01*
X98104106Y-67682332D01*
X98104103Y-67682341D01*
X98069500Y-67856304D01*
X96047290Y-67856304D01*
X92845633Y-64654647D01*
X92812148Y-64593324D01*
X92816969Y-64525899D01*
X92816778Y-64525841D01*
X92817034Y-64524995D01*
X92817132Y-64523632D01*
X92818509Y-64520131D01*
X92818540Y-64520026D01*
X92818546Y-64520014D01*
X92853152Y-64346039D01*
X92853152Y-64168657D01*
X92853152Y-64168654D01*
X92853151Y-64168652D01*
X92818548Y-63994689D01*
X92818546Y-63994684D01*
X92818546Y-63994682D01*
X92752014Y-63834059D01*
X92744546Y-63764593D01*
X92763473Y-63717721D01*
X92785667Y-63684507D01*
X92853548Y-63520626D01*
X92855557Y-63510529D01*
X92879048Y-63392431D01*
X92888154Y-63346651D01*
X92888154Y-63169269D01*
X92888154Y-63169266D01*
X92888153Y-63169264D01*
X92855219Y-63003691D01*
X92861446Y-62934100D01*
X92904309Y-62878922D01*
X92970199Y-62855678D01*
X92976836Y-62855500D01*
X97606091Y-62855500D01*
X97673130Y-62875185D01*
X97718885Y-62927989D01*
X97728829Y-62997147D01*
X97727708Y-63003691D01*
X97699340Y-63146304D01*
X97699340Y-63323695D01*
X97733943Y-63497658D01*
X97733946Y-63497667D01*
X97783406Y-63617075D01*
X97790875Y-63686544D01*
X97759599Y-63749023D01*
X97699510Y-63784675D01*
X97693037Y-63786144D01*
X97527340Y-63819104D01*
X97527332Y-63819106D01*
X97363459Y-63886983D01*
X97363446Y-63886990D01*
X97215965Y-63985535D01*
X97215961Y-63985538D01*
X97090538Y-64110961D01*
X97090535Y-64110965D01*
X96991990Y-64258446D01*
X96991983Y-64258459D01*
X96924106Y-64422332D01*
X96924103Y-64422341D01*
X96889500Y-64596304D01*
X96889500Y-64773695D01*
X96924103Y-64947658D01*
X96924106Y-64947667D01*
X96991983Y-65111540D01*
X96991990Y-65111553D01*
X97090535Y-65259034D01*
X97090538Y-65259038D01*
X97215961Y-65384461D01*
X97215965Y-65384464D01*
X97363446Y-65483009D01*
X97363459Y-65483016D01*
X97486363Y-65533923D01*
X97527334Y-65550894D01*
X97527336Y-65550894D01*
X97527341Y-65550896D01*
X97701304Y-65585499D01*
X97701307Y-65585500D01*
X97701309Y-65585500D01*
X97878693Y-65585500D01*
X97878694Y-65585499D01*
X97936682Y-65573964D01*
X98052658Y-65550896D01*
X98052661Y-65550894D01*
X98052666Y-65550894D01*
X98216547Y-65483013D01*
X98364035Y-65384464D01*
X98489464Y-65259035D01*
X98568000Y-65141499D01*
X98591398Y-65106482D01*
X98593192Y-65107680D01*
X98593316Y-65107554D01*
X98596829Y-65098279D01*
X98617394Y-65083043D01*
X98635329Y-65064787D01*
X98646497Y-65061483D01*
X98652971Y-65056688D01*
X98677403Y-65052342D01*
X98687496Y-65049358D01*
X98691601Y-65049085D01*
X98709808Y-65049085D01*
X98833022Y-65049085D01*
X98896121Y-65036534D01*
X98904044Y-65034958D01*
X98904045Y-65034958D01*
X98912886Y-65033199D01*
X98953867Y-65025048D01*
X98999208Y-65006267D01*
X99067701Y-64977897D01*
X99137993Y-64930928D01*
X99170148Y-64909443D01*
X99257273Y-64822318D01*
X99257273Y-64822316D01*
X99267481Y-64812109D01*
X99267483Y-64812106D01*
X99466226Y-64613362D01*
X99527547Y-64579879D01*
X99597239Y-64584863D01*
X99653172Y-64626735D01*
X99657007Y-64632154D01*
X99683895Y-64672394D01*
X99683898Y-64672398D01*
X99809321Y-64797821D01*
X99809325Y-64797824D01*
X99956806Y-64896369D01*
X99956819Y-64896376D01*
X100040237Y-64930928D01*
X100120694Y-64964254D01*
X100120696Y-64964254D01*
X100120701Y-64964256D01*
X100294664Y-64998859D01*
X100294667Y-64998860D01*
X100294669Y-64998860D01*
X100360165Y-64998860D01*
X100378309Y-65004187D01*
X100397217Y-65004525D01*
X100425437Y-65018026D01*
X100427204Y-65018545D01*
X100429046Y-65019751D01*
X100453490Y-65036084D01*
X100504714Y-65070312D01*
X100504715Y-65070312D01*
X100504716Y-65070313D01*
X100572235Y-65098279D01*
X100585207Y-65103652D01*
X100618548Y-65117463D01*
X100647602Y-65123242D01*
X100739391Y-65141499D01*
X100739392Y-65141500D01*
X100739393Y-65141500D01*
X120838608Y-65141500D01*
X120838608Y-65141499D01*
X120930398Y-65123242D01*
X120959452Y-65117463D01*
X120992792Y-65103652D01*
X121073286Y-65070312D01*
X121124509Y-65036084D01*
X121124511Y-65036083D01*
X121141029Y-65025046D01*
X121175733Y-65001858D01*
X121262858Y-64914733D01*
X121262859Y-64914731D01*
X121269925Y-64907665D01*
X121269928Y-64907661D01*
X123367162Y-62810426D01*
X123428483Y-62776943D01*
X123493162Y-62780179D01*
X123508757Y-62785246D01*
X123718713Y-62818500D01*
X123718714Y-62818500D01*
X123931286Y-62818500D01*
X123931287Y-62818500D01*
X124141243Y-62785246D01*
X124343412Y-62719557D01*
X124532816Y-62623051D01*
X124612387Y-62565240D01*
X124704786Y-62498109D01*
X124704788Y-62498106D01*
X124704792Y-62498104D01*
X124855104Y-62347792D01*
X124855106Y-62347788D01*
X124855109Y-62347786D01*
X124980051Y-62175817D01*
X124984537Y-62167011D01*
X124984793Y-62166508D01*
X125032763Y-62115711D01*
X125100583Y-62098911D01*
X125166719Y-62121445D01*
X125205763Y-62166500D01*
X125210373Y-62175547D01*
X125249728Y-62229716D01*
X125882037Y-61597408D01*
X125899075Y-61660993D01*
X125964901Y-61775007D01*
X126057993Y-61868099D01*
X126172007Y-61933925D01*
X126235590Y-61950962D01*
X125603282Y-62583269D01*
X125603282Y-62583270D01*
X125657449Y-62622624D01*
X125846782Y-62719095D01*
X126048870Y-62784757D01*
X126258754Y-62818000D01*
X126471246Y-62818000D01*
X126681127Y-62784757D01*
X126681130Y-62784757D01*
X126883217Y-62719095D01*
X127072554Y-62622622D01*
X127126716Y-62583270D01*
X127126717Y-62583270D01*
X126494408Y-61950962D01*
X126557993Y-61933925D01*
X126672007Y-61868099D01*
X126765099Y-61775007D01*
X126830925Y-61660993D01*
X126847962Y-61597409D01*
X127480270Y-62229717D01*
X127480270Y-62229716D01*
X127519622Y-62175554D01*
X127616095Y-61986217D01*
X127681757Y-61784130D01*
X127681757Y-61784127D01*
X127715000Y-61574246D01*
X127715000Y-61361753D01*
X127681757Y-61151872D01*
X127681757Y-61151869D01*
X127616095Y-60949782D01*
X127519624Y-60760449D01*
X127480270Y-60706282D01*
X127480269Y-60706282D01*
X126847962Y-61338590D01*
X126830925Y-61275007D01*
X126765099Y-61160993D01*
X126672007Y-61067901D01*
X126557993Y-61002075D01*
X126494409Y-60985037D01*
X127126716Y-60352728D01*
X127072550Y-60313375D01*
X126883217Y-60216904D01*
X126681129Y-60151242D01*
X126471246Y-60118000D01*
X126258754Y-60118000D01*
X126048872Y-60151242D01*
X126048869Y-60151242D01*
X125846782Y-60216904D01*
X125657439Y-60313380D01*
X125603282Y-60352727D01*
X125603282Y-60352728D01*
X126235591Y-60985037D01*
X126172007Y-61002075D01*
X126057993Y-61067901D01*
X125964901Y-61160993D01*
X125899075Y-61275007D01*
X125882037Y-61338591D01*
X125249728Y-60706282D01*
X125249727Y-60706282D01*
X125210380Y-60760440D01*
X125210376Y-60760446D01*
X125205760Y-60769505D01*
X125157781Y-60820297D01*
X125089959Y-60837087D01*
X125023826Y-60814543D01*
X124984794Y-60769493D01*
X124980051Y-60760184D01*
X124980049Y-60760181D01*
X124980048Y-60760179D01*
X124855109Y-60588213D01*
X124704786Y-60437890D01*
X124532820Y-60312951D01*
X124343414Y-60216444D01*
X124343413Y-60216443D01*
X124343412Y-60216443D01*
X124141243Y-60150754D01*
X124141241Y-60150753D01*
X124141240Y-60150753D01*
X123979957Y-60125208D01*
X123931287Y-60117500D01*
X123718713Y-60117500D01*
X123670042Y-60125208D01*
X123508760Y-60150753D01*
X123431498Y-60175857D01*
X123394656Y-60187828D01*
X123306585Y-60216444D01*
X123117179Y-60312951D01*
X122945213Y-60437890D01*
X122794890Y-60588213D01*
X122669949Y-60760182D01*
X122665484Y-60768946D01*
X122617509Y-60819742D01*
X122549688Y-60836536D01*
X122483553Y-60813998D01*
X122444516Y-60768946D01*
X122440050Y-60760182D01*
X122315109Y-60588213D01*
X122164786Y-60437890D01*
X121992820Y-60312951D01*
X121803414Y-60216444D01*
X121803413Y-60216443D01*
X121803412Y-60216443D01*
X121601243Y-60150754D01*
X121601241Y-60150753D01*
X121601240Y-60150753D01*
X121439957Y-60125208D01*
X121391287Y-60117500D01*
X121178713Y-60117500D01*
X121130042Y-60125208D01*
X120968760Y-60150753D01*
X120891498Y-60175857D01*
X120854656Y-60187828D01*
X120766585Y-60216444D01*
X120577179Y-60312951D01*
X120405213Y-60437890D01*
X120254890Y-60588213D01*
X120129949Y-60760182D01*
X120125484Y-60768946D01*
X120077509Y-60819742D01*
X120009688Y-60836536D01*
X119943553Y-60813998D01*
X119904516Y-60768946D01*
X119900050Y-60760182D01*
X119775109Y-60588213D01*
X119624786Y-60437890D01*
X119452820Y-60312951D01*
X119263414Y-60216444D01*
X119263413Y-60216443D01*
X119263412Y-60216443D01*
X119061243Y-60150754D01*
X119061241Y-60150753D01*
X119061240Y-60150753D01*
X118899957Y-60125208D01*
X118851287Y-60117500D01*
X118638713Y-60117500D01*
X118590042Y-60125208D01*
X118428760Y-60150753D01*
X118351498Y-60175857D01*
X118314656Y-60187828D01*
X118226585Y-60216444D01*
X118037179Y-60312951D01*
X117865213Y-60437890D01*
X117714890Y-60588213D01*
X117589949Y-60760182D01*
X117585484Y-60768946D01*
X117537509Y-60819742D01*
X117469688Y-60836536D01*
X117403553Y-60813998D01*
X117364516Y-60768946D01*
X117360050Y-60760182D01*
X117235109Y-60588213D01*
X117084786Y-60437890D01*
X116912820Y-60312951D01*
X116723414Y-60216444D01*
X116723413Y-60216443D01*
X116723412Y-60216443D01*
X116521243Y-60150754D01*
X116521241Y-60150753D01*
X116521240Y-60150753D01*
X116359957Y-60125208D01*
X116311287Y-60117500D01*
X116098713Y-60117500D01*
X116050042Y-60125208D01*
X115888760Y-60150753D01*
X115811498Y-60175857D01*
X115774656Y-60187828D01*
X115686585Y-60216444D01*
X115497179Y-60312951D01*
X115325215Y-60437889D01*
X115211673Y-60551431D01*
X115150350Y-60584915D01*
X115080658Y-60579931D01*
X115024725Y-60538059D01*
X115007810Y-60507082D01*
X114958797Y-60375671D01*
X114958793Y-60375664D01*
X114872547Y-60260455D01*
X114872544Y-60260452D01*
X114757335Y-60174206D01*
X114757328Y-60174202D01*
X114622482Y-60123908D01*
X114622483Y-60123908D01*
X114562883Y-60117501D01*
X114562881Y-60117500D01*
X114562873Y-60117500D01*
X114562864Y-60117500D01*
X112767129Y-60117500D01*
X112767123Y-60117501D01*
X112707516Y-60123908D01*
X112572671Y-60174202D01*
X112572664Y-60174206D01*
X112457455Y-60260452D01*
X112457452Y-60260455D01*
X112371206Y-60375664D01*
X112371202Y-60375671D01*
X112320908Y-60510517D01*
X112314501Y-60570116D01*
X112314500Y-60570127D01*
X112314500Y-61275007D01*
X112314501Y-61893500D01*
X112294816Y-61960539D01*
X112242013Y-62006294D01*
X112190501Y-62017500D01*
X111340453Y-62017500D01*
X111273414Y-61997815D01*
X111252772Y-61981181D01*
X109716221Y-60444631D01*
X109705859Y-60434269D01*
X109705858Y-60434267D01*
X109618733Y-60347142D01*
X109554156Y-60303993D01*
X109547884Y-60299802D01*
X109516285Y-60278687D01*
X109440759Y-60247404D01*
X109440757Y-60247403D01*
X109433291Y-60244311D01*
X109402452Y-60231537D01*
X109326567Y-60216443D01*
X109322549Y-60215643D01*
X109322535Y-60215640D01*
X109281611Y-60207500D01*
X109281607Y-60207500D01*
X109281606Y-60207500D01*
X106109361Y-60207500D01*
X106042322Y-60187815D01*
X106021679Y-60171180D01*
X105984038Y-60133538D01*
X105984034Y-60133535D01*
X105836553Y-60034990D01*
X105836540Y-60034983D01*
X105672667Y-59967106D01*
X105672658Y-59967103D01*
X105498694Y-59932500D01*
X105498691Y-59932500D01*
X105321309Y-59932500D01*
X105321306Y-59932500D01*
X105147341Y-59967103D01*
X105147332Y-59967106D01*
X104983459Y-60034983D01*
X104983446Y-60034990D01*
X104835965Y-60133535D01*
X104835961Y-60133538D01*
X104710538Y-60258961D01*
X104710535Y-60258965D01*
X104611990Y-60406446D01*
X104611983Y-60406459D01*
X104544106Y-60570332D01*
X104544103Y-60570341D01*
X104509500Y-60744304D01*
X104509500Y-60921695D01*
X104544103Y-61095658D01*
X104544106Y-61095667D01*
X104597722Y-61225109D01*
X104605191Y-61294579D01*
X104573915Y-61357058D01*
X104552053Y-61375663D01*
X104454961Y-61440538D01*
X104327319Y-61568181D01*
X104265996Y-61601666D01*
X104239638Y-61604500D01*
X92884924Y-61604500D01*
X92817885Y-61584815D01*
X92772130Y-61532011D01*
X92762186Y-61462853D01*
X92791211Y-61399297D01*
X92797243Y-61392819D01*
X92848075Y-61341987D01*
X92918809Y-61271253D01*
X92978727Y-61181577D01*
X93000941Y-61148332D01*
X93057515Y-61011750D01*
X93075142Y-60923137D01*
X93086357Y-60866757D01*
X93086357Y-60168272D01*
X93106042Y-60101233D01*
X93122676Y-60080591D01*
X93519461Y-59683806D01*
X93927952Y-59275315D01*
X93977186Y-59201628D01*
X94010084Y-59152394D01*
X94046491Y-59064499D01*
X94066659Y-59015811D01*
X94095500Y-58870816D01*
X94095500Y-58722981D01*
X94095500Y-56242229D01*
X94115185Y-56175190D01*
X94131819Y-56154548D01*
X98372948Y-51913419D01*
X98372951Y-51913416D01*
X98455084Y-51790495D01*
X98511658Y-51653913D01*
X98540500Y-51508918D01*
X98540500Y-51361083D01*
X98540500Y-50082220D01*
X98540830Y-50081093D01*
X98540521Y-50079962D01*
X98550646Y-50047665D01*
X98560185Y-50015181D01*
X98561186Y-50014046D01*
X98561423Y-50013292D01*
X98566631Y-50007877D01*
X98585018Y-49987044D01*
X98588230Y-49984361D01*
X98669792Y-49925104D01*
X98820104Y-49774792D01*
X98820106Y-49774788D01*
X98820109Y-49774786D01*
X98905890Y-49656717D01*
X98945051Y-49602816D01*
X98949793Y-49593508D01*
X98997763Y-49542711D01*
X99065583Y-49525911D01*
X99131719Y-49548445D01*
X99170763Y-49593500D01*
X99175373Y-49602547D01*
X99214728Y-49656716D01*
X99847036Y-49024407D01*
X99864075Y-49087993D01*
X99929901Y-49202007D01*
X100022993Y-49295099D01*
X100137007Y-49360925D01*
X100200590Y-49377962D01*
X99568282Y-50010269D01*
X99568282Y-50010270D01*
X99622449Y-50049624D01*
X99811782Y-50146095D01*
X100013870Y-50211757D01*
X100223754Y-50245000D01*
X100436246Y-50245000D01*
X100646127Y-50211757D01*
X100646130Y-50211757D01*
X100848217Y-50146095D01*
X101037554Y-50049622D01*
X101091716Y-50010270D01*
X101091717Y-50010270D01*
X100459408Y-49377962D01*
X100522993Y-49360925D01*
X100637007Y-49295099D01*
X100730099Y-49202007D01*
X100795925Y-49087993D01*
X100812962Y-49024409D01*
X101445270Y-49656717D01*
X101445270Y-49656716D01*
X101484622Y-49602555D01*
X101489232Y-49593507D01*
X101537205Y-49542709D01*
X101605025Y-49525912D01*
X101671161Y-49548447D01*
X101710204Y-49593504D01*
X101714949Y-49602817D01*
X101839890Y-49774786D01*
X101990213Y-49925109D01*
X102162179Y-50050048D01*
X102162181Y-50050049D01*
X102162184Y-50050051D01*
X102351588Y-50146557D01*
X102553757Y-50212246D01*
X102763713Y-50245500D01*
X102763714Y-50245500D01*
X102976286Y-50245500D01*
X102976287Y-50245500D01*
X103186243Y-50212246D01*
X103388412Y-50146557D01*
X103577816Y-50050051D01*
X103635864Y-50007877D01*
X103749786Y-49925109D01*
X103749788Y-49925106D01*
X103749792Y-49925104D01*
X103900104Y-49774792D01*
X103900106Y-49774788D01*
X103900109Y-49774786D01*
X104025048Y-49602820D01*
X104025047Y-49602820D01*
X104025051Y-49602816D01*
X104029514Y-49594054D01*
X104077488Y-49543259D01*
X104145308Y-49526463D01*
X104211444Y-49548999D01*
X104250486Y-49594056D01*
X104254951Y-49602820D01*
X104379890Y-49774786D01*
X104530213Y-49925109D01*
X104702181Y-50050050D01*
X104716792Y-50057494D01*
X104767589Y-50105467D01*
X104784500Y-50167980D01*
X104784500Y-51124548D01*
X104764815Y-51191587D01*
X104748181Y-51212229D01*
X101662229Y-54298181D01*
X101600906Y-54331666D01*
X101574548Y-54334500D01*
X99528083Y-54334500D01*
X99477229Y-54344615D01*
X99477224Y-54344616D01*
X99467665Y-54346518D01*
X99407242Y-54358537D01*
X99360091Y-54378067D01*
X99293409Y-54405688D01*
X99293408Y-54405689D01*
X99271041Y-54420633D01*
X99271038Y-54420635D01*
X99190962Y-54474140D01*
X99147399Y-54517703D01*
X99103836Y-54561267D01*
X99103833Y-54561270D01*
X97964576Y-55700528D01*
X97903253Y-55734013D01*
X97876895Y-55736847D01*
X97823653Y-55736847D01*
X97649688Y-55771450D01*
X97649679Y-55771453D01*
X97485806Y-55839330D01*
X97485793Y-55839337D01*
X97338312Y-55937882D01*
X97338308Y-55937885D01*
X97212885Y-56063308D01*
X97212882Y-56063312D01*
X97114337Y-56210793D01*
X97114332Y-56210803D01*
X97097817Y-56250675D01*
X97053976Y-56305078D01*
X96987682Y-56327143D01*
X96919982Y-56309864D01*
X96914366Y-56306325D01*
X96873745Y-56279183D01*
X96873734Y-56279177D01*
X96709861Y-56211300D01*
X96709852Y-56211297D01*
X96535888Y-56176694D01*
X96535885Y-56176694D01*
X96358503Y-56176694D01*
X96358500Y-56176694D01*
X96184535Y-56211297D01*
X96184526Y-56211300D01*
X96020653Y-56279177D01*
X96020640Y-56279184D01*
X95873159Y-56377729D01*
X95873155Y-56377732D01*
X95747732Y-56503155D01*
X95747729Y-56503159D01*
X95649184Y-56650640D01*
X95649177Y-56650653D01*
X95581300Y-56814526D01*
X95581297Y-56814535D01*
X95546694Y-56988498D01*
X95546694Y-57165889D01*
X95581297Y-57339852D01*
X95581300Y-57339861D01*
X95649177Y-57503734D01*
X95649184Y-57503747D01*
X95747729Y-57651228D01*
X95747732Y-57651232D01*
X95785374Y-57688873D01*
X95818860Y-57750195D01*
X95821694Y-57776555D01*
X95821694Y-58408805D01*
X95845729Y-58529638D01*
X95845734Y-58529655D01*
X95892879Y-58643475D01*
X95892882Y-58643480D01*
X95912767Y-58673239D01*
X95961336Y-58745927D01*
X96048461Y-58833052D01*
X96048463Y-58833053D01*
X96059034Y-58843624D01*
X97391262Y-60175854D01*
X97391265Y-60175857D01*
X97474596Y-60231537D01*
X97493714Y-60244311D01*
X97607548Y-60291463D01*
X97728393Y-60315500D01*
X97728394Y-60315500D01*
X97728398Y-60315500D01*
X97734454Y-60316097D01*
X97734263Y-60318032D01*
X97792678Y-60335185D01*
X97813321Y-60351820D01*
X97850961Y-60389461D01*
X97850965Y-60389464D01*
X97998446Y-60488009D01*
X97998459Y-60488016D01*
X98119276Y-60538059D01*
X98162334Y-60555894D01*
X98162336Y-60555894D01*
X98162341Y-60555896D01*
X98336304Y-60590499D01*
X98336307Y-60590500D01*
X98336309Y-60590500D01*
X98513693Y-60590500D01*
X98513694Y-60590499D01*
X98571682Y-60578964D01*
X98687658Y-60555896D01*
X98687661Y-60555894D01*
X98687666Y-60555894D01*
X98851547Y-60488013D01*
X98999035Y-60389464D01*
X99124464Y-60264035D01*
X99223013Y-60116547D01*
X99290894Y-59952666D01*
X99294906Y-59932500D01*
X99321446Y-59799072D01*
X99325500Y-59778691D01*
X99325500Y-59601309D01*
X99325500Y-59601306D01*
X99325499Y-59601304D01*
X99290896Y-59427341D01*
X99290893Y-59427332D01*
X99286579Y-59416918D01*
X99273923Y-59386363D01*
X99223016Y-59263459D01*
X99223009Y-59263446D01*
X99124464Y-59115965D01*
X99124461Y-59115961D01*
X98999038Y-58990538D01*
X98999034Y-58990535D01*
X98851553Y-58891990D01*
X98851540Y-58891983D01*
X98687667Y-58824106D01*
X98687658Y-58824103D01*
X98513694Y-58789500D01*
X98513691Y-58789500D01*
X98336309Y-58789500D01*
X98336306Y-58789500D01*
X98162341Y-58824103D01*
X98162332Y-58824106D01*
X97992825Y-58894318D01*
X97992175Y-58892749D01*
X97931709Y-58905327D01*
X97866470Y-58880315D01*
X97854001Y-58869410D01*
X97109013Y-58124422D01*
X97075528Y-58063099D01*
X97072694Y-58036741D01*
X97072694Y-57776555D01*
X97092379Y-57709516D01*
X97109014Y-57688873D01*
X97146655Y-57651232D01*
X97146658Y-57651229D01*
X97245207Y-57503741D01*
X97261724Y-57463866D01*
X97305564Y-57409462D01*
X97371858Y-57387397D01*
X97439558Y-57404676D01*
X97445166Y-57408209D01*
X97485800Y-57435360D01*
X97485802Y-57435361D01*
X97485806Y-57435363D01*
X97554620Y-57463866D01*
X97649681Y-57503241D01*
X97649683Y-57503241D01*
X97649688Y-57503243D01*
X97823651Y-57537846D01*
X97823654Y-57537847D01*
X97823656Y-57537847D01*
X98001040Y-57537847D01*
X98001041Y-57537846D01*
X98059029Y-57526311D01*
X98175005Y-57503243D01*
X98175008Y-57503241D01*
X98175013Y-57503241D01*
X98338894Y-57435360D01*
X98486382Y-57336811D01*
X98611811Y-57211382D01*
X98710360Y-57063894D01*
X98778241Y-56900013D01*
X98779061Y-56895894D01*
X98812846Y-56726042D01*
X98812847Y-56726040D01*
X98812847Y-56672799D01*
X98832532Y-56605760D01*
X98849166Y-56585118D01*
X99812465Y-55621819D01*
X99873788Y-55588334D01*
X99900146Y-55585500D01*
X101946607Y-55585500D01*
X102007029Y-55573481D01*
X102067452Y-55561463D01*
X102100792Y-55547652D01*
X102181286Y-55514312D01*
X102232509Y-55480084D01*
X102283733Y-55445858D01*
X102370858Y-55358733D01*
X102370859Y-55358731D01*
X102377925Y-55351665D01*
X102377928Y-55351661D01*
X105808729Y-51920860D01*
X105808733Y-51920858D01*
X105895858Y-51833733D01*
X105964311Y-51731286D01*
X105964312Y-51731285D01*
X105964313Y-51731282D01*
X105964315Y-51731279D01*
X105974672Y-51706272D01*
X106011463Y-51617451D01*
X106035500Y-51496607D01*
X106035500Y-51373393D01*
X106035500Y-51172135D01*
X134534500Y-51172135D01*
X134534500Y-52967870D01*
X134534501Y-52967876D01*
X134540908Y-53027483D01*
X134591202Y-53162328D01*
X134591206Y-53162335D01*
X134677452Y-53277544D01*
X134677455Y-53277547D01*
X134792664Y-53363793D01*
X134792671Y-53363797D01*
X134927517Y-53414091D01*
X134927516Y-53414091D01*
X134934444Y-53414835D01*
X134987127Y-53420500D01*
X136782872Y-53420499D01*
X136842483Y-53414091D01*
X136977331Y-53363796D01*
X137092546Y-53277546D01*
X137178796Y-53162331D01*
X137229091Y-53027483D01*
X137235500Y-52967873D01*
X137235499Y-52943979D01*
X137238330Y-52930963D01*
X137248940Y-52911525D01*
X137255179Y-52890275D01*
X137271803Y-52869643D01*
X137271808Y-52869636D01*
X137271811Y-52869634D01*
X137271818Y-52869626D01*
X137942037Y-52199408D01*
X137959075Y-52262993D01*
X138024901Y-52377007D01*
X138117993Y-52470099D01*
X138232007Y-52535925D01*
X138295590Y-52552962D01*
X137663282Y-53185269D01*
X137663282Y-53185270D01*
X137717449Y-53224624D01*
X137906782Y-53321095D01*
X138108870Y-53386757D01*
X138318754Y-53420000D01*
X138531246Y-53420000D01*
X138741127Y-53386757D01*
X138741130Y-53386757D01*
X138943217Y-53321095D01*
X139132554Y-53224622D01*
X139186716Y-53185270D01*
X139186717Y-53185270D01*
X138554408Y-52552962D01*
X138617993Y-52535925D01*
X138732007Y-52470099D01*
X138825099Y-52377007D01*
X138890925Y-52262993D01*
X138907962Y-52199408D01*
X139540270Y-52831717D01*
X139540270Y-52831716D01*
X139579622Y-52777554D01*
X139676095Y-52588217D01*
X139741757Y-52386130D01*
X139741757Y-52386127D01*
X139775000Y-52176246D01*
X139775000Y-51963753D01*
X139741757Y-51753872D01*
X139741757Y-51753869D01*
X139676095Y-51551782D01*
X139579624Y-51362449D01*
X139540270Y-51308282D01*
X139540269Y-51308282D01*
X138907962Y-51940590D01*
X138890925Y-51877007D01*
X138825099Y-51762993D01*
X138732007Y-51669901D01*
X138617993Y-51604075D01*
X138554409Y-51587037D01*
X139186716Y-50954728D01*
X139132550Y-50915375D01*
X138943217Y-50818904D01*
X138741129Y-50753242D01*
X138531246Y-50720000D01*
X138318754Y-50720000D01*
X138108872Y-50753242D01*
X138108869Y-50753242D01*
X137906782Y-50818904D01*
X137717439Y-50915380D01*
X137663282Y-50954727D01*
X137663282Y-50954728D01*
X138295591Y-51587037D01*
X138232007Y-51604075D01*
X138117993Y-51669901D01*
X138024901Y-51762993D01*
X137959075Y-51877007D01*
X137942037Y-51940591D01*
X137271818Y-51270372D01*
X137238333Y-51209049D01*
X137238330Y-51209036D01*
X137235499Y-51196015D01*
X137235499Y-51172128D01*
X137229091Y-51112517D01*
X137200926Y-51037002D01*
X137178798Y-50977673D01*
X137178793Y-50977664D01*
X137092547Y-50862455D01*
X137092544Y-50862452D01*
X136977335Y-50776206D01*
X136977328Y-50776202D01*
X136842482Y-50725908D01*
X136842483Y-50725908D01*
X136782883Y-50719501D01*
X136782881Y-50719500D01*
X136782873Y-50719500D01*
X136782864Y-50719500D01*
X134987129Y-50719500D01*
X134987123Y-50719501D01*
X134927516Y-50725908D01*
X134792671Y-50776202D01*
X134792664Y-50776206D01*
X134677455Y-50862452D01*
X134677452Y-50862455D01*
X134591206Y-50977664D01*
X134591202Y-50977671D01*
X134540908Y-51112517D01*
X134534501Y-51172116D01*
X134534500Y-51172135D01*
X106035500Y-51172135D01*
X106035500Y-50167980D01*
X106055185Y-50100941D01*
X106103208Y-50057494D01*
X106117818Y-50050050D01*
X106289786Y-49925109D01*
X106289788Y-49925106D01*
X106289792Y-49925104D01*
X106440104Y-49774792D01*
X106440106Y-49774788D01*
X106440109Y-49774786D01*
X106565048Y-49602820D01*
X106565047Y-49602820D01*
X106565051Y-49602816D01*
X106661557Y-49413412D01*
X106727246Y-49211243D01*
X106760500Y-49001287D01*
X106760500Y-48788713D01*
X106727246Y-48578757D01*
X106661557Y-48376588D01*
X106565051Y-48187184D01*
X106565049Y-48187181D01*
X106565048Y-48187179D01*
X106440109Y-48015213D01*
X106326569Y-47901673D01*
X106293084Y-47840350D01*
X106298068Y-47770658D01*
X106339940Y-47714725D01*
X106370915Y-47697810D01*
X106502331Y-47648796D01*
X106617546Y-47562546D01*
X106703796Y-47447331D01*
X106754091Y-47312483D01*
X106760500Y-47252873D01*
X106760499Y-46233711D01*
X145469500Y-46233711D01*
X145469500Y-46476288D01*
X145501161Y-46716785D01*
X145563947Y-46951104D01*
X145610219Y-47062814D01*
X145656776Y-47175212D01*
X145778064Y-47385289D01*
X145778066Y-47385292D01*
X145778067Y-47385293D01*
X145925733Y-47577736D01*
X145925739Y-47577743D01*
X146097256Y-47749260D01*
X146097262Y-47749265D01*
X146289711Y-47896936D01*
X146499788Y-48018224D01*
X146723900Y-48111054D01*
X146958211Y-48173838D01*
X147138586Y-48197584D01*
X147198711Y-48205500D01*
X147198712Y-48205500D01*
X147441289Y-48205500D01*
X147489388Y-48199167D01*
X147681789Y-48173838D01*
X147916100Y-48111054D01*
X148140212Y-48018224D01*
X148350289Y-47896936D01*
X148542738Y-47749265D01*
X148714265Y-47577738D01*
X148861936Y-47385289D01*
X148983224Y-47175212D01*
X149076054Y-46951100D01*
X149138838Y-46716789D01*
X149170500Y-46476288D01*
X149170500Y-46233712D01*
X149138838Y-45993211D01*
X149076054Y-45758900D01*
X148983224Y-45534788D01*
X148861936Y-45324711D01*
X148766530Y-45200375D01*
X148714266Y-45132263D01*
X148714260Y-45132256D01*
X148542743Y-44960739D01*
X148542736Y-44960733D01*
X148350293Y-44813067D01*
X148350292Y-44813066D01*
X148350289Y-44813064D01*
X148140212Y-44691776D01*
X148140205Y-44691773D01*
X147916104Y-44598947D01*
X147681785Y-44536161D01*
X147441289Y-44504500D01*
X147441288Y-44504500D01*
X147198712Y-44504500D01*
X147198711Y-44504500D01*
X146958214Y-44536161D01*
X146723895Y-44598947D01*
X146499794Y-44691773D01*
X146499785Y-44691777D01*
X146289706Y-44813067D01*
X146097263Y-44960733D01*
X146097256Y-44960739D01*
X145925739Y-45132256D01*
X145925733Y-45132263D01*
X145778067Y-45324706D01*
X145656777Y-45534785D01*
X145656773Y-45534794D01*
X145563947Y-45758895D01*
X145501161Y-45993214D01*
X145469500Y-46233711D01*
X106760499Y-46233711D01*
X106760499Y-45457128D01*
X106754091Y-45397517D01*
X106752810Y-45394083D01*
X106703797Y-45262671D01*
X106703793Y-45262664D01*
X106617547Y-45147455D01*
X106617544Y-45147452D01*
X106502335Y-45061206D01*
X106502328Y-45061202D01*
X106367482Y-45010908D01*
X106367483Y-45010908D01*
X106307883Y-45004501D01*
X106307881Y-45004500D01*
X106307873Y-45004500D01*
X106307864Y-45004500D01*
X104512129Y-45004500D01*
X104512123Y-45004501D01*
X104452516Y-45010908D01*
X104317671Y-45061202D01*
X104317664Y-45061206D01*
X104202455Y-45147452D01*
X104202452Y-45147455D01*
X104116206Y-45262664D01*
X104116203Y-45262669D01*
X104067189Y-45394083D01*
X104025317Y-45450016D01*
X103959853Y-45474433D01*
X103891580Y-45459581D01*
X103863326Y-45438430D01*
X103749786Y-45324890D01*
X103577820Y-45199951D01*
X103388414Y-45103444D01*
X103388413Y-45103443D01*
X103388412Y-45103443D01*
X103186243Y-45037754D01*
X103186241Y-45037753D01*
X103186240Y-45037753D01*
X103024957Y-45012208D01*
X102976287Y-45004500D01*
X102763713Y-45004500D01*
X102715042Y-45012208D01*
X102553760Y-45037753D01*
X102351585Y-45103444D01*
X102162179Y-45199951D01*
X101990213Y-45324890D01*
X101839890Y-45475213D01*
X101714949Y-45647182D01*
X101710202Y-45656499D01*
X101662227Y-45707293D01*
X101594405Y-45724087D01*
X101528271Y-45701548D01*
X101489234Y-45656495D01*
X101484626Y-45647452D01*
X101445270Y-45593282D01*
X101445269Y-45593282D01*
X100812962Y-46225589D01*
X100795925Y-46162007D01*
X100730099Y-46047993D01*
X100637007Y-45954901D01*
X100522993Y-45889075D01*
X100459409Y-45872037D01*
X101091716Y-45239728D01*
X101037550Y-45200375D01*
X100848217Y-45103904D01*
X100646129Y-45038242D01*
X100436246Y-45005000D01*
X100223754Y-45005000D01*
X100013872Y-45038242D01*
X100013869Y-45038242D01*
X99811782Y-45103904D01*
X99622439Y-45200380D01*
X99568282Y-45239727D01*
X99568282Y-45239728D01*
X100200591Y-45872037D01*
X100137007Y-45889075D01*
X100022993Y-45954901D01*
X99929901Y-46047993D01*
X99864075Y-46162007D01*
X99847037Y-46225591D01*
X99214728Y-45593282D01*
X99214727Y-45593282D01*
X99175380Y-45647440D01*
X99175376Y-45647446D01*
X99170760Y-45656505D01*
X99122781Y-45707297D01*
X99054959Y-45724087D01*
X98988826Y-45701543D01*
X98949794Y-45656493D01*
X98945051Y-45647184D01*
X98945049Y-45647181D01*
X98945048Y-45647179D01*
X98820109Y-45475213D01*
X98669786Y-45324890D01*
X98497820Y-45199951D01*
X98308414Y-45103444D01*
X98308413Y-45103443D01*
X98308412Y-45103443D01*
X98106243Y-45037754D01*
X98106241Y-45037753D01*
X98106240Y-45037753D01*
X97944957Y-45012208D01*
X97896287Y-45004500D01*
X97683713Y-45004500D01*
X97635042Y-45012208D01*
X97473760Y-45037753D01*
X97271585Y-45103444D01*
X97082179Y-45199951D01*
X96910213Y-45324890D01*
X96759890Y-45475213D01*
X96634949Y-45647182D01*
X96630484Y-45655946D01*
X96582509Y-45706742D01*
X96514688Y-45723536D01*
X96448553Y-45700998D01*
X96409516Y-45655946D01*
X96405050Y-45647182D01*
X96280109Y-45475213D01*
X96129786Y-45324890D01*
X95957820Y-45199951D01*
X95768414Y-45103444D01*
X95768413Y-45103443D01*
X95768412Y-45103443D01*
X95566243Y-45037754D01*
X95566241Y-45037753D01*
X95566240Y-45037753D01*
X95404957Y-45012208D01*
X95356287Y-45004500D01*
X95143713Y-45004500D01*
X95095042Y-45012208D01*
X94933760Y-45037753D01*
X94731585Y-45103444D01*
X94542179Y-45199951D01*
X94370213Y-45324890D01*
X94219890Y-45475213D01*
X94094951Y-45647179D01*
X93998444Y-45836585D01*
X93932753Y-46038760D01*
X93899500Y-46248713D01*
X93899500Y-46461286D01*
X93932753Y-46671239D01*
X93998444Y-46873414D01*
X94094948Y-47062814D01*
X94115870Y-47091612D01*
X94139348Y-47157419D01*
X94123521Y-47225472D01*
X94103231Y-47252176D01*
X82327229Y-59028181D01*
X82300301Y-59042884D01*
X82274483Y-59059477D01*
X82268282Y-59060368D01*
X82265906Y-59061666D01*
X82239548Y-59064500D01*
X82197741Y-59064500D01*
X82197721Y-59064499D01*
X82191607Y-59064499D01*
X82068394Y-59064499D01*
X82068392Y-59064499D01*
X81976250Y-59082827D01*
X81976243Y-59082829D01*
X81968427Y-59084384D01*
X81947548Y-59088537D01*
X81900397Y-59108067D01*
X81896502Y-59109680D01*
X81896500Y-59109681D01*
X81833719Y-59135685D01*
X81833717Y-59135686D01*
X81731266Y-59204141D01*
X81731263Y-59204144D01*
X81547228Y-59388181D01*
X81485905Y-59421666D01*
X81459547Y-59424500D01*
X81406306Y-59424500D01*
X81232341Y-59459103D01*
X81232332Y-59459106D01*
X81068459Y-59526983D01*
X81068446Y-59526990D01*
X80920965Y-59625535D01*
X80920961Y-59625538D01*
X80795538Y-59750961D01*
X80795535Y-59750965D01*
X80696990Y-59898446D01*
X80696983Y-59898459D01*
X80629106Y-60062332D01*
X80629103Y-60062341D01*
X80594500Y-60236304D01*
X80594500Y-60360548D01*
X80588261Y-60381793D01*
X80586682Y-60403882D01*
X80578609Y-60414665D01*
X80574815Y-60427587D01*
X80558081Y-60442086D01*
X80544810Y-60459815D01*
X80532189Y-60464522D01*
X80522011Y-60473342D01*
X80500093Y-60476493D01*
X80479346Y-60484232D01*
X80466185Y-60481369D01*
X80452853Y-60483286D01*
X80432709Y-60474086D01*
X80411073Y-60469380D01*
X80393347Y-60456111D01*
X80389297Y-60454261D01*
X80382819Y-60448229D01*
X80311819Y-60377229D01*
X80278334Y-60315906D01*
X80275500Y-60289548D01*
X80275500Y-60236306D01*
X80275499Y-60236304D01*
X80240896Y-60062341D01*
X80240893Y-60062332D01*
X80173016Y-59898459D01*
X80173009Y-59898446D01*
X80074464Y-59750965D01*
X80074461Y-59750961D01*
X79949038Y-59625538D01*
X79949034Y-59625535D01*
X79801553Y-59526990D01*
X79801540Y-59526983D01*
X79637667Y-59459106D01*
X79637658Y-59459103D01*
X79463694Y-59424500D01*
X79463691Y-59424500D01*
X79286309Y-59424500D01*
X79286306Y-59424500D01*
X79112341Y-59459103D01*
X79112332Y-59459106D01*
X78948459Y-59526983D01*
X78948446Y-59526990D01*
X78800965Y-59625535D01*
X78800961Y-59625538D01*
X78675538Y-59750961D01*
X78675535Y-59750965D01*
X78576990Y-59898446D01*
X78576983Y-59898459D01*
X78509106Y-60062332D01*
X78509103Y-60062341D01*
X78474500Y-60236304D01*
X78474500Y-60413695D01*
X78509103Y-60587658D01*
X78509106Y-60587667D01*
X78576983Y-60751540D01*
X78576990Y-60751553D01*
X78675535Y-60899034D01*
X78675538Y-60899038D01*
X78800961Y-61024461D01*
X78800965Y-61024464D01*
X78948446Y-61123009D01*
X78948459Y-61123016D01*
X79040146Y-61160993D01*
X79112334Y-61190894D01*
X79112336Y-61190894D01*
X79112341Y-61190896D01*
X79286304Y-61225499D01*
X79286307Y-61225500D01*
X79286309Y-61225500D01*
X79339548Y-61225500D01*
X79406587Y-61245185D01*
X79427229Y-61261819D01*
X80156016Y-61990606D01*
X80156045Y-61990637D01*
X80246263Y-62080855D01*
X80246267Y-62080858D01*
X80348707Y-62149307D01*
X80348716Y-62149312D01*
X80369739Y-62158020D01*
X80462548Y-62196463D01*
X80522971Y-62208481D01*
X80583393Y-62220500D01*
X85876607Y-62220500D01*
X85937029Y-62208481D01*
X85997452Y-62196463D01*
X86047298Y-62175816D01*
X86053247Y-62173351D01*
X86053250Y-62173351D01*
X86111281Y-62149314D01*
X86111280Y-62149314D01*
X86111286Y-62149312D01*
X86162509Y-62115084D01*
X86167432Y-62111795D01*
X86184177Y-62100606D01*
X86213733Y-62080858D01*
X86300858Y-61993733D01*
X86300858Y-61993731D01*
X86311066Y-61983524D01*
X86311067Y-61983521D01*
X90938357Y-57356234D01*
X90968631Y-57310927D01*
X91006811Y-57253786D01*
X91053963Y-57139952D01*
X91059513Y-57112047D01*
X91065114Y-57083892D01*
X91065114Y-57083889D01*
X91078000Y-57019107D01*
X91078000Y-56895894D01*
X91078000Y-56034361D01*
X91097685Y-55967322D01*
X91114320Y-55946679D01*
X91151961Y-55909038D01*
X91151964Y-55909035D01*
X91250513Y-55761547D01*
X91318394Y-55597666D01*
X91320251Y-55588334D01*
X91352999Y-55423695D01*
X91353000Y-55423693D01*
X91353000Y-55246306D01*
X91352999Y-55246304D01*
X91318396Y-55072341D01*
X91318393Y-55072332D01*
X91250516Y-54908459D01*
X91250509Y-54908446D01*
X91151964Y-54760965D01*
X91151961Y-54760961D01*
X91026538Y-54635538D01*
X91026534Y-54635535D01*
X90879053Y-54536990D01*
X90879040Y-54536983D01*
X90715167Y-54469106D01*
X90715158Y-54469103D01*
X90541194Y-54434500D01*
X90541191Y-54434500D01*
X90363809Y-54434500D01*
X90363806Y-54434500D01*
X90189841Y-54469103D01*
X90189832Y-54469106D01*
X90025959Y-54536983D01*
X90025946Y-54536990D01*
X89878465Y-54635535D01*
X89878461Y-54635538D01*
X89753038Y-54760961D01*
X89753035Y-54760965D01*
X89654490Y-54908446D01*
X89654483Y-54908459D01*
X89586606Y-55072332D01*
X89586603Y-55072341D01*
X89552000Y-55246304D01*
X89552000Y-55423695D01*
X89586603Y-55597658D01*
X89586606Y-55597667D01*
X89654483Y-55761540D01*
X89654490Y-55761553D01*
X89753035Y-55909034D01*
X89753038Y-55909038D01*
X89790680Y-55946679D01*
X89824166Y-56008001D01*
X89827000Y-56034361D01*
X89827000Y-56647047D01*
X89807315Y-56714086D01*
X89790681Y-56734728D01*
X85592229Y-60933181D01*
X85530906Y-60966666D01*
X85504548Y-60969500D01*
X82379370Y-60969500D01*
X82312331Y-60949815D01*
X82266576Y-60897011D01*
X82256632Y-60827853D01*
X82276267Y-60776610D01*
X82293010Y-60751551D01*
X82293013Y-60751547D01*
X82360894Y-60587666D01*
X82380716Y-60488016D01*
X82395179Y-60415308D01*
X82407385Y-60391972D01*
X82416109Y-60367125D01*
X82423323Y-60361502D01*
X82427564Y-60353397D01*
X82450449Y-60340364D01*
X82471221Y-60324179D01*
X82482719Y-60321989D01*
X82488280Y-60318823D01*
X82505557Y-60316010D01*
X82511161Y-60315500D01*
X82611607Y-60315500D01*
X82689894Y-60299928D01*
X82696331Y-60298647D01*
X82696337Y-60298647D01*
X82717452Y-60294446D01*
X82732452Y-60291463D01*
X82765792Y-60277652D01*
X82846286Y-60244312D01*
X82901377Y-60207500D01*
X82948733Y-60175858D01*
X83035858Y-60088733D01*
X83035858Y-60088731D01*
X83046066Y-60078524D01*
X83046067Y-60078521D01*
X93784914Y-49339675D01*
X93846235Y-49306192D01*
X93915927Y-49311176D01*
X93971860Y-49353048D01*
X93990522Y-49389034D01*
X93992461Y-49395000D01*
X93998445Y-49413417D01*
X94094951Y-49602820D01*
X94219890Y-49774786D01*
X94370213Y-49925109D01*
X94542179Y-50050048D01*
X94542181Y-50050049D01*
X94542184Y-50050051D01*
X94731588Y-50146557D01*
X94933757Y-50212246D01*
X95143713Y-50245500D01*
X95143714Y-50245500D01*
X95356286Y-50245500D01*
X95356287Y-50245500D01*
X95566243Y-50212246D01*
X95768412Y-50146557D01*
X95957816Y-50050051D01*
X96015864Y-50007877D01*
X96129786Y-49925109D01*
X96129788Y-49925106D01*
X96129792Y-49925104D01*
X96280104Y-49774792D01*
X96280106Y-49774788D01*
X96280109Y-49774786D01*
X96405048Y-49602820D01*
X96405047Y-49602820D01*
X96405051Y-49602816D01*
X96409514Y-49594054D01*
X96457488Y-49543259D01*
X96525308Y-49526463D01*
X96591444Y-49548999D01*
X96630486Y-49594056D01*
X96634951Y-49602820D01*
X96759890Y-49774786D01*
X96759896Y-49774792D01*
X96910208Y-49925104D01*
X96988384Y-49981902D01*
X97031051Y-50037231D01*
X97039500Y-50082220D01*
X97039500Y-51072770D01*
X97019815Y-51139809D01*
X97003181Y-51160451D01*
X92762047Y-55401584D01*
X92762042Y-55401590D01*
X92732468Y-55445855D01*
X92732466Y-55445858D01*
X92709597Y-55480084D01*
X92679914Y-55524507D01*
X92623343Y-55661082D01*
X92623340Y-55661092D01*
X92594500Y-55806079D01*
X92594500Y-58434668D01*
X92574815Y-58501707D01*
X92558181Y-58522349D01*
X91752907Y-59327622D01*
X91752901Y-59327630D01*
X91703669Y-59401310D01*
X91703670Y-59401311D01*
X91670778Y-59450538D01*
X91670771Y-59450551D01*
X91626321Y-59557863D01*
X91582480Y-59612266D01*
X91516185Y-59634331D01*
X91448486Y-59617052D01*
X91424079Y-59598091D01*
X91361526Y-59535538D01*
X91361522Y-59535535D01*
X91214041Y-59436990D01*
X91214028Y-59436983D01*
X91050155Y-59369106D01*
X91050146Y-59369103D01*
X90876182Y-59334500D01*
X90876179Y-59334500D01*
X90698797Y-59334500D01*
X90698794Y-59334500D01*
X90524829Y-59369103D01*
X90524820Y-59369106D01*
X90360947Y-59436983D01*
X90360934Y-59436990D01*
X90213453Y-59535535D01*
X90213449Y-59535538D01*
X90088026Y-59660961D01*
X90088023Y-59660965D01*
X89989478Y-59808446D01*
X89989471Y-59808459D01*
X89921594Y-59972332D01*
X89921591Y-59972341D01*
X89886988Y-60146304D01*
X89886988Y-60323695D01*
X89921591Y-60497658D01*
X89921594Y-60497667D01*
X89989471Y-60661540D01*
X89989478Y-60661553D01*
X90088022Y-60809033D01*
X90088023Y-60809034D01*
X90088024Y-60809035D01*
X90143182Y-60864193D01*
X90157888Y-60891124D01*
X90174477Y-60916938D01*
X90175368Y-60923137D01*
X90176666Y-60925514D01*
X90179500Y-60951873D01*
X90179500Y-61181115D01*
X90159815Y-61248154D01*
X90143181Y-61268796D01*
X89843797Y-61568181D01*
X89782474Y-61601666D01*
X89756116Y-61604500D01*
X89473389Y-61604500D01*
X89415867Y-61615942D01*
X89412971Y-61616518D01*
X89375259Y-61624019D01*
X89352550Y-61628536D01*
X89352548Y-61628537D01*
X89319207Y-61642347D01*
X89238718Y-61675685D01*
X89238715Y-61675687D01*
X89209974Y-61694891D01*
X89209967Y-61694896D01*
X89203985Y-61698894D01*
X89136267Y-61744142D01*
X89049142Y-61831267D01*
X89049139Y-61831270D01*
X89045629Y-61834779D01*
X89045623Y-61834785D01*
X86137229Y-64743181D01*
X86075906Y-64776666D01*
X86049548Y-64779500D01*
X81942361Y-64779500D01*
X81893427Y-64769436D01*
X81882946Y-64764934D01*
X81876591Y-64760688D01*
X81778046Y-64719870D01*
X81777325Y-64719571D01*
X81777266Y-64719546D01*
X81762763Y-64713539D01*
X81762759Y-64713537D01*
X81762757Y-64713537D01*
X81762753Y-64713536D01*
X81762749Y-64713535D01*
X81686911Y-64698450D01*
X81686910Y-64698450D01*
X81641916Y-64689500D01*
X81641912Y-64689500D01*
X81641911Y-64689500D01*
X81041302Y-64689500D01*
X80918088Y-64689500D01*
X80873088Y-64698451D01*
X80873087Y-64698450D01*
X80797250Y-64713535D01*
X80797240Y-64713538D01*
X80683407Y-64760689D01*
X80678039Y-64763559D01*
X80676988Y-64761593D01*
X80619842Y-64779480D01*
X80617641Y-64779500D01*
X80319056Y-64779500D01*
X80252017Y-64759815D01*
X80231374Y-64743180D01*
X80193733Y-64705538D01*
X80193729Y-64705535D01*
X80046248Y-64606990D01*
X80046235Y-64606983D01*
X79882362Y-64539106D01*
X79882353Y-64539103D01*
X79708389Y-64504500D01*
X79708386Y-64504500D01*
X79531004Y-64504500D01*
X79531001Y-64504500D01*
X79357036Y-64539103D01*
X79357027Y-64539106D01*
X79193154Y-64606983D01*
X79193141Y-64606990D01*
X79045660Y-64705535D01*
X79045656Y-64705538D01*
X79008016Y-64743180D01*
X78946694Y-64776666D01*
X78920334Y-64779500D01*
X74359361Y-64779500D01*
X74292322Y-64759815D01*
X74271679Y-64743180D01*
X74234038Y-64705538D01*
X74234034Y-64705535D01*
X74086553Y-64606990D01*
X74086540Y-64606983D01*
X73922667Y-64539106D01*
X73922658Y-64539103D01*
X73748694Y-64504500D01*
X73748691Y-64504500D01*
X73571309Y-64504500D01*
X73571306Y-64504500D01*
X73397341Y-64539103D01*
X73397332Y-64539106D01*
X73233459Y-64606983D01*
X73233446Y-64606990D01*
X73085965Y-64705535D01*
X73085961Y-64705538D01*
X72960538Y-64830961D01*
X72960535Y-64830965D01*
X72861990Y-64978446D01*
X72861983Y-64978459D01*
X72794106Y-65142332D01*
X72794103Y-65142341D01*
X72759500Y-65316304D01*
X68361946Y-65316304D01*
X68347325Y-65261739D01*
X68346482Y-65258405D01*
X68331526Y-65195645D01*
X68318222Y-65152758D01*
X68316879Y-65148112D01*
X68315330Y-65142332D01*
X68267236Y-64962841D01*
X68175243Y-64691841D01*
X68155454Y-64628044D01*
X68139720Y-64587193D01*
X68080129Y-64411643D01*
X68024820Y-64278116D01*
X67966444Y-64137183D01*
X67965842Y-64135730D01*
X67941864Y-64073470D01*
X67925007Y-64037146D01*
X67857373Y-63873862D01*
X67719454Y-63594189D01*
X67691709Y-63534400D01*
X67674333Y-63502693D01*
X67599922Y-63351802D01*
X67599917Y-63351795D01*
X67599915Y-63351789D01*
X67494536Y-63169269D01*
X67436971Y-63069564D01*
X67406107Y-63013242D01*
X67388820Y-62986164D01*
X67313484Y-62855678D01*
X67308884Y-62847710D01*
X67308883Y-62847708D01*
X67308877Y-62847698D01*
X67119411Y-62564142D01*
X67086333Y-62512325D01*
X67069750Y-62489819D01*
X67068163Y-62487443D01*
X66985489Y-62363714D01*
X66985485Y-62363708D01*
X66767933Y-62080188D01*
X66733816Y-62033884D01*
X66718513Y-62015784D01*
X66716724Y-62013452D01*
X66711231Y-62006294D01*
X66691962Y-61981181D01*
X66631135Y-61901910D01*
X66621060Y-61890422D01*
X66384399Y-61620560D01*
X66383632Y-61619685D01*
X66350129Y-61580058D01*
X66336721Y-61566195D01*
X66247333Y-61464267D01*
X65967846Y-61184780D01*
X65936987Y-61152872D01*
X65926008Y-61142942D01*
X65835737Y-61052671D01*
X65835733Y-61052667D01*
X65522371Y-60777856D01*
X65521733Y-60777296D01*
X65496235Y-60754235D01*
X65488208Y-60747896D01*
X65485803Y-60745787D01*
X65398105Y-60668878D01*
X65398095Y-60668869D01*
X65046341Y-60398959D01*
X65029841Y-60385928D01*
X65025280Y-60382797D01*
X65022662Y-60380788D01*
X64976297Y-60345212D01*
X64936292Y-60314515D01*
X64543361Y-60051966D01*
X64542708Y-60051530D01*
X64539888Y-60049594D01*
X64539197Y-60049184D01*
X64538467Y-60048696D01*
X64452302Y-59991123D01*
X64350764Y-59932500D01*
X63948198Y-59700077D01*
X63426141Y-59442628D01*
X62888365Y-59219874D01*
X62888354Y-59219870D01*
X62337167Y-59032766D01*
X62337153Y-59032761D01*
X61774905Y-58882108D01*
X61774879Y-58882102D01*
X61204007Y-58768549D01*
X61203996Y-58768547D01*
X60626893Y-58692570D01*
X60445374Y-58680673D01*
X60046045Y-58654500D01*
X59755500Y-58654500D01*
X59755000Y-58654500D01*
X59624660Y-58654500D01*
X59624658Y-58654500D01*
X59366411Y-58689994D01*
X59366403Y-58689996D01*
X59115391Y-58760327D01*
X58876304Y-58864176D01*
X58763527Y-58932758D01*
X58653568Y-58999626D01*
X58653567Y-58999627D01*
X58653559Y-58999632D01*
X58620154Y-59026806D01*
X58620155Y-59026807D01*
X58614771Y-59031187D01*
X58611918Y-59033021D01*
X58602688Y-59041017D01*
X58601176Y-59042249D01*
X58601172Y-59042252D01*
X58451355Y-59164138D01*
X58451354Y-59164139D01*
X58416597Y-59201351D01*
X58416598Y-59201352D01*
X58412119Y-59206146D01*
X58406241Y-59211241D01*
X58391830Y-59227871D01*
X58390221Y-59229595D01*
X58273434Y-59354644D01*
X58273422Y-59354659D01*
X58239420Y-59402828D01*
X58235859Y-59407871D01*
X58228021Y-59416918D01*
X58213257Y-59439889D01*
X58211690Y-59442111D01*
X58211669Y-59442143D01*
X58123098Y-59567619D01*
X58092158Y-59627330D01*
X58092157Y-59627329D01*
X58089488Y-59632478D01*
X58080886Y-59645865D01*
X58068495Y-59672996D01*
X58067061Y-59675765D01*
X58003170Y-59799069D01*
X58003169Y-59799072D01*
X57977787Y-59870491D01*
X57977786Y-59870494D01*
X57975978Y-59875580D01*
X57967831Y-59893420D01*
X57959251Y-59922639D01*
X57958079Y-59925938D01*
X57915876Y-60044691D01*
X57915872Y-60044705D01*
X57898638Y-60127632D01*
X57898639Y-60127633D01*
X57897619Y-60132541D01*
X57891158Y-60154546D01*
X57886915Y-60184051D01*
X57886360Y-60186721D01*
X57886134Y-60187815D01*
X57886131Y-60187828D01*
X57886130Y-60187829D01*
X57862836Y-60299923D01*
X57862836Y-60299928D01*
X57856417Y-60393751D01*
X57855445Y-60402926D01*
X57852427Y-60423921D01*
X57852427Y-60447868D01*
X57852138Y-60456330D01*
X57850230Y-60484232D01*
X57845047Y-60560000D01*
X54610000Y-60560000D01*
X54610000Y-46233711D01*
X57204500Y-46233711D01*
X57204500Y-46476288D01*
X57236161Y-46716785D01*
X57298947Y-46951104D01*
X57345219Y-47062814D01*
X57391776Y-47175212D01*
X57513064Y-47385289D01*
X57513066Y-47385292D01*
X57513067Y-47385293D01*
X57660733Y-47577736D01*
X57660739Y-47577743D01*
X57832256Y-47749260D01*
X57832262Y-47749265D01*
X58024711Y-47896936D01*
X58234788Y-48018224D01*
X58458900Y-48111054D01*
X58693211Y-48173838D01*
X58873586Y-48197584D01*
X58933711Y-48205500D01*
X58933712Y-48205500D01*
X59176289Y-48205500D01*
X59224388Y-48199167D01*
X59416789Y-48173838D01*
X59651100Y-48111054D01*
X59875212Y-48018224D01*
X60085289Y-47896936D01*
X60277738Y-47749265D01*
X60449265Y-47577738D01*
X60596936Y-47385289D01*
X60718224Y-47175212D01*
X60811054Y-46951100D01*
X60873838Y-46716789D01*
X60905500Y-46476288D01*
X60905500Y-46233712D01*
X60873838Y-45993211D01*
X60811054Y-45758900D01*
X60718224Y-45534788D01*
X60596936Y-45324711D01*
X60501530Y-45200375D01*
X60449266Y-45132263D01*
X60449260Y-45132256D01*
X60277743Y-44960739D01*
X60277736Y-44960733D01*
X60085293Y-44813067D01*
X60085292Y-44813066D01*
X60085289Y-44813064D01*
X59875212Y-44691776D01*
X59875205Y-44691773D01*
X59651104Y-44598947D01*
X59416785Y-44536161D01*
X59176289Y-44504500D01*
X59176288Y-44504500D01*
X58933712Y-44504500D01*
X58933711Y-44504500D01*
X58693214Y-44536161D01*
X58458895Y-44598947D01*
X58234794Y-44691773D01*
X58234785Y-44691777D01*
X58024706Y-44813067D01*
X57832263Y-44960733D01*
X57832256Y-44960739D01*
X57660739Y-45132256D01*
X57660733Y-45132263D01*
X57513067Y-45324706D01*
X57391777Y-45534785D01*
X57391773Y-45534794D01*
X57298947Y-45758895D01*
X57236161Y-45993214D01*
X57204500Y-46233711D01*
X54610000Y-46233711D01*
X54610000Y-42034000D01*
X54629685Y-41966961D01*
X54682489Y-41921206D01*
X54734000Y-41910000D01*
X152276000Y-41910000D01*
X152343039Y-41929685D01*
G37*
%TD.AperFunction*%
%TD*%
M02*
